%TF.GenerationSoftware,KiCad,Pcbnew,(5.1.6)-1*%
%TF.CreationDate,2024-02-11T14:18:57-05:00*%
%TF.ProjectId,GB-DMG-Headphone-PCB,47422d44-4d47-42d4-9865-616470686f6e,rev?*%
%TF.SameCoordinates,Original*%
%TF.FileFunction,Copper,L2,Bot*%
%TF.FilePolarity,Positive*%
%FSLAX46Y46*%
G04 Gerber Fmt 4.6, Leading zero omitted, Abs format (unit mm)*
G04 Created by KiCad (PCBNEW (5.1.6)-1) date 2024-02-11 14:18:57*
%MOMM*%
%LPD*%
G01*
G04 APERTURE LIST*
%TA.AperFunction,ComponentPad*%
%ADD10R,1.700000X1.700000*%
%TD*%
%TA.AperFunction,ComponentPad*%
%ADD11O,1.700000X1.700000*%
%TD*%
%TA.AperFunction,ComponentPad*%
%ADD12O,2.616000X1.308000*%
%TD*%
%TA.AperFunction,ComponentPad*%
%ADD13C,1.508000*%
%TD*%
%TA.AperFunction,ComponentPad*%
%ADD14O,1.308000X2.616000*%
%TD*%
%TA.AperFunction,ViaPad*%
%ADD15C,0.800000*%
%TD*%
%TA.AperFunction,Conductor*%
%ADD16C,0.500000*%
%TD*%
%TA.AperFunction,Conductor*%
%ADD17C,0.254000*%
%TD*%
G04 APERTURE END LIST*
D10*
%TO.P,J1,1*%
%TO.N,DETECT*%
X145542000Y-99123500D03*
D11*
%TO.P,J1,2*%
%TO.N,Net-(J1-Pad2)*%
X148082000Y-99123500D03*
%TO.P,J1,3*%
%TO.N,Net-(J1-Pad3)*%
X150622000Y-99123500D03*
%TO.P,J1,4*%
%TO.N,Net-(J1-Pad4)*%
X153162000Y-99123500D03*
%TD*%
D12*
%TO.P,J2,1*%
%TO.N,GND*%
X137350500Y-109902000D03*
D13*
%TO.P,J2,4*%
X134850500Y-99902000D03*
%TO.P,J2,5*%
%TO.N,DETECT*%
X137350500Y-99902000D03*
%TO.P,J2,6*%
%TO.N,N/C*%
X139850500Y-99902000D03*
D14*
%TO.P,J2,2*%
%TO.N,LEFT*%
X142350500Y-104902000D03*
%TO.P,J2,3*%
%TO.N,RIGHT*%
X132350500Y-104902000D03*
%TD*%
D15*
%TO.N,LEFT*%
X158369000Y-99250500D03*
%TD*%
D16*
%TO.N,LEFT*%
X142350500Y-104902000D02*
X152717500Y-104902000D01*
X152717500Y-104902000D02*
X158369000Y-99250500D01*
%TD*%
D17*
%TO.N,GND*%
G36*
X144388605Y-97970105D02*
G01*
X144335245Y-98035124D01*
X144295595Y-98109304D01*
X144271178Y-98189793D01*
X144262934Y-98273500D01*
X144262934Y-99973500D01*
X144271178Y-100057207D01*
X144295595Y-100137696D01*
X144335245Y-100211876D01*
X144388605Y-100276895D01*
X144453624Y-100330255D01*
X144527804Y-100369905D01*
X144608293Y-100394322D01*
X144692000Y-100402566D01*
X146392000Y-100402566D01*
X146475707Y-100394322D01*
X146556196Y-100369905D01*
X146630376Y-100330255D01*
X146695395Y-100276895D01*
X146748755Y-100211876D01*
X146788405Y-100137696D01*
X146812822Y-100057207D01*
X146821066Y-99973500D01*
X146821066Y-99330044D01*
X146854074Y-99495987D01*
X146950337Y-99728386D01*
X147090089Y-99937540D01*
X147267960Y-100115411D01*
X147477114Y-100255163D01*
X147709513Y-100351426D01*
X147956226Y-100400500D01*
X148207774Y-100400500D01*
X148454487Y-100351426D01*
X148686886Y-100255163D01*
X148896040Y-100115411D01*
X149073911Y-99937540D01*
X149213663Y-99728386D01*
X149309926Y-99495987D01*
X149352000Y-99284466D01*
X149394074Y-99495987D01*
X149490337Y-99728386D01*
X149630089Y-99937540D01*
X149807960Y-100115411D01*
X150017114Y-100255163D01*
X150249513Y-100351426D01*
X150496226Y-100400500D01*
X150747774Y-100400500D01*
X150994487Y-100351426D01*
X151226886Y-100255163D01*
X151436040Y-100115411D01*
X151613911Y-99937540D01*
X151753663Y-99728386D01*
X151849926Y-99495987D01*
X151892000Y-99284466D01*
X151934074Y-99495987D01*
X152030337Y-99728386D01*
X152170089Y-99937540D01*
X152347960Y-100115411D01*
X152557114Y-100255163D01*
X152789513Y-100351426D01*
X153036226Y-100400500D01*
X153287774Y-100400500D01*
X153534487Y-100351426D01*
X153766886Y-100255163D01*
X153976040Y-100115411D01*
X154153911Y-99937540D01*
X154293663Y-99728386D01*
X154389926Y-99495987D01*
X154439000Y-99249274D01*
X154439000Y-98997726D01*
X154389926Y-98751013D01*
X154293663Y-98518614D01*
X154153911Y-98309460D01*
X153976040Y-98131589D01*
X153766886Y-97991837D01*
X153604320Y-97924500D01*
X164521001Y-97924500D01*
X164521000Y-113848000D01*
X127452000Y-113848000D01*
X127452000Y-112300849D01*
X131323500Y-112300849D01*
X131323500Y-112503151D01*
X131362967Y-112701565D01*
X131440385Y-112888467D01*
X131552777Y-113056674D01*
X131695826Y-113199723D01*
X131864033Y-113312115D01*
X132050935Y-113389533D01*
X132249349Y-113429000D01*
X132451651Y-113429000D01*
X132650065Y-113389533D01*
X132836967Y-113312115D01*
X133005174Y-113199723D01*
X133148223Y-113056674D01*
X133260615Y-112888467D01*
X133338033Y-112701565D01*
X133377500Y-112503151D01*
X133377500Y-112300849D01*
X141323500Y-112300849D01*
X141323500Y-112503151D01*
X141362967Y-112701565D01*
X141440385Y-112888467D01*
X141552777Y-113056674D01*
X141695826Y-113199723D01*
X141864033Y-113312115D01*
X142050935Y-113389533D01*
X142249349Y-113429000D01*
X142451651Y-113429000D01*
X142650065Y-113389533D01*
X142836967Y-113312115D01*
X143005174Y-113199723D01*
X143148223Y-113056674D01*
X143260615Y-112888467D01*
X143338033Y-112701565D01*
X143377500Y-112503151D01*
X143377500Y-112300849D01*
X143338033Y-112102435D01*
X143260615Y-111915533D01*
X143148223Y-111747326D01*
X143005174Y-111604277D01*
X142836967Y-111491885D01*
X142650065Y-111414467D01*
X142451651Y-111375000D01*
X142249349Y-111375000D01*
X142050935Y-111414467D01*
X141864033Y-111491885D01*
X141695826Y-111604277D01*
X141552777Y-111747326D01*
X141440385Y-111915533D01*
X141362967Y-112102435D01*
X141323500Y-112300849D01*
X133377500Y-112300849D01*
X133338033Y-112102435D01*
X133260615Y-111915533D01*
X133148223Y-111747326D01*
X133005174Y-111604277D01*
X132836967Y-111491885D01*
X132650065Y-111414467D01*
X132451651Y-111375000D01*
X132249349Y-111375000D01*
X132050935Y-111414467D01*
X131864033Y-111491885D01*
X131695826Y-111604277D01*
X131552777Y-111747326D01*
X131440385Y-111915533D01*
X131362967Y-112102435D01*
X131323500Y-112300849D01*
X127452000Y-112300849D01*
X127452000Y-109133104D01*
X127949500Y-109133104D01*
X127949500Y-109433896D01*
X128008181Y-109728910D01*
X128123290Y-110006806D01*
X128290401Y-110256906D01*
X128503094Y-110469599D01*
X128753194Y-110636710D01*
X129031090Y-110751819D01*
X129326104Y-110810500D01*
X129626896Y-110810500D01*
X129921910Y-110751819D01*
X130199806Y-110636710D01*
X130449906Y-110469599D01*
X130662599Y-110256906D01*
X130829710Y-110006806D01*
X130915020Y-109800849D01*
X131323500Y-109800849D01*
X131323500Y-110003151D01*
X131362967Y-110201565D01*
X131440385Y-110388467D01*
X131552777Y-110556674D01*
X131695826Y-110699723D01*
X131864033Y-110812115D01*
X132050935Y-110889533D01*
X132249349Y-110929000D01*
X132451651Y-110929000D01*
X132650065Y-110889533D01*
X132836967Y-110812115D01*
X133005174Y-110699723D01*
X133148223Y-110556674D01*
X133260615Y-110388467D01*
X133338033Y-110201565D01*
X133359471Y-110093784D01*
X135632649Y-110093784D01*
X135688984Y-110294431D01*
X135784903Y-110483447D01*
X135915854Y-110650118D01*
X136076805Y-110788040D01*
X136261570Y-110891912D01*
X136463049Y-110957742D01*
X136673500Y-110983000D01*
X137327500Y-110983000D01*
X137327500Y-109925000D01*
X137373500Y-109925000D01*
X137373500Y-110983000D01*
X138027500Y-110983000D01*
X138237951Y-110957742D01*
X138439430Y-110891912D01*
X138624195Y-110788040D01*
X138785146Y-110650118D01*
X138916097Y-110483447D01*
X139012016Y-110294431D01*
X139068351Y-110093784D01*
X138978478Y-109925000D01*
X137373500Y-109925000D01*
X137327500Y-109925000D01*
X135722522Y-109925000D01*
X135632649Y-110093784D01*
X133359471Y-110093784D01*
X133377500Y-110003151D01*
X133377500Y-109800849D01*
X133359472Y-109710216D01*
X135632649Y-109710216D01*
X135722522Y-109879000D01*
X137327500Y-109879000D01*
X137327500Y-108821000D01*
X137373500Y-108821000D01*
X137373500Y-109879000D01*
X138978478Y-109879000D01*
X139020091Y-109800849D01*
X141323500Y-109800849D01*
X141323500Y-110003151D01*
X141362967Y-110201565D01*
X141440385Y-110388467D01*
X141552777Y-110556674D01*
X141695826Y-110699723D01*
X141864033Y-110812115D01*
X142050935Y-110889533D01*
X142249349Y-110929000D01*
X142451651Y-110929000D01*
X142650065Y-110889533D01*
X142836967Y-110812115D01*
X143005174Y-110699723D01*
X143148223Y-110556674D01*
X143260615Y-110388467D01*
X143338033Y-110201565D01*
X143377500Y-110003151D01*
X143377500Y-109800849D01*
X143338033Y-109602435D01*
X143260615Y-109415533D01*
X143148223Y-109247326D01*
X143034001Y-109133104D01*
X143697500Y-109133104D01*
X143697500Y-109433896D01*
X143756181Y-109728910D01*
X143871290Y-110006806D01*
X144038401Y-110256906D01*
X144251094Y-110469599D01*
X144501194Y-110636710D01*
X144779090Y-110751819D01*
X145074104Y-110810500D01*
X145374896Y-110810500D01*
X145669910Y-110751819D01*
X145947806Y-110636710D01*
X146197906Y-110469599D01*
X146410599Y-110256906D01*
X146577710Y-110006806D01*
X146692819Y-109728910D01*
X146751500Y-109433896D01*
X146751500Y-109133104D01*
X146692819Y-108838090D01*
X146577710Y-108560194D01*
X146410599Y-108310094D01*
X146197906Y-108097401D01*
X145947806Y-107930290D01*
X145669910Y-107815181D01*
X145374896Y-107756500D01*
X145074104Y-107756500D01*
X144779090Y-107815181D01*
X144501194Y-107930290D01*
X144251094Y-108097401D01*
X144038401Y-108310094D01*
X143871290Y-108560194D01*
X143756181Y-108838090D01*
X143697500Y-109133104D01*
X143034001Y-109133104D01*
X143005174Y-109104277D01*
X142836967Y-108991885D01*
X142650065Y-108914467D01*
X142451651Y-108875000D01*
X142249349Y-108875000D01*
X142050935Y-108914467D01*
X141864033Y-108991885D01*
X141695826Y-109104277D01*
X141552777Y-109247326D01*
X141440385Y-109415533D01*
X141362967Y-109602435D01*
X141323500Y-109800849D01*
X139020091Y-109800849D01*
X139068351Y-109710216D01*
X139012016Y-109509569D01*
X138916097Y-109320553D01*
X138785146Y-109153882D01*
X138624195Y-109015960D01*
X138439430Y-108912088D01*
X138237951Y-108846258D01*
X138027500Y-108821000D01*
X137373500Y-108821000D01*
X137327500Y-108821000D01*
X136673500Y-108821000D01*
X136463049Y-108846258D01*
X136261570Y-108912088D01*
X136076805Y-109015960D01*
X135915854Y-109153882D01*
X135784903Y-109320553D01*
X135688984Y-109509569D01*
X135632649Y-109710216D01*
X133359472Y-109710216D01*
X133338033Y-109602435D01*
X133260615Y-109415533D01*
X133148223Y-109247326D01*
X133005174Y-109104277D01*
X132836967Y-108991885D01*
X132650065Y-108914467D01*
X132451651Y-108875000D01*
X132249349Y-108875000D01*
X132050935Y-108914467D01*
X131864033Y-108991885D01*
X131695826Y-109104277D01*
X131552777Y-109247326D01*
X131440385Y-109415533D01*
X131362967Y-109602435D01*
X131323500Y-109800849D01*
X130915020Y-109800849D01*
X130944819Y-109728910D01*
X131003500Y-109433896D01*
X131003500Y-109133104D01*
X130944819Y-108838090D01*
X130829710Y-108560194D01*
X130662599Y-108310094D01*
X130449906Y-108097401D01*
X130199806Y-107930290D01*
X129921910Y-107815181D01*
X129626896Y-107756500D01*
X129326104Y-107756500D01*
X129031090Y-107815181D01*
X128753194Y-107930290D01*
X128503094Y-108097401D01*
X128290401Y-108310094D01*
X128123290Y-108560194D01*
X128008181Y-108838090D01*
X127949500Y-109133104D01*
X127452000Y-109133104D01*
X127452000Y-104194901D01*
X131269500Y-104194901D01*
X131269500Y-105609100D01*
X131285142Y-105767913D01*
X131346955Y-105971682D01*
X131447334Y-106159477D01*
X131582420Y-106324081D01*
X131747024Y-106459167D01*
X131934819Y-106559546D01*
X132138588Y-106621358D01*
X132350500Y-106642230D01*
X132562413Y-106621358D01*
X132766182Y-106559546D01*
X132953977Y-106459167D01*
X133118581Y-106324081D01*
X133253667Y-106159477D01*
X133354046Y-105971682D01*
X133415858Y-105767913D01*
X133431500Y-105609100D01*
X133431500Y-104800849D01*
X136323500Y-104800849D01*
X136323500Y-105003151D01*
X136362967Y-105201565D01*
X136440385Y-105388467D01*
X136552777Y-105556674D01*
X136695826Y-105699723D01*
X136864033Y-105812115D01*
X137050935Y-105889533D01*
X137249349Y-105929000D01*
X137451651Y-105929000D01*
X137650065Y-105889533D01*
X137836967Y-105812115D01*
X138005174Y-105699723D01*
X138148223Y-105556674D01*
X138260615Y-105388467D01*
X138338033Y-105201565D01*
X138377500Y-105003151D01*
X138377500Y-104800849D01*
X138338033Y-104602435D01*
X138260615Y-104415533D01*
X138148223Y-104247326D01*
X138095798Y-104194901D01*
X141269500Y-104194901D01*
X141269500Y-105609100D01*
X141285142Y-105767913D01*
X141346955Y-105971682D01*
X141447334Y-106159477D01*
X141582420Y-106324081D01*
X141747024Y-106459167D01*
X141934819Y-106559546D01*
X142138588Y-106621358D01*
X142350500Y-106642230D01*
X142562413Y-106621358D01*
X142766182Y-106559546D01*
X142953977Y-106459167D01*
X143118581Y-106324081D01*
X143253667Y-106159477D01*
X143354046Y-105971682D01*
X143415858Y-105767913D01*
X143431500Y-105609100D01*
X143431500Y-105579000D01*
X152684255Y-105579000D01*
X152717500Y-105582274D01*
X152750745Y-105579000D01*
X152750752Y-105579000D01*
X152850215Y-105569204D01*
X152977830Y-105530492D01*
X153095441Y-105467628D01*
X153198527Y-105383027D01*
X153219726Y-105357196D01*
X158511583Y-100065340D01*
X158610227Y-100045718D01*
X158760731Y-99983377D01*
X158896181Y-99892872D01*
X159011372Y-99777681D01*
X159101877Y-99642231D01*
X159164218Y-99491727D01*
X159196000Y-99331952D01*
X159196000Y-99169048D01*
X159164218Y-99009273D01*
X159101877Y-98858769D01*
X159011372Y-98723319D01*
X158896181Y-98608128D01*
X158760731Y-98517623D01*
X158610227Y-98455282D01*
X158450452Y-98423500D01*
X158287548Y-98423500D01*
X158127773Y-98455282D01*
X157977269Y-98517623D01*
X157841819Y-98608128D01*
X157726628Y-98723319D01*
X157636123Y-98858769D01*
X157573782Y-99009273D01*
X157554160Y-99107917D01*
X152437078Y-104225000D01*
X143431500Y-104225000D01*
X143431500Y-104194900D01*
X143415858Y-104036087D01*
X143354046Y-103832318D01*
X143253667Y-103644523D01*
X143118581Y-103479919D01*
X142953977Y-103344833D01*
X142766181Y-103244454D01*
X142562412Y-103182642D01*
X142350500Y-103161770D01*
X142138587Y-103182642D01*
X141934818Y-103244454D01*
X141747023Y-103344833D01*
X141582419Y-103479919D01*
X141447333Y-103644523D01*
X141346954Y-103832319D01*
X141285142Y-104036088D01*
X141269500Y-104194901D01*
X138095798Y-104194901D01*
X138005174Y-104104277D01*
X137836967Y-103991885D01*
X137650065Y-103914467D01*
X137451651Y-103875000D01*
X137249349Y-103875000D01*
X137050935Y-103914467D01*
X136864033Y-103991885D01*
X136695826Y-104104277D01*
X136552777Y-104247326D01*
X136440385Y-104415533D01*
X136362967Y-104602435D01*
X136323500Y-104800849D01*
X133431500Y-104800849D01*
X133431500Y-104194900D01*
X133415858Y-104036087D01*
X133354046Y-103832318D01*
X133253667Y-103644523D01*
X133118581Y-103479919D01*
X132953977Y-103344833D01*
X132766181Y-103244454D01*
X132562412Y-103182642D01*
X132350500Y-103161770D01*
X132138587Y-103182642D01*
X131934818Y-103244454D01*
X131747023Y-103344833D01*
X131582419Y-103479919D01*
X131447333Y-103644523D01*
X131346954Y-103832319D01*
X131285142Y-104036088D01*
X131269500Y-104194901D01*
X127452000Y-104194901D01*
X127452000Y-101977723D01*
X129628875Y-99800849D01*
X131323500Y-99800849D01*
X131323500Y-100003151D01*
X131362967Y-100201565D01*
X131440385Y-100388467D01*
X131552777Y-100556674D01*
X131695826Y-100699723D01*
X131864033Y-100812115D01*
X132050935Y-100889533D01*
X132249349Y-100929000D01*
X132451651Y-100929000D01*
X132650065Y-100889533D01*
X132836967Y-100812115D01*
X133005174Y-100699723D01*
X133023157Y-100681740D01*
X134103287Y-100681740D01*
X134171706Y-100875410D01*
X134374651Y-100989133D01*
X134595883Y-101061077D01*
X134826900Y-101088479D01*
X135058824Y-101070285D01*
X135282743Y-101007195D01*
X135490051Y-100901633D01*
X135529294Y-100875410D01*
X135597713Y-100681740D01*
X134850500Y-99934527D01*
X134103287Y-100681740D01*
X133023157Y-100681740D01*
X133148223Y-100556674D01*
X133260615Y-100388467D01*
X133338033Y-100201565D01*
X133377500Y-100003151D01*
X133377500Y-99878400D01*
X133664021Y-99878400D01*
X133682215Y-100110324D01*
X133745305Y-100334243D01*
X133850867Y-100541551D01*
X133877090Y-100580794D01*
X134070760Y-100649213D01*
X134817973Y-99902000D01*
X134883027Y-99902000D01*
X135630240Y-100649213D01*
X135823910Y-100580794D01*
X135937633Y-100377849D01*
X136009577Y-100156617D01*
X136036979Y-99925600D01*
X136026003Y-99785682D01*
X136169500Y-99785682D01*
X136169500Y-100018318D01*
X136214886Y-100246485D01*
X136303912Y-100461413D01*
X136433158Y-100654843D01*
X136597657Y-100819342D01*
X136791087Y-100948588D01*
X137006015Y-101037614D01*
X137234182Y-101083000D01*
X137466818Y-101083000D01*
X137694985Y-101037614D01*
X137909913Y-100948588D01*
X138103343Y-100819342D01*
X138267842Y-100654843D01*
X138397088Y-100461413D01*
X138486114Y-100246485D01*
X138531500Y-100018318D01*
X138531500Y-99785682D01*
X138669500Y-99785682D01*
X138669500Y-100018318D01*
X138714886Y-100246485D01*
X138803912Y-100461413D01*
X138933158Y-100654843D01*
X139097657Y-100819342D01*
X139291087Y-100948588D01*
X139506015Y-101037614D01*
X139734182Y-101083000D01*
X139966818Y-101083000D01*
X140194985Y-101037614D01*
X140409913Y-100948588D01*
X140603343Y-100819342D01*
X140767842Y-100654843D01*
X140897088Y-100461413D01*
X140986114Y-100246485D01*
X141031500Y-100018318D01*
X141031500Y-99800849D01*
X141323500Y-99800849D01*
X141323500Y-100003151D01*
X141362967Y-100201565D01*
X141440385Y-100388467D01*
X141552777Y-100556674D01*
X141695826Y-100699723D01*
X141864033Y-100812115D01*
X142050935Y-100889533D01*
X142249349Y-100929000D01*
X142451651Y-100929000D01*
X142650065Y-100889533D01*
X142836967Y-100812115D01*
X143005174Y-100699723D01*
X143148223Y-100556674D01*
X143260615Y-100388467D01*
X143338033Y-100201565D01*
X143377500Y-100003151D01*
X143377500Y-99800849D01*
X143338033Y-99602435D01*
X143260615Y-99415533D01*
X143148223Y-99247326D01*
X143005174Y-99104277D01*
X142836967Y-98991885D01*
X142650065Y-98914467D01*
X142451651Y-98875000D01*
X142249349Y-98875000D01*
X142050935Y-98914467D01*
X141864033Y-98991885D01*
X141695826Y-99104277D01*
X141552777Y-99247326D01*
X141440385Y-99415533D01*
X141362967Y-99602435D01*
X141323500Y-99800849D01*
X141031500Y-99800849D01*
X141031500Y-99785682D01*
X140986114Y-99557515D01*
X140897088Y-99342587D01*
X140767842Y-99149157D01*
X140603343Y-98984658D01*
X140409913Y-98855412D01*
X140194985Y-98766386D01*
X139966818Y-98721000D01*
X139734182Y-98721000D01*
X139506015Y-98766386D01*
X139291087Y-98855412D01*
X139097657Y-98984658D01*
X138933158Y-99149157D01*
X138803912Y-99342587D01*
X138714886Y-99557515D01*
X138669500Y-99785682D01*
X138531500Y-99785682D01*
X138486114Y-99557515D01*
X138397088Y-99342587D01*
X138267842Y-99149157D01*
X138103343Y-98984658D01*
X137909913Y-98855412D01*
X137694985Y-98766386D01*
X137466818Y-98721000D01*
X137234182Y-98721000D01*
X137006015Y-98766386D01*
X136791087Y-98855412D01*
X136597657Y-98984658D01*
X136433158Y-99149157D01*
X136303912Y-99342587D01*
X136214886Y-99557515D01*
X136169500Y-99785682D01*
X136026003Y-99785682D01*
X136018785Y-99693676D01*
X135955695Y-99469757D01*
X135850133Y-99262449D01*
X135823910Y-99223206D01*
X135630240Y-99154787D01*
X134883027Y-99902000D01*
X134817973Y-99902000D01*
X134070760Y-99154787D01*
X133877090Y-99223206D01*
X133763367Y-99426151D01*
X133691423Y-99647383D01*
X133664021Y-99878400D01*
X133377500Y-99878400D01*
X133377500Y-99800849D01*
X133338033Y-99602435D01*
X133260615Y-99415533D01*
X133148223Y-99247326D01*
X133023157Y-99122260D01*
X134103287Y-99122260D01*
X134850500Y-99869473D01*
X135597713Y-99122260D01*
X135529294Y-98928590D01*
X135326349Y-98814867D01*
X135105117Y-98742923D01*
X134874100Y-98715521D01*
X134642176Y-98733715D01*
X134418257Y-98796805D01*
X134210949Y-98902367D01*
X134171706Y-98928590D01*
X134103287Y-99122260D01*
X133023157Y-99122260D01*
X133005174Y-99104277D01*
X132836967Y-98991885D01*
X132650065Y-98914467D01*
X132451651Y-98875000D01*
X132249349Y-98875000D01*
X132050935Y-98914467D01*
X131864033Y-98991885D01*
X131695826Y-99104277D01*
X131552777Y-99247326D01*
X131440385Y-99415533D01*
X131362967Y-99602435D01*
X131323500Y-99800849D01*
X129628875Y-99800849D01*
X131505225Y-97924500D01*
X144444175Y-97924500D01*
X144388605Y-97970105D01*
G37*
X144388605Y-97970105D02*
X144335245Y-98035124D01*
X144295595Y-98109304D01*
X144271178Y-98189793D01*
X144262934Y-98273500D01*
X144262934Y-99973500D01*
X144271178Y-100057207D01*
X144295595Y-100137696D01*
X144335245Y-100211876D01*
X144388605Y-100276895D01*
X144453624Y-100330255D01*
X144527804Y-100369905D01*
X144608293Y-100394322D01*
X144692000Y-100402566D01*
X146392000Y-100402566D01*
X146475707Y-100394322D01*
X146556196Y-100369905D01*
X146630376Y-100330255D01*
X146695395Y-100276895D01*
X146748755Y-100211876D01*
X146788405Y-100137696D01*
X146812822Y-100057207D01*
X146821066Y-99973500D01*
X146821066Y-99330044D01*
X146854074Y-99495987D01*
X146950337Y-99728386D01*
X147090089Y-99937540D01*
X147267960Y-100115411D01*
X147477114Y-100255163D01*
X147709513Y-100351426D01*
X147956226Y-100400500D01*
X148207774Y-100400500D01*
X148454487Y-100351426D01*
X148686886Y-100255163D01*
X148896040Y-100115411D01*
X149073911Y-99937540D01*
X149213663Y-99728386D01*
X149309926Y-99495987D01*
X149352000Y-99284466D01*
X149394074Y-99495987D01*
X149490337Y-99728386D01*
X149630089Y-99937540D01*
X149807960Y-100115411D01*
X150017114Y-100255163D01*
X150249513Y-100351426D01*
X150496226Y-100400500D01*
X150747774Y-100400500D01*
X150994487Y-100351426D01*
X151226886Y-100255163D01*
X151436040Y-100115411D01*
X151613911Y-99937540D01*
X151753663Y-99728386D01*
X151849926Y-99495987D01*
X151892000Y-99284466D01*
X151934074Y-99495987D01*
X152030337Y-99728386D01*
X152170089Y-99937540D01*
X152347960Y-100115411D01*
X152557114Y-100255163D01*
X152789513Y-100351426D01*
X153036226Y-100400500D01*
X153287774Y-100400500D01*
X153534487Y-100351426D01*
X153766886Y-100255163D01*
X153976040Y-100115411D01*
X154153911Y-99937540D01*
X154293663Y-99728386D01*
X154389926Y-99495987D01*
X154439000Y-99249274D01*
X154439000Y-98997726D01*
X154389926Y-98751013D01*
X154293663Y-98518614D01*
X154153911Y-98309460D01*
X153976040Y-98131589D01*
X153766886Y-97991837D01*
X153604320Y-97924500D01*
X164521001Y-97924500D01*
X164521000Y-113848000D01*
X127452000Y-113848000D01*
X127452000Y-112300849D01*
X131323500Y-112300849D01*
X131323500Y-112503151D01*
X131362967Y-112701565D01*
X131440385Y-112888467D01*
X131552777Y-113056674D01*
X131695826Y-113199723D01*
X131864033Y-113312115D01*
X132050935Y-113389533D01*
X132249349Y-113429000D01*
X132451651Y-113429000D01*
X132650065Y-113389533D01*
X132836967Y-113312115D01*
X133005174Y-113199723D01*
X133148223Y-113056674D01*
X133260615Y-112888467D01*
X133338033Y-112701565D01*
X133377500Y-112503151D01*
X133377500Y-112300849D01*
X141323500Y-112300849D01*
X141323500Y-112503151D01*
X141362967Y-112701565D01*
X141440385Y-112888467D01*
X141552777Y-113056674D01*
X141695826Y-113199723D01*
X141864033Y-113312115D01*
X142050935Y-113389533D01*
X142249349Y-113429000D01*
X142451651Y-113429000D01*
X142650065Y-113389533D01*
X142836967Y-113312115D01*
X143005174Y-113199723D01*
X143148223Y-113056674D01*
X143260615Y-112888467D01*
X143338033Y-112701565D01*
X143377500Y-112503151D01*
X143377500Y-112300849D01*
X143338033Y-112102435D01*
X143260615Y-111915533D01*
X143148223Y-111747326D01*
X143005174Y-111604277D01*
X142836967Y-111491885D01*
X142650065Y-111414467D01*
X142451651Y-111375000D01*
X142249349Y-111375000D01*
X142050935Y-111414467D01*
X141864033Y-111491885D01*
X141695826Y-111604277D01*
X141552777Y-111747326D01*
X141440385Y-111915533D01*
X141362967Y-112102435D01*
X141323500Y-112300849D01*
X133377500Y-112300849D01*
X133338033Y-112102435D01*
X133260615Y-111915533D01*
X133148223Y-111747326D01*
X133005174Y-111604277D01*
X132836967Y-111491885D01*
X132650065Y-111414467D01*
X132451651Y-111375000D01*
X132249349Y-111375000D01*
X132050935Y-111414467D01*
X131864033Y-111491885D01*
X131695826Y-111604277D01*
X131552777Y-111747326D01*
X131440385Y-111915533D01*
X131362967Y-112102435D01*
X131323500Y-112300849D01*
X127452000Y-112300849D01*
X127452000Y-109133104D01*
X127949500Y-109133104D01*
X127949500Y-109433896D01*
X128008181Y-109728910D01*
X128123290Y-110006806D01*
X128290401Y-110256906D01*
X128503094Y-110469599D01*
X128753194Y-110636710D01*
X129031090Y-110751819D01*
X129326104Y-110810500D01*
X129626896Y-110810500D01*
X129921910Y-110751819D01*
X130199806Y-110636710D01*
X130449906Y-110469599D01*
X130662599Y-110256906D01*
X130829710Y-110006806D01*
X130915020Y-109800849D01*
X131323500Y-109800849D01*
X131323500Y-110003151D01*
X131362967Y-110201565D01*
X131440385Y-110388467D01*
X131552777Y-110556674D01*
X131695826Y-110699723D01*
X131864033Y-110812115D01*
X132050935Y-110889533D01*
X132249349Y-110929000D01*
X132451651Y-110929000D01*
X132650065Y-110889533D01*
X132836967Y-110812115D01*
X133005174Y-110699723D01*
X133148223Y-110556674D01*
X133260615Y-110388467D01*
X133338033Y-110201565D01*
X133359471Y-110093784D01*
X135632649Y-110093784D01*
X135688984Y-110294431D01*
X135784903Y-110483447D01*
X135915854Y-110650118D01*
X136076805Y-110788040D01*
X136261570Y-110891912D01*
X136463049Y-110957742D01*
X136673500Y-110983000D01*
X137327500Y-110983000D01*
X137327500Y-109925000D01*
X137373500Y-109925000D01*
X137373500Y-110983000D01*
X138027500Y-110983000D01*
X138237951Y-110957742D01*
X138439430Y-110891912D01*
X138624195Y-110788040D01*
X138785146Y-110650118D01*
X138916097Y-110483447D01*
X139012016Y-110294431D01*
X139068351Y-110093784D01*
X138978478Y-109925000D01*
X137373500Y-109925000D01*
X137327500Y-109925000D01*
X135722522Y-109925000D01*
X135632649Y-110093784D01*
X133359471Y-110093784D01*
X133377500Y-110003151D01*
X133377500Y-109800849D01*
X133359472Y-109710216D01*
X135632649Y-109710216D01*
X135722522Y-109879000D01*
X137327500Y-109879000D01*
X137327500Y-108821000D01*
X137373500Y-108821000D01*
X137373500Y-109879000D01*
X138978478Y-109879000D01*
X139020091Y-109800849D01*
X141323500Y-109800849D01*
X141323500Y-110003151D01*
X141362967Y-110201565D01*
X141440385Y-110388467D01*
X141552777Y-110556674D01*
X141695826Y-110699723D01*
X141864033Y-110812115D01*
X142050935Y-110889533D01*
X142249349Y-110929000D01*
X142451651Y-110929000D01*
X142650065Y-110889533D01*
X142836967Y-110812115D01*
X143005174Y-110699723D01*
X143148223Y-110556674D01*
X143260615Y-110388467D01*
X143338033Y-110201565D01*
X143377500Y-110003151D01*
X143377500Y-109800849D01*
X143338033Y-109602435D01*
X143260615Y-109415533D01*
X143148223Y-109247326D01*
X143034001Y-109133104D01*
X143697500Y-109133104D01*
X143697500Y-109433896D01*
X143756181Y-109728910D01*
X143871290Y-110006806D01*
X144038401Y-110256906D01*
X144251094Y-110469599D01*
X144501194Y-110636710D01*
X144779090Y-110751819D01*
X145074104Y-110810500D01*
X145374896Y-110810500D01*
X145669910Y-110751819D01*
X145947806Y-110636710D01*
X146197906Y-110469599D01*
X146410599Y-110256906D01*
X146577710Y-110006806D01*
X146692819Y-109728910D01*
X146751500Y-109433896D01*
X146751500Y-109133104D01*
X146692819Y-108838090D01*
X146577710Y-108560194D01*
X146410599Y-108310094D01*
X146197906Y-108097401D01*
X145947806Y-107930290D01*
X145669910Y-107815181D01*
X145374896Y-107756500D01*
X145074104Y-107756500D01*
X144779090Y-107815181D01*
X144501194Y-107930290D01*
X144251094Y-108097401D01*
X144038401Y-108310094D01*
X143871290Y-108560194D01*
X143756181Y-108838090D01*
X143697500Y-109133104D01*
X143034001Y-109133104D01*
X143005174Y-109104277D01*
X142836967Y-108991885D01*
X142650065Y-108914467D01*
X142451651Y-108875000D01*
X142249349Y-108875000D01*
X142050935Y-108914467D01*
X141864033Y-108991885D01*
X141695826Y-109104277D01*
X141552777Y-109247326D01*
X141440385Y-109415533D01*
X141362967Y-109602435D01*
X141323500Y-109800849D01*
X139020091Y-109800849D01*
X139068351Y-109710216D01*
X139012016Y-109509569D01*
X138916097Y-109320553D01*
X138785146Y-109153882D01*
X138624195Y-109015960D01*
X138439430Y-108912088D01*
X138237951Y-108846258D01*
X138027500Y-108821000D01*
X137373500Y-108821000D01*
X137327500Y-108821000D01*
X136673500Y-108821000D01*
X136463049Y-108846258D01*
X136261570Y-108912088D01*
X136076805Y-109015960D01*
X135915854Y-109153882D01*
X135784903Y-109320553D01*
X135688984Y-109509569D01*
X135632649Y-109710216D01*
X133359472Y-109710216D01*
X133338033Y-109602435D01*
X133260615Y-109415533D01*
X133148223Y-109247326D01*
X133005174Y-109104277D01*
X132836967Y-108991885D01*
X132650065Y-108914467D01*
X132451651Y-108875000D01*
X132249349Y-108875000D01*
X132050935Y-108914467D01*
X131864033Y-108991885D01*
X131695826Y-109104277D01*
X131552777Y-109247326D01*
X131440385Y-109415533D01*
X131362967Y-109602435D01*
X131323500Y-109800849D01*
X130915020Y-109800849D01*
X130944819Y-109728910D01*
X131003500Y-109433896D01*
X131003500Y-109133104D01*
X130944819Y-108838090D01*
X130829710Y-108560194D01*
X130662599Y-108310094D01*
X130449906Y-108097401D01*
X130199806Y-107930290D01*
X129921910Y-107815181D01*
X129626896Y-107756500D01*
X129326104Y-107756500D01*
X129031090Y-107815181D01*
X128753194Y-107930290D01*
X128503094Y-108097401D01*
X128290401Y-108310094D01*
X128123290Y-108560194D01*
X128008181Y-108838090D01*
X127949500Y-109133104D01*
X127452000Y-109133104D01*
X127452000Y-104194901D01*
X131269500Y-104194901D01*
X131269500Y-105609100D01*
X131285142Y-105767913D01*
X131346955Y-105971682D01*
X131447334Y-106159477D01*
X131582420Y-106324081D01*
X131747024Y-106459167D01*
X131934819Y-106559546D01*
X132138588Y-106621358D01*
X132350500Y-106642230D01*
X132562413Y-106621358D01*
X132766182Y-106559546D01*
X132953977Y-106459167D01*
X133118581Y-106324081D01*
X133253667Y-106159477D01*
X133354046Y-105971682D01*
X133415858Y-105767913D01*
X133431500Y-105609100D01*
X133431500Y-104800849D01*
X136323500Y-104800849D01*
X136323500Y-105003151D01*
X136362967Y-105201565D01*
X136440385Y-105388467D01*
X136552777Y-105556674D01*
X136695826Y-105699723D01*
X136864033Y-105812115D01*
X137050935Y-105889533D01*
X137249349Y-105929000D01*
X137451651Y-105929000D01*
X137650065Y-105889533D01*
X137836967Y-105812115D01*
X138005174Y-105699723D01*
X138148223Y-105556674D01*
X138260615Y-105388467D01*
X138338033Y-105201565D01*
X138377500Y-105003151D01*
X138377500Y-104800849D01*
X138338033Y-104602435D01*
X138260615Y-104415533D01*
X138148223Y-104247326D01*
X138095798Y-104194901D01*
X141269500Y-104194901D01*
X141269500Y-105609100D01*
X141285142Y-105767913D01*
X141346955Y-105971682D01*
X141447334Y-106159477D01*
X141582420Y-106324081D01*
X141747024Y-106459167D01*
X141934819Y-106559546D01*
X142138588Y-106621358D01*
X142350500Y-106642230D01*
X142562413Y-106621358D01*
X142766182Y-106559546D01*
X142953977Y-106459167D01*
X143118581Y-106324081D01*
X143253667Y-106159477D01*
X143354046Y-105971682D01*
X143415858Y-105767913D01*
X143431500Y-105609100D01*
X143431500Y-105579000D01*
X152684255Y-105579000D01*
X152717500Y-105582274D01*
X152750745Y-105579000D01*
X152750752Y-105579000D01*
X152850215Y-105569204D01*
X152977830Y-105530492D01*
X153095441Y-105467628D01*
X153198527Y-105383027D01*
X153219726Y-105357196D01*
X158511583Y-100065340D01*
X158610227Y-100045718D01*
X158760731Y-99983377D01*
X158896181Y-99892872D01*
X159011372Y-99777681D01*
X159101877Y-99642231D01*
X159164218Y-99491727D01*
X159196000Y-99331952D01*
X159196000Y-99169048D01*
X159164218Y-99009273D01*
X159101877Y-98858769D01*
X159011372Y-98723319D01*
X158896181Y-98608128D01*
X158760731Y-98517623D01*
X158610227Y-98455282D01*
X158450452Y-98423500D01*
X158287548Y-98423500D01*
X158127773Y-98455282D01*
X157977269Y-98517623D01*
X157841819Y-98608128D01*
X157726628Y-98723319D01*
X157636123Y-98858769D01*
X157573782Y-99009273D01*
X157554160Y-99107917D01*
X152437078Y-104225000D01*
X143431500Y-104225000D01*
X143431500Y-104194900D01*
X143415858Y-104036087D01*
X143354046Y-103832318D01*
X143253667Y-103644523D01*
X143118581Y-103479919D01*
X142953977Y-103344833D01*
X142766181Y-103244454D01*
X142562412Y-103182642D01*
X142350500Y-103161770D01*
X142138587Y-103182642D01*
X141934818Y-103244454D01*
X141747023Y-103344833D01*
X141582419Y-103479919D01*
X141447333Y-103644523D01*
X141346954Y-103832319D01*
X141285142Y-104036088D01*
X141269500Y-104194901D01*
X138095798Y-104194901D01*
X138005174Y-104104277D01*
X137836967Y-103991885D01*
X137650065Y-103914467D01*
X137451651Y-103875000D01*
X137249349Y-103875000D01*
X137050935Y-103914467D01*
X136864033Y-103991885D01*
X136695826Y-104104277D01*
X136552777Y-104247326D01*
X136440385Y-104415533D01*
X136362967Y-104602435D01*
X136323500Y-104800849D01*
X133431500Y-104800849D01*
X133431500Y-104194900D01*
X133415858Y-104036087D01*
X133354046Y-103832318D01*
X133253667Y-103644523D01*
X133118581Y-103479919D01*
X132953977Y-103344833D01*
X132766181Y-103244454D01*
X132562412Y-103182642D01*
X132350500Y-103161770D01*
X132138587Y-103182642D01*
X131934818Y-103244454D01*
X131747023Y-103344833D01*
X131582419Y-103479919D01*
X131447333Y-103644523D01*
X131346954Y-103832319D01*
X131285142Y-104036088D01*
X131269500Y-104194901D01*
X127452000Y-104194901D01*
X127452000Y-101977723D01*
X129628875Y-99800849D01*
X131323500Y-99800849D01*
X131323500Y-100003151D01*
X131362967Y-100201565D01*
X131440385Y-100388467D01*
X131552777Y-100556674D01*
X131695826Y-100699723D01*
X131864033Y-100812115D01*
X132050935Y-100889533D01*
X132249349Y-100929000D01*
X132451651Y-100929000D01*
X132650065Y-100889533D01*
X132836967Y-100812115D01*
X133005174Y-100699723D01*
X133023157Y-100681740D01*
X134103287Y-100681740D01*
X134171706Y-100875410D01*
X134374651Y-100989133D01*
X134595883Y-101061077D01*
X134826900Y-101088479D01*
X135058824Y-101070285D01*
X135282743Y-101007195D01*
X135490051Y-100901633D01*
X135529294Y-100875410D01*
X135597713Y-100681740D01*
X134850500Y-99934527D01*
X134103287Y-100681740D01*
X133023157Y-100681740D01*
X133148223Y-100556674D01*
X133260615Y-100388467D01*
X133338033Y-100201565D01*
X133377500Y-100003151D01*
X133377500Y-99878400D01*
X133664021Y-99878400D01*
X133682215Y-100110324D01*
X133745305Y-100334243D01*
X133850867Y-100541551D01*
X133877090Y-100580794D01*
X134070760Y-100649213D01*
X134817973Y-99902000D01*
X134883027Y-99902000D01*
X135630240Y-100649213D01*
X135823910Y-100580794D01*
X135937633Y-100377849D01*
X136009577Y-100156617D01*
X136036979Y-99925600D01*
X136026003Y-99785682D01*
X136169500Y-99785682D01*
X136169500Y-100018318D01*
X136214886Y-100246485D01*
X136303912Y-100461413D01*
X136433158Y-100654843D01*
X136597657Y-100819342D01*
X136791087Y-100948588D01*
X137006015Y-101037614D01*
X137234182Y-101083000D01*
X137466818Y-101083000D01*
X137694985Y-101037614D01*
X137909913Y-100948588D01*
X138103343Y-100819342D01*
X138267842Y-100654843D01*
X138397088Y-100461413D01*
X138486114Y-100246485D01*
X138531500Y-100018318D01*
X138531500Y-99785682D01*
X138669500Y-99785682D01*
X138669500Y-100018318D01*
X138714886Y-100246485D01*
X138803912Y-100461413D01*
X138933158Y-100654843D01*
X139097657Y-100819342D01*
X139291087Y-100948588D01*
X139506015Y-101037614D01*
X139734182Y-101083000D01*
X139966818Y-101083000D01*
X140194985Y-101037614D01*
X140409913Y-100948588D01*
X140603343Y-100819342D01*
X140767842Y-100654843D01*
X140897088Y-100461413D01*
X140986114Y-100246485D01*
X141031500Y-100018318D01*
X141031500Y-99800849D01*
X141323500Y-99800849D01*
X141323500Y-100003151D01*
X141362967Y-100201565D01*
X141440385Y-100388467D01*
X141552777Y-100556674D01*
X141695826Y-100699723D01*
X141864033Y-100812115D01*
X142050935Y-100889533D01*
X142249349Y-100929000D01*
X142451651Y-100929000D01*
X142650065Y-100889533D01*
X142836967Y-100812115D01*
X143005174Y-100699723D01*
X143148223Y-100556674D01*
X143260615Y-100388467D01*
X143338033Y-100201565D01*
X143377500Y-100003151D01*
X143377500Y-99800849D01*
X143338033Y-99602435D01*
X143260615Y-99415533D01*
X143148223Y-99247326D01*
X143005174Y-99104277D01*
X142836967Y-98991885D01*
X142650065Y-98914467D01*
X142451651Y-98875000D01*
X142249349Y-98875000D01*
X142050935Y-98914467D01*
X141864033Y-98991885D01*
X141695826Y-99104277D01*
X141552777Y-99247326D01*
X141440385Y-99415533D01*
X141362967Y-99602435D01*
X141323500Y-99800849D01*
X141031500Y-99800849D01*
X141031500Y-99785682D01*
X140986114Y-99557515D01*
X140897088Y-99342587D01*
X140767842Y-99149157D01*
X140603343Y-98984658D01*
X140409913Y-98855412D01*
X140194985Y-98766386D01*
X139966818Y-98721000D01*
X139734182Y-98721000D01*
X139506015Y-98766386D01*
X139291087Y-98855412D01*
X139097657Y-98984658D01*
X138933158Y-99149157D01*
X138803912Y-99342587D01*
X138714886Y-99557515D01*
X138669500Y-99785682D01*
X138531500Y-99785682D01*
X138486114Y-99557515D01*
X138397088Y-99342587D01*
X138267842Y-99149157D01*
X138103343Y-98984658D01*
X137909913Y-98855412D01*
X137694985Y-98766386D01*
X137466818Y-98721000D01*
X137234182Y-98721000D01*
X137006015Y-98766386D01*
X136791087Y-98855412D01*
X136597657Y-98984658D01*
X136433158Y-99149157D01*
X136303912Y-99342587D01*
X136214886Y-99557515D01*
X136169500Y-99785682D01*
X136026003Y-99785682D01*
X136018785Y-99693676D01*
X135955695Y-99469757D01*
X135850133Y-99262449D01*
X135823910Y-99223206D01*
X135630240Y-99154787D01*
X134883027Y-99902000D01*
X134817973Y-99902000D01*
X134070760Y-99154787D01*
X133877090Y-99223206D01*
X133763367Y-99426151D01*
X133691423Y-99647383D01*
X133664021Y-99878400D01*
X133377500Y-99878400D01*
X133377500Y-99800849D01*
X133338033Y-99602435D01*
X133260615Y-99415533D01*
X133148223Y-99247326D01*
X133023157Y-99122260D01*
X134103287Y-99122260D01*
X134850500Y-99869473D01*
X135597713Y-99122260D01*
X135529294Y-98928590D01*
X135326349Y-98814867D01*
X135105117Y-98742923D01*
X134874100Y-98715521D01*
X134642176Y-98733715D01*
X134418257Y-98796805D01*
X134210949Y-98902367D01*
X134171706Y-98928590D01*
X134103287Y-99122260D01*
X133023157Y-99122260D01*
X133005174Y-99104277D01*
X132836967Y-98991885D01*
X132650065Y-98914467D01*
X132451651Y-98875000D01*
X132249349Y-98875000D01*
X132050935Y-98914467D01*
X131864033Y-98991885D01*
X131695826Y-99104277D01*
X131552777Y-99247326D01*
X131440385Y-99415533D01*
X131362967Y-99602435D01*
X131323500Y-99800849D01*
X129628875Y-99800849D01*
X131505225Y-97924500D01*
X144444175Y-97924500D01*
X144388605Y-97970105D01*
%TD*%
M02*
