%TF.GenerationSoftware,KiCad,Pcbnew,(5.1.6)-1*%
%TF.CreationDate,2024-02-11T14:18:57-05:00*%
%TF.ProjectId,GB-DMG-Headphone-PCB,47422d44-4d47-42d4-9865-616470686f6e,rev?*%
%TF.SameCoordinates,Original*%
%TF.FileFunction,Copper,L1,Top*%
%TF.FilePolarity,Positive*%
%FSLAX46Y46*%
G04 Gerber Fmt 4.6, Leading zero omitted, Abs format (unit mm)*
G04 Created by KiCad (PCBNEW (5.1.6)-1) date 2024-02-11 14:18:57*
%MOMM*%
%LPD*%
G01*
G04 APERTURE LIST*
%TA.AperFunction,SMDPad,CuDef*%
%ADD10R,2.900000X1.800000*%
%TD*%
%TA.AperFunction,ComponentPad*%
%ADD11R,1.700000X1.700000*%
%TD*%
%TA.AperFunction,ComponentPad*%
%ADD12O,1.700000X1.700000*%
%TD*%
%TA.AperFunction,ComponentPad*%
%ADD13O,2.616000X1.308000*%
%TD*%
%TA.AperFunction,ComponentPad*%
%ADD14C,1.508000*%
%TD*%
%TA.AperFunction,ComponentPad*%
%ADD15O,1.308000X2.616000*%
%TD*%
%TA.AperFunction,ViaPad*%
%ADD16C,0.800000*%
%TD*%
%TA.AperFunction,Conductor*%
%ADD17C,0.500000*%
%TD*%
%TA.AperFunction,Conductor*%
%ADD18C,0.250000*%
%TD*%
%TA.AperFunction,Conductor*%
%ADD19C,0.254000*%
%TD*%
G04 APERTURE END LIST*
D10*
%TO.P,C1,2*%
%TO.N,LEFT*%
X158369000Y-101346000D03*
%TO.P,C1,1*%
%TO.N,Net-(C1-Pad1)*%
X162369000Y-101346000D03*
%TD*%
%TO.P,C2,1*%
%TO.N,Net-(C2-Pad1)*%
X162369500Y-109791500D03*
%TO.P,C2,2*%
%TO.N,RIGHT*%
X158369500Y-109791500D03*
%TD*%
D11*
%TO.P,J1,1*%
%TO.N,DETECT*%
X145542000Y-99123500D03*
D12*
%TO.P,J1,2*%
%TO.N,Net-(J1-Pad2)*%
X148082000Y-99123500D03*
%TO.P,J1,3*%
%TO.N,Net-(J1-Pad3)*%
X150622000Y-99123500D03*
%TO.P,J1,4*%
%TO.N,Net-(J1-Pad4)*%
X153162000Y-99123500D03*
%TD*%
D13*
%TO.P,J2,1*%
%TO.N,GND*%
X137350500Y-109902000D03*
D14*
%TO.P,J2,4*%
X134850500Y-99902000D03*
%TO.P,J2,5*%
%TO.N,DETECT*%
X137350500Y-99902000D03*
%TO.P,J2,6*%
%TO.N,N/C*%
X139850500Y-99902000D03*
D15*
%TO.P,J2,2*%
%TO.N,LEFT*%
X142350500Y-104902000D03*
%TO.P,J2,3*%
%TO.N,RIGHT*%
X132350500Y-104902000D03*
%TD*%
%TO.P,L1,2*%
%TO.N,Net-(C1-Pad1)*%
%TA.AperFunction,SMDPad,CuDef*%
G36*
G01*
X152711999Y-103311000D02*
X153612001Y-103311000D01*
G75*
G02*
X153862000Y-103560999I0J-249999D01*
G01*
X153862000Y-104211001D01*
G75*
G02*
X153612001Y-104461000I-249999J0D01*
G01*
X152711999Y-104461000D01*
G75*
G02*
X152462000Y-104211001I0J249999D01*
G01*
X152462000Y-103560999D01*
G75*
G02*
X152711999Y-103311000I249999J0D01*
G01*
G37*
%TD.AperFunction*%
%TO.P,L1,1*%
%TO.N,Net-(J1-Pad4)*%
%TA.AperFunction,SMDPad,CuDef*%
G36*
G01*
X152711999Y-101261000D02*
X153612001Y-101261000D01*
G75*
G02*
X153862000Y-101510999I0J-249999D01*
G01*
X153862000Y-102161001D01*
G75*
G02*
X153612001Y-102411000I-249999J0D01*
G01*
X152711999Y-102411000D01*
G75*
G02*
X152462000Y-102161001I0J249999D01*
G01*
X152462000Y-101510999D01*
G75*
G02*
X152711999Y-101261000I249999J0D01*
G01*
G37*
%TD.AperFunction*%
%TD*%
%TO.P,L2,1*%
%TO.N,Net-(J1-Pad3)*%
%TA.AperFunction,SMDPad,CuDef*%
G36*
G01*
X150171999Y-101261000D02*
X151072001Y-101261000D01*
G75*
G02*
X151322000Y-101510999I0J-249999D01*
G01*
X151322000Y-102161001D01*
G75*
G02*
X151072001Y-102411000I-249999J0D01*
G01*
X150171999Y-102411000D01*
G75*
G02*
X149922000Y-102161001I0J249999D01*
G01*
X149922000Y-101510999D01*
G75*
G02*
X150171999Y-101261000I249999J0D01*
G01*
G37*
%TD.AperFunction*%
%TO.P,L2,2*%
%TO.N,Net-(C2-Pad1)*%
%TA.AperFunction,SMDPad,CuDef*%
G36*
G01*
X150171999Y-103311000D02*
X151072001Y-103311000D01*
G75*
G02*
X151322000Y-103560999I0J-249999D01*
G01*
X151322000Y-104211001D01*
G75*
G02*
X151072001Y-104461000I-249999J0D01*
G01*
X150171999Y-104461000D01*
G75*
G02*
X149922000Y-104211001I0J249999D01*
G01*
X149922000Y-103560999D01*
G75*
G02*
X150171999Y-103311000I249999J0D01*
G01*
G37*
%TD.AperFunction*%
%TD*%
%TO.P,L3,1*%
%TO.N,Net-(J1-Pad2)*%
%TA.AperFunction,SMDPad,CuDef*%
G36*
G01*
X147631999Y-101261000D02*
X148532001Y-101261000D01*
G75*
G02*
X148782000Y-101510999I0J-249999D01*
G01*
X148782000Y-102161001D01*
G75*
G02*
X148532001Y-102411000I-249999J0D01*
G01*
X147631999Y-102411000D01*
G75*
G02*
X147382000Y-102161001I0J249999D01*
G01*
X147382000Y-101510999D01*
G75*
G02*
X147631999Y-101261000I249999J0D01*
G01*
G37*
%TD.AperFunction*%
%TO.P,L3,2*%
%TO.N,GND*%
%TA.AperFunction,SMDPad,CuDef*%
G36*
G01*
X147631999Y-103311000D02*
X148532001Y-103311000D01*
G75*
G02*
X148782000Y-103560999I0J-249999D01*
G01*
X148782000Y-104211001D01*
G75*
G02*
X148532001Y-104461000I-249999J0D01*
G01*
X147631999Y-104461000D01*
G75*
G02*
X147382000Y-104211001I0J249999D01*
G01*
X147382000Y-103560999D01*
G75*
G02*
X147631999Y-103311000I249999J0D01*
G01*
G37*
%TD.AperFunction*%
%TD*%
D16*
%TO.N,LEFT*%
X158369000Y-99250500D03*
%TD*%
D17*
%TO.N,LEFT*%
X158369000Y-99250500D02*
X158369000Y-101346000D01*
%TO.N,Net-(C1-Pad1)*%
X159829000Y-103886000D02*
X162369000Y-101346000D01*
X153162000Y-103886000D02*
X159829000Y-103886000D01*
%TO.N,Net-(C2-Pad1)*%
X152146000Y-105410000D02*
X150622000Y-103886000D01*
X162369500Y-109791500D02*
X157988000Y-105410000D01*
X157988000Y-105410000D02*
X152146000Y-105410000D01*
%TO.N,RIGHT*%
X158369500Y-111191500D02*
X155832500Y-113728500D01*
X158369500Y-109791500D02*
X158369500Y-111191500D01*
X155832500Y-113728500D02*
X136779000Y-113728500D01*
X136779000Y-113728500D02*
X134366000Y-111315500D01*
X134366000Y-106917500D02*
X132350500Y-104902000D01*
X134366000Y-111315500D02*
X134366000Y-106917500D01*
D18*
%TO.N,DETECT*%
X145542000Y-98869500D02*
X145161000Y-98488500D01*
D17*
X139081500Y-98171000D02*
X137350500Y-99902000D01*
X143192500Y-98171000D02*
X139081500Y-98171000D01*
X145542000Y-99123500D02*
X144145000Y-99123500D01*
X144145000Y-99123500D02*
X143192500Y-98171000D01*
%TO.N,Net-(J1-Pad2)*%
X148082000Y-99123500D02*
X148082000Y-101836000D01*
%TO.N,Net-(J1-Pad3)*%
X150622000Y-99123500D02*
X150622000Y-101836000D01*
%TO.N,Net-(J1-Pad4)*%
X153162000Y-99123500D02*
X153162000Y-101836000D01*
%TD*%
D19*
%TO.N,GND*%
G36*
X137556282Y-98738796D02*
G01*
X137466818Y-98721000D01*
X137234182Y-98721000D01*
X137006015Y-98766386D01*
X136791087Y-98855412D01*
X136597657Y-98984658D01*
X136433158Y-99149157D01*
X136303912Y-99342587D01*
X136214886Y-99557515D01*
X136169500Y-99785682D01*
X136169500Y-100018318D01*
X136214886Y-100246485D01*
X136303912Y-100461413D01*
X136433158Y-100654843D01*
X136597657Y-100819342D01*
X136791087Y-100948588D01*
X137006015Y-101037614D01*
X137234182Y-101083000D01*
X137466818Y-101083000D01*
X137694985Y-101037614D01*
X137909913Y-100948588D01*
X138103343Y-100819342D01*
X138267842Y-100654843D01*
X138397088Y-100461413D01*
X138486114Y-100246485D01*
X138531500Y-100018318D01*
X138531500Y-99785682D01*
X138513704Y-99696218D01*
X138759065Y-99450858D01*
X138714886Y-99557515D01*
X138669500Y-99785682D01*
X138669500Y-100018318D01*
X138714886Y-100246485D01*
X138803912Y-100461413D01*
X138933158Y-100654843D01*
X139097657Y-100819342D01*
X139291087Y-100948588D01*
X139506015Y-101037614D01*
X139734182Y-101083000D01*
X139966818Y-101083000D01*
X140194985Y-101037614D01*
X140409913Y-100948588D01*
X140603343Y-100819342D01*
X140767842Y-100654843D01*
X140897088Y-100461413D01*
X140986114Y-100246485D01*
X141031500Y-100018318D01*
X141031500Y-99800849D01*
X141323500Y-99800849D01*
X141323500Y-100003151D01*
X141362967Y-100201565D01*
X141440385Y-100388467D01*
X141552777Y-100556674D01*
X141695826Y-100699723D01*
X141864033Y-100812115D01*
X142050935Y-100889533D01*
X142249349Y-100929000D01*
X142451651Y-100929000D01*
X142650065Y-100889533D01*
X142836967Y-100812115D01*
X143005174Y-100699723D01*
X143148223Y-100556674D01*
X143260615Y-100388467D01*
X143338033Y-100201565D01*
X143377500Y-100003151D01*
X143377500Y-99800849D01*
X143338033Y-99602435D01*
X143260615Y-99415533D01*
X143148223Y-99247326D01*
X143005174Y-99104277D01*
X142836967Y-98991885D01*
X142650065Y-98914467D01*
X142451651Y-98875000D01*
X142249349Y-98875000D01*
X142050935Y-98914467D01*
X141864033Y-98991885D01*
X141695826Y-99104277D01*
X141552777Y-99247326D01*
X141440385Y-99415533D01*
X141362967Y-99602435D01*
X141323500Y-99800849D01*
X141031500Y-99800849D01*
X141031500Y-99785682D01*
X140986114Y-99557515D01*
X140897088Y-99342587D01*
X140767842Y-99149157D01*
X140603343Y-98984658D01*
X140409913Y-98855412D01*
X140392019Y-98848000D01*
X142912078Y-98848000D01*
X143642774Y-99578696D01*
X143663973Y-99604527D01*
X143767059Y-99689128D01*
X143884670Y-99751992D01*
X144012285Y-99790704D01*
X144111748Y-99800500D01*
X144111757Y-99800500D01*
X144144999Y-99803774D01*
X144178241Y-99800500D01*
X144262934Y-99800500D01*
X144262934Y-99973500D01*
X144271178Y-100057207D01*
X144295595Y-100137696D01*
X144335245Y-100211876D01*
X144388605Y-100276895D01*
X144453624Y-100330255D01*
X144527804Y-100369905D01*
X144608293Y-100394322D01*
X144692000Y-100402566D01*
X146392000Y-100402566D01*
X146475707Y-100394322D01*
X146556196Y-100369905D01*
X146630376Y-100330255D01*
X146695395Y-100276895D01*
X146748755Y-100211876D01*
X146788405Y-100137696D01*
X146812822Y-100057207D01*
X146821066Y-99973500D01*
X146821066Y-99330044D01*
X146854074Y-99495987D01*
X146950337Y-99728386D01*
X147090089Y-99937540D01*
X147267960Y-100115411D01*
X147405000Y-100206978D01*
X147405001Y-100873654D01*
X147372132Y-100883625D01*
X147254731Y-100946377D01*
X147151828Y-101030828D01*
X147067377Y-101133731D01*
X147004625Y-101251132D01*
X146965982Y-101378520D01*
X146952934Y-101510999D01*
X146952934Y-102161001D01*
X146965982Y-102293480D01*
X147004625Y-102420868D01*
X147067377Y-102538269D01*
X147151828Y-102641172D01*
X147254731Y-102725623D01*
X147372132Y-102788375D01*
X147499520Y-102827018D01*
X147631999Y-102840066D01*
X148532001Y-102840066D01*
X148664480Y-102827018D01*
X148791868Y-102788375D01*
X148909269Y-102725623D01*
X149012172Y-102641172D01*
X149096623Y-102538269D01*
X149159375Y-102420868D01*
X149198018Y-102293480D01*
X149211066Y-102161001D01*
X149211066Y-101510999D01*
X149198018Y-101378520D01*
X149159375Y-101251132D01*
X149096623Y-101133731D01*
X149012172Y-101030828D01*
X148909269Y-100946377D01*
X148791868Y-100883625D01*
X148759000Y-100873655D01*
X148759000Y-100206978D01*
X148896040Y-100115411D01*
X149073911Y-99937540D01*
X149213663Y-99728386D01*
X149309926Y-99495987D01*
X149352000Y-99284466D01*
X149394074Y-99495987D01*
X149490337Y-99728386D01*
X149630089Y-99937540D01*
X149807960Y-100115411D01*
X149945000Y-100206978D01*
X149945001Y-100873654D01*
X149912132Y-100883625D01*
X149794731Y-100946377D01*
X149691828Y-101030828D01*
X149607377Y-101133731D01*
X149544625Y-101251132D01*
X149505982Y-101378520D01*
X149492934Y-101510999D01*
X149492934Y-102161001D01*
X149505982Y-102293480D01*
X149544625Y-102420868D01*
X149607377Y-102538269D01*
X149691828Y-102641172D01*
X149794731Y-102725623D01*
X149912132Y-102788375D01*
X150039520Y-102827018D01*
X150171999Y-102840066D01*
X151072001Y-102840066D01*
X151204480Y-102827018D01*
X151331868Y-102788375D01*
X151449269Y-102725623D01*
X151552172Y-102641172D01*
X151636623Y-102538269D01*
X151699375Y-102420868D01*
X151738018Y-102293480D01*
X151751066Y-102161001D01*
X151751066Y-101510999D01*
X151738018Y-101378520D01*
X151699375Y-101251132D01*
X151636623Y-101133731D01*
X151552172Y-101030828D01*
X151449269Y-100946377D01*
X151331868Y-100883625D01*
X151299000Y-100873655D01*
X151299000Y-100206978D01*
X151436040Y-100115411D01*
X151613911Y-99937540D01*
X151753663Y-99728386D01*
X151849926Y-99495987D01*
X151892000Y-99284466D01*
X151934074Y-99495987D01*
X152030337Y-99728386D01*
X152170089Y-99937540D01*
X152347960Y-100115411D01*
X152485000Y-100206978D01*
X152485001Y-100873654D01*
X152452132Y-100883625D01*
X152334731Y-100946377D01*
X152231828Y-101030828D01*
X152147377Y-101133731D01*
X152084625Y-101251132D01*
X152045982Y-101378520D01*
X152032934Y-101510999D01*
X152032934Y-102161001D01*
X152045982Y-102293480D01*
X152084625Y-102420868D01*
X152147377Y-102538269D01*
X152231828Y-102641172D01*
X152334731Y-102725623D01*
X152452132Y-102788375D01*
X152579520Y-102827018D01*
X152711999Y-102840066D01*
X153612001Y-102840066D01*
X153744480Y-102827018D01*
X153871868Y-102788375D01*
X153989269Y-102725623D01*
X154092172Y-102641172D01*
X154176623Y-102538269D01*
X154239375Y-102420868D01*
X154278018Y-102293480D01*
X154291066Y-102161001D01*
X154291066Y-101510999D01*
X154278018Y-101378520D01*
X154239375Y-101251132D01*
X154176623Y-101133731D01*
X154092172Y-101030828D01*
X153989269Y-100946377D01*
X153871868Y-100883625D01*
X153839000Y-100873655D01*
X153839000Y-100446000D01*
X156489934Y-100446000D01*
X156489934Y-102246000D01*
X156498178Y-102329707D01*
X156522595Y-102410196D01*
X156562245Y-102484376D01*
X156615605Y-102549395D01*
X156680624Y-102602755D01*
X156754804Y-102642405D01*
X156835293Y-102666822D01*
X156919000Y-102675066D01*
X159819000Y-102675066D01*
X159902707Y-102666822D01*
X159983196Y-102642405D01*
X160057376Y-102602755D01*
X160122395Y-102549395D01*
X160175755Y-102484376D01*
X160215405Y-102410196D01*
X160239822Y-102329707D01*
X160248066Y-102246000D01*
X160248066Y-100446000D01*
X160239822Y-100362293D01*
X160215405Y-100281804D01*
X160175755Y-100207624D01*
X160122395Y-100142605D01*
X160057376Y-100089245D01*
X159983196Y-100049595D01*
X159902707Y-100025178D01*
X159819000Y-100016934D01*
X159046000Y-100016934D01*
X159046000Y-99725857D01*
X159101877Y-99642231D01*
X159164218Y-99491727D01*
X159196000Y-99331952D01*
X159196000Y-99169048D01*
X159164218Y-99009273D01*
X159101877Y-98858769D01*
X159011372Y-98723319D01*
X158896181Y-98608128D01*
X158760731Y-98517623D01*
X158610227Y-98455282D01*
X158450452Y-98423500D01*
X158287548Y-98423500D01*
X158127773Y-98455282D01*
X157977269Y-98517623D01*
X157841819Y-98608128D01*
X157726628Y-98723319D01*
X157636123Y-98858769D01*
X157573782Y-99009273D01*
X157542000Y-99169048D01*
X157542000Y-99331952D01*
X157573782Y-99491727D01*
X157636123Y-99642231D01*
X157692000Y-99725857D01*
X157692000Y-100016934D01*
X156919000Y-100016934D01*
X156835293Y-100025178D01*
X156754804Y-100049595D01*
X156680624Y-100089245D01*
X156615605Y-100142605D01*
X156562245Y-100207624D01*
X156522595Y-100281804D01*
X156498178Y-100362293D01*
X156489934Y-100446000D01*
X153839000Y-100446000D01*
X153839000Y-100206978D01*
X153976040Y-100115411D01*
X154153911Y-99937540D01*
X154293663Y-99728386D01*
X154389926Y-99495987D01*
X154439000Y-99249274D01*
X154439000Y-98997726D01*
X154389926Y-98751013D01*
X154293663Y-98518614D01*
X154153911Y-98309460D01*
X153976040Y-98131589D01*
X153766886Y-97991837D01*
X153604320Y-97924500D01*
X164521001Y-97924500D01*
X164521000Y-113848000D01*
X156670422Y-113848000D01*
X158824701Y-111693722D01*
X158850527Y-111672527D01*
X158929886Y-111575829D01*
X158935128Y-111569441D01*
X158997992Y-111451830D01*
X159036704Y-111324215D01*
X159049775Y-111191500D01*
X159046500Y-111158248D01*
X159046500Y-111120566D01*
X159819500Y-111120566D01*
X159903207Y-111112322D01*
X159983696Y-111087905D01*
X160057876Y-111048255D01*
X160122895Y-110994895D01*
X160176255Y-110929876D01*
X160215905Y-110855696D01*
X160240322Y-110775207D01*
X160248566Y-110691500D01*
X160248566Y-108891500D01*
X160240322Y-108807793D01*
X160215905Y-108727304D01*
X160176255Y-108653124D01*
X160122895Y-108588105D01*
X160057876Y-108534745D01*
X159983696Y-108495095D01*
X159903207Y-108470678D01*
X159819500Y-108462434D01*
X156919500Y-108462434D01*
X156835793Y-108470678D01*
X156755304Y-108495095D01*
X156681124Y-108534745D01*
X156616105Y-108588105D01*
X156562745Y-108653124D01*
X156523095Y-108727304D01*
X156498678Y-108807793D01*
X156490434Y-108891500D01*
X156490434Y-110691500D01*
X156498678Y-110775207D01*
X156523095Y-110855696D01*
X156562745Y-110929876D01*
X156616105Y-110994895D01*
X156681124Y-111048255D01*
X156755304Y-111087905D01*
X156835793Y-111112322D01*
X156919500Y-111120566D01*
X157483011Y-111120566D01*
X155552078Y-113051500D01*
X143151680Y-113051500D01*
X143260615Y-112888467D01*
X143338033Y-112701565D01*
X143377500Y-112503151D01*
X143377500Y-112300849D01*
X143338033Y-112102435D01*
X143260615Y-111915533D01*
X143148223Y-111747326D01*
X143005174Y-111604277D01*
X142836967Y-111491885D01*
X142650065Y-111414467D01*
X142451651Y-111375000D01*
X142249349Y-111375000D01*
X142050935Y-111414467D01*
X141864033Y-111491885D01*
X141695826Y-111604277D01*
X141552777Y-111747326D01*
X141440385Y-111915533D01*
X141362967Y-112102435D01*
X141323500Y-112300849D01*
X141323500Y-112503151D01*
X141362967Y-112701565D01*
X141440385Y-112888467D01*
X141549320Y-113051500D01*
X137059422Y-113051500D01*
X135043000Y-111035078D01*
X135043000Y-110093784D01*
X135632649Y-110093784D01*
X135688984Y-110294431D01*
X135784903Y-110483447D01*
X135915854Y-110650118D01*
X136076805Y-110788040D01*
X136261570Y-110891912D01*
X136463049Y-110957742D01*
X136673500Y-110983000D01*
X137327500Y-110983000D01*
X137327500Y-109925000D01*
X137373500Y-109925000D01*
X137373500Y-110983000D01*
X138027500Y-110983000D01*
X138237951Y-110957742D01*
X138439430Y-110891912D01*
X138624195Y-110788040D01*
X138785146Y-110650118D01*
X138916097Y-110483447D01*
X139012016Y-110294431D01*
X139068351Y-110093784D01*
X138978478Y-109925000D01*
X137373500Y-109925000D01*
X137327500Y-109925000D01*
X135722522Y-109925000D01*
X135632649Y-110093784D01*
X135043000Y-110093784D01*
X135043000Y-109710216D01*
X135632649Y-109710216D01*
X135722522Y-109879000D01*
X137327500Y-109879000D01*
X137327500Y-108821000D01*
X137373500Y-108821000D01*
X137373500Y-109879000D01*
X138978478Y-109879000D01*
X139020091Y-109800849D01*
X141323500Y-109800849D01*
X141323500Y-110003151D01*
X141362967Y-110201565D01*
X141440385Y-110388467D01*
X141552777Y-110556674D01*
X141695826Y-110699723D01*
X141864033Y-110812115D01*
X142050935Y-110889533D01*
X142249349Y-110929000D01*
X142451651Y-110929000D01*
X142650065Y-110889533D01*
X142836967Y-110812115D01*
X143005174Y-110699723D01*
X143148223Y-110556674D01*
X143260615Y-110388467D01*
X143338033Y-110201565D01*
X143377500Y-110003151D01*
X143377500Y-109800849D01*
X143338033Y-109602435D01*
X143260615Y-109415533D01*
X143148223Y-109247326D01*
X143034001Y-109133104D01*
X143697500Y-109133104D01*
X143697500Y-109433896D01*
X143756181Y-109728910D01*
X143871290Y-110006806D01*
X144038401Y-110256906D01*
X144251094Y-110469599D01*
X144501194Y-110636710D01*
X144779090Y-110751819D01*
X145074104Y-110810500D01*
X145374896Y-110810500D01*
X145669910Y-110751819D01*
X145947806Y-110636710D01*
X146197906Y-110469599D01*
X146410599Y-110256906D01*
X146577710Y-110006806D01*
X146692819Y-109728910D01*
X146751500Y-109433896D01*
X146751500Y-109133104D01*
X146692819Y-108838090D01*
X146577710Y-108560194D01*
X146410599Y-108310094D01*
X146197906Y-108097401D01*
X145947806Y-107930290D01*
X145669910Y-107815181D01*
X145374896Y-107756500D01*
X145074104Y-107756500D01*
X144779090Y-107815181D01*
X144501194Y-107930290D01*
X144251094Y-108097401D01*
X144038401Y-108310094D01*
X143871290Y-108560194D01*
X143756181Y-108838090D01*
X143697500Y-109133104D01*
X143034001Y-109133104D01*
X143005174Y-109104277D01*
X142836967Y-108991885D01*
X142650065Y-108914467D01*
X142451651Y-108875000D01*
X142249349Y-108875000D01*
X142050935Y-108914467D01*
X141864033Y-108991885D01*
X141695826Y-109104277D01*
X141552777Y-109247326D01*
X141440385Y-109415533D01*
X141362967Y-109602435D01*
X141323500Y-109800849D01*
X139020091Y-109800849D01*
X139068351Y-109710216D01*
X139012016Y-109509569D01*
X138916097Y-109320553D01*
X138785146Y-109153882D01*
X138624195Y-109015960D01*
X138439430Y-108912088D01*
X138237951Y-108846258D01*
X138027500Y-108821000D01*
X137373500Y-108821000D01*
X137327500Y-108821000D01*
X136673500Y-108821000D01*
X136463049Y-108846258D01*
X136261570Y-108912088D01*
X136076805Y-109015960D01*
X135915854Y-109153882D01*
X135784903Y-109320553D01*
X135688984Y-109509569D01*
X135632649Y-109710216D01*
X135043000Y-109710216D01*
X135043000Y-106950741D01*
X135046274Y-106917499D01*
X135043000Y-106884257D01*
X135043000Y-106884248D01*
X135033204Y-106784785D01*
X134994492Y-106657170D01*
X134931628Y-106539559D01*
X134847027Y-106436473D01*
X134821196Y-106415274D01*
X133431500Y-105025578D01*
X133431500Y-104800849D01*
X136323500Y-104800849D01*
X136323500Y-105003151D01*
X136362967Y-105201565D01*
X136440385Y-105388467D01*
X136552777Y-105556674D01*
X136695826Y-105699723D01*
X136864033Y-105812115D01*
X137050935Y-105889533D01*
X137249349Y-105929000D01*
X137451651Y-105929000D01*
X137650065Y-105889533D01*
X137836967Y-105812115D01*
X138005174Y-105699723D01*
X138148223Y-105556674D01*
X138260615Y-105388467D01*
X138338033Y-105201565D01*
X138377500Y-105003151D01*
X138377500Y-104800849D01*
X138338033Y-104602435D01*
X138260615Y-104415533D01*
X138148223Y-104247326D01*
X138095798Y-104194901D01*
X141269500Y-104194901D01*
X141269500Y-105609100D01*
X141285142Y-105767913D01*
X141346955Y-105971682D01*
X141447334Y-106159477D01*
X141582420Y-106324081D01*
X141747024Y-106459167D01*
X141934819Y-106559546D01*
X142138588Y-106621358D01*
X142350500Y-106642230D01*
X142562413Y-106621358D01*
X142766182Y-106559546D01*
X142953977Y-106459167D01*
X143118581Y-106324081D01*
X143253667Y-106159477D01*
X143354046Y-105971682D01*
X143415858Y-105767913D01*
X143431500Y-105609100D01*
X143431500Y-104461000D01*
X146952934Y-104461000D01*
X146961178Y-104544707D01*
X146985595Y-104625196D01*
X147025245Y-104699376D01*
X147078605Y-104764395D01*
X147143624Y-104817755D01*
X147217804Y-104857405D01*
X147298293Y-104881822D01*
X147382000Y-104890066D01*
X147952250Y-104888000D01*
X148059000Y-104781250D01*
X148059000Y-103909000D01*
X148105000Y-103909000D01*
X148105000Y-104781250D01*
X148211750Y-104888000D01*
X148782000Y-104890066D01*
X148865707Y-104881822D01*
X148946196Y-104857405D01*
X149020376Y-104817755D01*
X149085395Y-104764395D01*
X149138755Y-104699376D01*
X149178405Y-104625196D01*
X149202822Y-104544707D01*
X149211066Y-104461000D01*
X149209000Y-104015750D01*
X149102250Y-103909000D01*
X148105000Y-103909000D01*
X148059000Y-103909000D01*
X147061750Y-103909000D01*
X146955000Y-104015750D01*
X146952934Y-104461000D01*
X143431500Y-104461000D01*
X143431500Y-104194900D01*
X143415858Y-104036087D01*
X143354046Y-103832318D01*
X143253667Y-103644523D01*
X143118581Y-103479919D01*
X142953977Y-103344833D01*
X142890680Y-103311000D01*
X146952934Y-103311000D01*
X146955000Y-103756250D01*
X147061750Y-103863000D01*
X148059000Y-103863000D01*
X148059000Y-102990750D01*
X148105000Y-102990750D01*
X148105000Y-103863000D01*
X149102250Y-103863000D01*
X149209000Y-103756250D01*
X149209905Y-103560999D01*
X149492934Y-103560999D01*
X149492934Y-104211001D01*
X149505982Y-104343480D01*
X149544625Y-104470868D01*
X149607377Y-104588269D01*
X149691828Y-104691172D01*
X149794731Y-104775623D01*
X149912132Y-104838375D01*
X150039520Y-104877018D01*
X150171999Y-104890066D01*
X150668644Y-104890066D01*
X151643774Y-105865196D01*
X151664973Y-105891027D01*
X151768059Y-105975628D01*
X151885670Y-106038492D01*
X152013285Y-106077204D01*
X152112748Y-106087000D01*
X152112757Y-106087000D01*
X152145999Y-106090274D01*
X152179241Y-106087000D01*
X157707578Y-106087000D01*
X160492374Y-108871797D01*
X160490434Y-108891500D01*
X160490434Y-110691500D01*
X160498678Y-110775207D01*
X160523095Y-110855696D01*
X160562745Y-110929876D01*
X160616105Y-110994895D01*
X160681124Y-111048255D01*
X160755304Y-111087905D01*
X160835793Y-111112322D01*
X160919500Y-111120566D01*
X163819500Y-111120566D01*
X163903207Y-111112322D01*
X163983696Y-111087905D01*
X164057876Y-111048255D01*
X164122895Y-110994895D01*
X164176255Y-110929876D01*
X164215905Y-110855696D01*
X164240322Y-110775207D01*
X164248566Y-110691500D01*
X164248566Y-108891500D01*
X164240322Y-108807793D01*
X164215905Y-108727304D01*
X164176255Y-108653124D01*
X164122895Y-108588105D01*
X164057876Y-108534745D01*
X163983696Y-108495095D01*
X163903207Y-108470678D01*
X163819500Y-108462434D01*
X161997857Y-108462434D01*
X158490226Y-104954804D01*
X158469027Y-104928973D01*
X158365941Y-104844372D01*
X158248330Y-104781508D01*
X158120715Y-104742796D01*
X158021252Y-104733000D01*
X158021245Y-104733000D01*
X157988000Y-104729726D01*
X157954755Y-104733000D01*
X154041205Y-104733000D01*
X154092172Y-104691172D01*
X154176623Y-104588269D01*
X154190130Y-104563000D01*
X159795755Y-104563000D01*
X159829000Y-104566274D01*
X159862245Y-104563000D01*
X159862252Y-104563000D01*
X159961715Y-104553204D01*
X160089330Y-104514492D01*
X160206941Y-104451628D01*
X160310027Y-104367027D01*
X160331226Y-104341196D01*
X161997356Y-102675066D01*
X163819000Y-102675066D01*
X163902707Y-102666822D01*
X163983196Y-102642405D01*
X164057376Y-102602755D01*
X164122395Y-102549395D01*
X164175755Y-102484376D01*
X164215405Y-102410196D01*
X164239822Y-102329707D01*
X164248066Y-102246000D01*
X164248066Y-100446000D01*
X164239822Y-100362293D01*
X164215405Y-100281804D01*
X164175755Y-100207624D01*
X164122395Y-100142605D01*
X164057376Y-100089245D01*
X163983196Y-100049595D01*
X163902707Y-100025178D01*
X163819000Y-100016934D01*
X160919000Y-100016934D01*
X160835293Y-100025178D01*
X160754804Y-100049595D01*
X160680624Y-100089245D01*
X160615605Y-100142605D01*
X160562245Y-100207624D01*
X160522595Y-100281804D01*
X160498178Y-100362293D01*
X160489934Y-100446000D01*
X160489934Y-102246000D01*
X160491875Y-102265703D01*
X159548578Y-103209000D01*
X154190130Y-103209000D01*
X154176623Y-103183731D01*
X154092172Y-103080828D01*
X153989269Y-102996377D01*
X153871868Y-102933625D01*
X153744480Y-102894982D01*
X153612001Y-102881934D01*
X152711999Y-102881934D01*
X152579520Y-102894982D01*
X152452132Y-102933625D01*
X152334731Y-102996377D01*
X152231828Y-103080828D01*
X152147377Y-103183731D01*
X152084625Y-103301132D01*
X152045982Y-103428520D01*
X152032934Y-103560999D01*
X152032934Y-104211001D01*
X152045982Y-104343480D01*
X152049936Y-104356514D01*
X151751066Y-104057644D01*
X151751066Y-103560999D01*
X151738018Y-103428520D01*
X151699375Y-103301132D01*
X151636623Y-103183731D01*
X151552172Y-103080828D01*
X151449269Y-102996377D01*
X151331868Y-102933625D01*
X151204480Y-102894982D01*
X151072001Y-102881934D01*
X150171999Y-102881934D01*
X150039520Y-102894982D01*
X149912132Y-102933625D01*
X149794731Y-102996377D01*
X149691828Y-103080828D01*
X149607377Y-103183731D01*
X149544625Y-103301132D01*
X149505982Y-103428520D01*
X149492934Y-103560999D01*
X149209905Y-103560999D01*
X149211066Y-103311000D01*
X149202822Y-103227293D01*
X149178405Y-103146804D01*
X149138755Y-103072624D01*
X149085395Y-103007605D01*
X149020376Y-102954245D01*
X148946196Y-102914595D01*
X148865707Y-102890178D01*
X148782000Y-102881934D01*
X148211750Y-102884000D01*
X148105000Y-102990750D01*
X148059000Y-102990750D01*
X147952250Y-102884000D01*
X147382000Y-102881934D01*
X147298293Y-102890178D01*
X147217804Y-102914595D01*
X147143624Y-102954245D01*
X147078605Y-103007605D01*
X147025245Y-103072624D01*
X146985595Y-103146804D01*
X146961178Y-103227293D01*
X146952934Y-103311000D01*
X142890680Y-103311000D01*
X142766181Y-103244454D01*
X142562412Y-103182642D01*
X142350500Y-103161770D01*
X142138587Y-103182642D01*
X141934818Y-103244454D01*
X141747023Y-103344833D01*
X141582419Y-103479919D01*
X141447333Y-103644523D01*
X141346954Y-103832319D01*
X141285142Y-104036088D01*
X141269500Y-104194901D01*
X138095798Y-104194901D01*
X138005174Y-104104277D01*
X137836967Y-103991885D01*
X137650065Y-103914467D01*
X137451651Y-103875000D01*
X137249349Y-103875000D01*
X137050935Y-103914467D01*
X136864033Y-103991885D01*
X136695826Y-104104277D01*
X136552777Y-104247326D01*
X136440385Y-104415533D01*
X136362967Y-104602435D01*
X136323500Y-104800849D01*
X133431500Y-104800849D01*
X133431500Y-104194900D01*
X133415858Y-104036087D01*
X133354046Y-103832318D01*
X133253667Y-103644523D01*
X133118581Y-103479919D01*
X132953977Y-103344833D01*
X132766181Y-103244454D01*
X132562412Y-103182642D01*
X132350500Y-103161770D01*
X132138587Y-103182642D01*
X131934818Y-103244454D01*
X131747023Y-103344833D01*
X131582419Y-103479919D01*
X131447333Y-103644523D01*
X131346954Y-103832319D01*
X131285142Y-104036088D01*
X131269500Y-104194901D01*
X131269500Y-105609100D01*
X131285142Y-105767913D01*
X131346955Y-105971682D01*
X131447334Y-106159477D01*
X131582420Y-106324081D01*
X131747024Y-106459167D01*
X131934819Y-106559546D01*
X132138588Y-106621358D01*
X132350500Y-106642230D01*
X132562413Y-106621358D01*
X132766182Y-106559546D01*
X132951545Y-106460467D01*
X133689001Y-107197923D01*
X133689000Y-111282255D01*
X133685726Y-111315500D01*
X133689000Y-111348745D01*
X133689000Y-111348751D01*
X133698796Y-111448214D01*
X133737508Y-111575829D01*
X133800372Y-111693440D01*
X133852640Y-111757128D01*
X133884973Y-111796526D01*
X133910800Y-111817722D01*
X135941078Y-113848000D01*
X127452000Y-113848000D01*
X127452000Y-112300849D01*
X131323500Y-112300849D01*
X131323500Y-112503151D01*
X131362967Y-112701565D01*
X131440385Y-112888467D01*
X131552777Y-113056674D01*
X131695826Y-113199723D01*
X131864033Y-113312115D01*
X132050935Y-113389533D01*
X132249349Y-113429000D01*
X132451651Y-113429000D01*
X132650065Y-113389533D01*
X132836967Y-113312115D01*
X133005174Y-113199723D01*
X133148223Y-113056674D01*
X133260615Y-112888467D01*
X133338033Y-112701565D01*
X133377500Y-112503151D01*
X133377500Y-112300849D01*
X133338033Y-112102435D01*
X133260615Y-111915533D01*
X133148223Y-111747326D01*
X133005174Y-111604277D01*
X132836967Y-111491885D01*
X132650065Y-111414467D01*
X132451651Y-111375000D01*
X132249349Y-111375000D01*
X132050935Y-111414467D01*
X131864033Y-111491885D01*
X131695826Y-111604277D01*
X131552777Y-111747326D01*
X131440385Y-111915533D01*
X131362967Y-112102435D01*
X131323500Y-112300849D01*
X127452000Y-112300849D01*
X127452000Y-109133104D01*
X127949500Y-109133104D01*
X127949500Y-109433896D01*
X128008181Y-109728910D01*
X128123290Y-110006806D01*
X128290401Y-110256906D01*
X128503094Y-110469599D01*
X128753194Y-110636710D01*
X129031090Y-110751819D01*
X129326104Y-110810500D01*
X129626896Y-110810500D01*
X129921910Y-110751819D01*
X130199806Y-110636710D01*
X130449906Y-110469599D01*
X130662599Y-110256906D01*
X130829710Y-110006806D01*
X130915020Y-109800849D01*
X131323500Y-109800849D01*
X131323500Y-110003151D01*
X131362967Y-110201565D01*
X131440385Y-110388467D01*
X131552777Y-110556674D01*
X131695826Y-110699723D01*
X131864033Y-110812115D01*
X132050935Y-110889533D01*
X132249349Y-110929000D01*
X132451651Y-110929000D01*
X132650065Y-110889533D01*
X132836967Y-110812115D01*
X133005174Y-110699723D01*
X133148223Y-110556674D01*
X133260615Y-110388467D01*
X133338033Y-110201565D01*
X133377500Y-110003151D01*
X133377500Y-109800849D01*
X133338033Y-109602435D01*
X133260615Y-109415533D01*
X133148223Y-109247326D01*
X133005174Y-109104277D01*
X132836967Y-108991885D01*
X132650065Y-108914467D01*
X132451651Y-108875000D01*
X132249349Y-108875000D01*
X132050935Y-108914467D01*
X131864033Y-108991885D01*
X131695826Y-109104277D01*
X131552777Y-109247326D01*
X131440385Y-109415533D01*
X131362967Y-109602435D01*
X131323500Y-109800849D01*
X130915020Y-109800849D01*
X130944819Y-109728910D01*
X131003500Y-109433896D01*
X131003500Y-109133104D01*
X130944819Y-108838090D01*
X130829710Y-108560194D01*
X130662599Y-108310094D01*
X130449906Y-108097401D01*
X130199806Y-107930290D01*
X129921910Y-107815181D01*
X129626896Y-107756500D01*
X129326104Y-107756500D01*
X129031090Y-107815181D01*
X128753194Y-107930290D01*
X128503094Y-108097401D01*
X128290401Y-108310094D01*
X128123290Y-108560194D01*
X128008181Y-108838090D01*
X127949500Y-109133104D01*
X127452000Y-109133104D01*
X127452000Y-101977723D01*
X129628875Y-99800849D01*
X131323500Y-99800849D01*
X131323500Y-100003151D01*
X131362967Y-100201565D01*
X131440385Y-100388467D01*
X131552777Y-100556674D01*
X131695826Y-100699723D01*
X131864033Y-100812115D01*
X132050935Y-100889533D01*
X132249349Y-100929000D01*
X132451651Y-100929000D01*
X132650065Y-100889533D01*
X132836967Y-100812115D01*
X133005174Y-100699723D01*
X133023157Y-100681740D01*
X134103287Y-100681740D01*
X134171706Y-100875410D01*
X134374651Y-100989133D01*
X134595883Y-101061077D01*
X134826900Y-101088479D01*
X135058824Y-101070285D01*
X135282743Y-101007195D01*
X135490051Y-100901633D01*
X135529294Y-100875410D01*
X135597713Y-100681740D01*
X134850500Y-99934527D01*
X134103287Y-100681740D01*
X133023157Y-100681740D01*
X133148223Y-100556674D01*
X133260615Y-100388467D01*
X133338033Y-100201565D01*
X133377500Y-100003151D01*
X133377500Y-99878400D01*
X133664021Y-99878400D01*
X133682215Y-100110324D01*
X133745305Y-100334243D01*
X133850867Y-100541551D01*
X133877090Y-100580794D01*
X134070760Y-100649213D01*
X134817973Y-99902000D01*
X134883027Y-99902000D01*
X135630240Y-100649213D01*
X135823910Y-100580794D01*
X135937633Y-100377849D01*
X136009577Y-100156617D01*
X136036979Y-99925600D01*
X136018785Y-99693676D01*
X135955695Y-99469757D01*
X135850133Y-99262449D01*
X135823910Y-99223206D01*
X135630240Y-99154787D01*
X134883027Y-99902000D01*
X134817973Y-99902000D01*
X134070760Y-99154787D01*
X133877090Y-99223206D01*
X133763367Y-99426151D01*
X133691423Y-99647383D01*
X133664021Y-99878400D01*
X133377500Y-99878400D01*
X133377500Y-99800849D01*
X133338033Y-99602435D01*
X133260615Y-99415533D01*
X133148223Y-99247326D01*
X133023157Y-99122260D01*
X134103287Y-99122260D01*
X134850500Y-99869473D01*
X135597713Y-99122260D01*
X135529294Y-98928590D01*
X135326349Y-98814867D01*
X135105117Y-98742923D01*
X134874100Y-98715521D01*
X134642176Y-98733715D01*
X134418257Y-98796805D01*
X134210949Y-98902367D01*
X134171706Y-98928590D01*
X134103287Y-99122260D01*
X133023157Y-99122260D01*
X133005174Y-99104277D01*
X132836967Y-98991885D01*
X132650065Y-98914467D01*
X132451651Y-98875000D01*
X132249349Y-98875000D01*
X132050935Y-98914467D01*
X131864033Y-98991885D01*
X131695826Y-99104277D01*
X131552777Y-99247326D01*
X131440385Y-99415533D01*
X131362967Y-99602435D01*
X131323500Y-99800849D01*
X129628875Y-99800849D01*
X131505225Y-97924500D01*
X138370577Y-97924500D01*
X137556282Y-98738796D01*
G37*
X137556282Y-98738796D02*
X137466818Y-98721000D01*
X137234182Y-98721000D01*
X137006015Y-98766386D01*
X136791087Y-98855412D01*
X136597657Y-98984658D01*
X136433158Y-99149157D01*
X136303912Y-99342587D01*
X136214886Y-99557515D01*
X136169500Y-99785682D01*
X136169500Y-100018318D01*
X136214886Y-100246485D01*
X136303912Y-100461413D01*
X136433158Y-100654843D01*
X136597657Y-100819342D01*
X136791087Y-100948588D01*
X137006015Y-101037614D01*
X137234182Y-101083000D01*
X137466818Y-101083000D01*
X137694985Y-101037614D01*
X137909913Y-100948588D01*
X138103343Y-100819342D01*
X138267842Y-100654843D01*
X138397088Y-100461413D01*
X138486114Y-100246485D01*
X138531500Y-100018318D01*
X138531500Y-99785682D01*
X138513704Y-99696218D01*
X138759065Y-99450858D01*
X138714886Y-99557515D01*
X138669500Y-99785682D01*
X138669500Y-100018318D01*
X138714886Y-100246485D01*
X138803912Y-100461413D01*
X138933158Y-100654843D01*
X139097657Y-100819342D01*
X139291087Y-100948588D01*
X139506015Y-101037614D01*
X139734182Y-101083000D01*
X139966818Y-101083000D01*
X140194985Y-101037614D01*
X140409913Y-100948588D01*
X140603343Y-100819342D01*
X140767842Y-100654843D01*
X140897088Y-100461413D01*
X140986114Y-100246485D01*
X141031500Y-100018318D01*
X141031500Y-99800849D01*
X141323500Y-99800849D01*
X141323500Y-100003151D01*
X141362967Y-100201565D01*
X141440385Y-100388467D01*
X141552777Y-100556674D01*
X141695826Y-100699723D01*
X141864033Y-100812115D01*
X142050935Y-100889533D01*
X142249349Y-100929000D01*
X142451651Y-100929000D01*
X142650065Y-100889533D01*
X142836967Y-100812115D01*
X143005174Y-100699723D01*
X143148223Y-100556674D01*
X143260615Y-100388467D01*
X143338033Y-100201565D01*
X143377500Y-100003151D01*
X143377500Y-99800849D01*
X143338033Y-99602435D01*
X143260615Y-99415533D01*
X143148223Y-99247326D01*
X143005174Y-99104277D01*
X142836967Y-98991885D01*
X142650065Y-98914467D01*
X142451651Y-98875000D01*
X142249349Y-98875000D01*
X142050935Y-98914467D01*
X141864033Y-98991885D01*
X141695826Y-99104277D01*
X141552777Y-99247326D01*
X141440385Y-99415533D01*
X141362967Y-99602435D01*
X141323500Y-99800849D01*
X141031500Y-99800849D01*
X141031500Y-99785682D01*
X140986114Y-99557515D01*
X140897088Y-99342587D01*
X140767842Y-99149157D01*
X140603343Y-98984658D01*
X140409913Y-98855412D01*
X140392019Y-98848000D01*
X142912078Y-98848000D01*
X143642774Y-99578696D01*
X143663973Y-99604527D01*
X143767059Y-99689128D01*
X143884670Y-99751992D01*
X144012285Y-99790704D01*
X144111748Y-99800500D01*
X144111757Y-99800500D01*
X144144999Y-99803774D01*
X144178241Y-99800500D01*
X144262934Y-99800500D01*
X144262934Y-99973500D01*
X144271178Y-100057207D01*
X144295595Y-100137696D01*
X144335245Y-100211876D01*
X144388605Y-100276895D01*
X144453624Y-100330255D01*
X144527804Y-100369905D01*
X144608293Y-100394322D01*
X144692000Y-100402566D01*
X146392000Y-100402566D01*
X146475707Y-100394322D01*
X146556196Y-100369905D01*
X146630376Y-100330255D01*
X146695395Y-100276895D01*
X146748755Y-100211876D01*
X146788405Y-100137696D01*
X146812822Y-100057207D01*
X146821066Y-99973500D01*
X146821066Y-99330044D01*
X146854074Y-99495987D01*
X146950337Y-99728386D01*
X147090089Y-99937540D01*
X147267960Y-100115411D01*
X147405000Y-100206978D01*
X147405001Y-100873654D01*
X147372132Y-100883625D01*
X147254731Y-100946377D01*
X147151828Y-101030828D01*
X147067377Y-101133731D01*
X147004625Y-101251132D01*
X146965982Y-101378520D01*
X146952934Y-101510999D01*
X146952934Y-102161001D01*
X146965982Y-102293480D01*
X147004625Y-102420868D01*
X147067377Y-102538269D01*
X147151828Y-102641172D01*
X147254731Y-102725623D01*
X147372132Y-102788375D01*
X147499520Y-102827018D01*
X147631999Y-102840066D01*
X148532001Y-102840066D01*
X148664480Y-102827018D01*
X148791868Y-102788375D01*
X148909269Y-102725623D01*
X149012172Y-102641172D01*
X149096623Y-102538269D01*
X149159375Y-102420868D01*
X149198018Y-102293480D01*
X149211066Y-102161001D01*
X149211066Y-101510999D01*
X149198018Y-101378520D01*
X149159375Y-101251132D01*
X149096623Y-101133731D01*
X149012172Y-101030828D01*
X148909269Y-100946377D01*
X148791868Y-100883625D01*
X148759000Y-100873655D01*
X148759000Y-100206978D01*
X148896040Y-100115411D01*
X149073911Y-99937540D01*
X149213663Y-99728386D01*
X149309926Y-99495987D01*
X149352000Y-99284466D01*
X149394074Y-99495987D01*
X149490337Y-99728386D01*
X149630089Y-99937540D01*
X149807960Y-100115411D01*
X149945000Y-100206978D01*
X149945001Y-100873654D01*
X149912132Y-100883625D01*
X149794731Y-100946377D01*
X149691828Y-101030828D01*
X149607377Y-101133731D01*
X149544625Y-101251132D01*
X149505982Y-101378520D01*
X149492934Y-101510999D01*
X149492934Y-102161001D01*
X149505982Y-102293480D01*
X149544625Y-102420868D01*
X149607377Y-102538269D01*
X149691828Y-102641172D01*
X149794731Y-102725623D01*
X149912132Y-102788375D01*
X150039520Y-102827018D01*
X150171999Y-102840066D01*
X151072001Y-102840066D01*
X151204480Y-102827018D01*
X151331868Y-102788375D01*
X151449269Y-102725623D01*
X151552172Y-102641172D01*
X151636623Y-102538269D01*
X151699375Y-102420868D01*
X151738018Y-102293480D01*
X151751066Y-102161001D01*
X151751066Y-101510999D01*
X151738018Y-101378520D01*
X151699375Y-101251132D01*
X151636623Y-101133731D01*
X151552172Y-101030828D01*
X151449269Y-100946377D01*
X151331868Y-100883625D01*
X151299000Y-100873655D01*
X151299000Y-100206978D01*
X151436040Y-100115411D01*
X151613911Y-99937540D01*
X151753663Y-99728386D01*
X151849926Y-99495987D01*
X151892000Y-99284466D01*
X151934074Y-99495987D01*
X152030337Y-99728386D01*
X152170089Y-99937540D01*
X152347960Y-100115411D01*
X152485000Y-100206978D01*
X152485001Y-100873654D01*
X152452132Y-100883625D01*
X152334731Y-100946377D01*
X152231828Y-101030828D01*
X152147377Y-101133731D01*
X152084625Y-101251132D01*
X152045982Y-101378520D01*
X152032934Y-101510999D01*
X152032934Y-102161001D01*
X152045982Y-102293480D01*
X152084625Y-102420868D01*
X152147377Y-102538269D01*
X152231828Y-102641172D01*
X152334731Y-102725623D01*
X152452132Y-102788375D01*
X152579520Y-102827018D01*
X152711999Y-102840066D01*
X153612001Y-102840066D01*
X153744480Y-102827018D01*
X153871868Y-102788375D01*
X153989269Y-102725623D01*
X154092172Y-102641172D01*
X154176623Y-102538269D01*
X154239375Y-102420868D01*
X154278018Y-102293480D01*
X154291066Y-102161001D01*
X154291066Y-101510999D01*
X154278018Y-101378520D01*
X154239375Y-101251132D01*
X154176623Y-101133731D01*
X154092172Y-101030828D01*
X153989269Y-100946377D01*
X153871868Y-100883625D01*
X153839000Y-100873655D01*
X153839000Y-100446000D01*
X156489934Y-100446000D01*
X156489934Y-102246000D01*
X156498178Y-102329707D01*
X156522595Y-102410196D01*
X156562245Y-102484376D01*
X156615605Y-102549395D01*
X156680624Y-102602755D01*
X156754804Y-102642405D01*
X156835293Y-102666822D01*
X156919000Y-102675066D01*
X159819000Y-102675066D01*
X159902707Y-102666822D01*
X159983196Y-102642405D01*
X160057376Y-102602755D01*
X160122395Y-102549395D01*
X160175755Y-102484376D01*
X160215405Y-102410196D01*
X160239822Y-102329707D01*
X160248066Y-102246000D01*
X160248066Y-100446000D01*
X160239822Y-100362293D01*
X160215405Y-100281804D01*
X160175755Y-100207624D01*
X160122395Y-100142605D01*
X160057376Y-100089245D01*
X159983196Y-100049595D01*
X159902707Y-100025178D01*
X159819000Y-100016934D01*
X159046000Y-100016934D01*
X159046000Y-99725857D01*
X159101877Y-99642231D01*
X159164218Y-99491727D01*
X159196000Y-99331952D01*
X159196000Y-99169048D01*
X159164218Y-99009273D01*
X159101877Y-98858769D01*
X159011372Y-98723319D01*
X158896181Y-98608128D01*
X158760731Y-98517623D01*
X158610227Y-98455282D01*
X158450452Y-98423500D01*
X158287548Y-98423500D01*
X158127773Y-98455282D01*
X157977269Y-98517623D01*
X157841819Y-98608128D01*
X157726628Y-98723319D01*
X157636123Y-98858769D01*
X157573782Y-99009273D01*
X157542000Y-99169048D01*
X157542000Y-99331952D01*
X157573782Y-99491727D01*
X157636123Y-99642231D01*
X157692000Y-99725857D01*
X157692000Y-100016934D01*
X156919000Y-100016934D01*
X156835293Y-100025178D01*
X156754804Y-100049595D01*
X156680624Y-100089245D01*
X156615605Y-100142605D01*
X156562245Y-100207624D01*
X156522595Y-100281804D01*
X156498178Y-100362293D01*
X156489934Y-100446000D01*
X153839000Y-100446000D01*
X153839000Y-100206978D01*
X153976040Y-100115411D01*
X154153911Y-99937540D01*
X154293663Y-99728386D01*
X154389926Y-99495987D01*
X154439000Y-99249274D01*
X154439000Y-98997726D01*
X154389926Y-98751013D01*
X154293663Y-98518614D01*
X154153911Y-98309460D01*
X153976040Y-98131589D01*
X153766886Y-97991837D01*
X153604320Y-97924500D01*
X164521001Y-97924500D01*
X164521000Y-113848000D01*
X156670422Y-113848000D01*
X158824701Y-111693722D01*
X158850527Y-111672527D01*
X158929886Y-111575829D01*
X158935128Y-111569441D01*
X158997992Y-111451830D01*
X159036704Y-111324215D01*
X159049775Y-111191500D01*
X159046500Y-111158248D01*
X159046500Y-111120566D01*
X159819500Y-111120566D01*
X159903207Y-111112322D01*
X159983696Y-111087905D01*
X160057876Y-111048255D01*
X160122895Y-110994895D01*
X160176255Y-110929876D01*
X160215905Y-110855696D01*
X160240322Y-110775207D01*
X160248566Y-110691500D01*
X160248566Y-108891500D01*
X160240322Y-108807793D01*
X160215905Y-108727304D01*
X160176255Y-108653124D01*
X160122895Y-108588105D01*
X160057876Y-108534745D01*
X159983696Y-108495095D01*
X159903207Y-108470678D01*
X159819500Y-108462434D01*
X156919500Y-108462434D01*
X156835793Y-108470678D01*
X156755304Y-108495095D01*
X156681124Y-108534745D01*
X156616105Y-108588105D01*
X156562745Y-108653124D01*
X156523095Y-108727304D01*
X156498678Y-108807793D01*
X156490434Y-108891500D01*
X156490434Y-110691500D01*
X156498678Y-110775207D01*
X156523095Y-110855696D01*
X156562745Y-110929876D01*
X156616105Y-110994895D01*
X156681124Y-111048255D01*
X156755304Y-111087905D01*
X156835793Y-111112322D01*
X156919500Y-111120566D01*
X157483011Y-111120566D01*
X155552078Y-113051500D01*
X143151680Y-113051500D01*
X143260615Y-112888467D01*
X143338033Y-112701565D01*
X143377500Y-112503151D01*
X143377500Y-112300849D01*
X143338033Y-112102435D01*
X143260615Y-111915533D01*
X143148223Y-111747326D01*
X143005174Y-111604277D01*
X142836967Y-111491885D01*
X142650065Y-111414467D01*
X142451651Y-111375000D01*
X142249349Y-111375000D01*
X142050935Y-111414467D01*
X141864033Y-111491885D01*
X141695826Y-111604277D01*
X141552777Y-111747326D01*
X141440385Y-111915533D01*
X141362967Y-112102435D01*
X141323500Y-112300849D01*
X141323500Y-112503151D01*
X141362967Y-112701565D01*
X141440385Y-112888467D01*
X141549320Y-113051500D01*
X137059422Y-113051500D01*
X135043000Y-111035078D01*
X135043000Y-110093784D01*
X135632649Y-110093784D01*
X135688984Y-110294431D01*
X135784903Y-110483447D01*
X135915854Y-110650118D01*
X136076805Y-110788040D01*
X136261570Y-110891912D01*
X136463049Y-110957742D01*
X136673500Y-110983000D01*
X137327500Y-110983000D01*
X137327500Y-109925000D01*
X137373500Y-109925000D01*
X137373500Y-110983000D01*
X138027500Y-110983000D01*
X138237951Y-110957742D01*
X138439430Y-110891912D01*
X138624195Y-110788040D01*
X138785146Y-110650118D01*
X138916097Y-110483447D01*
X139012016Y-110294431D01*
X139068351Y-110093784D01*
X138978478Y-109925000D01*
X137373500Y-109925000D01*
X137327500Y-109925000D01*
X135722522Y-109925000D01*
X135632649Y-110093784D01*
X135043000Y-110093784D01*
X135043000Y-109710216D01*
X135632649Y-109710216D01*
X135722522Y-109879000D01*
X137327500Y-109879000D01*
X137327500Y-108821000D01*
X137373500Y-108821000D01*
X137373500Y-109879000D01*
X138978478Y-109879000D01*
X139020091Y-109800849D01*
X141323500Y-109800849D01*
X141323500Y-110003151D01*
X141362967Y-110201565D01*
X141440385Y-110388467D01*
X141552777Y-110556674D01*
X141695826Y-110699723D01*
X141864033Y-110812115D01*
X142050935Y-110889533D01*
X142249349Y-110929000D01*
X142451651Y-110929000D01*
X142650065Y-110889533D01*
X142836967Y-110812115D01*
X143005174Y-110699723D01*
X143148223Y-110556674D01*
X143260615Y-110388467D01*
X143338033Y-110201565D01*
X143377500Y-110003151D01*
X143377500Y-109800849D01*
X143338033Y-109602435D01*
X143260615Y-109415533D01*
X143148223Y-109247326D01*
X143034001Y-109133104D01*
X143697500Y-109133104D01*
X143697500Y-109433896D01*
X143756181Y-109728910D01*
X143871290Y-110006806D01*
X144038401Y-110256906D01*
X144251094Y-110469599D01*
X144501194Y-110636710D01*
X144779090Y-110751819D01*
X145074104Y-110810500D01*
X145374896Y-110810500D01*
X145669910Y-110751819D01*
X145947806Y-110636710D01*
X146197906Y-110469599D01*
X146410599Y-110256906D01*
X146577710Y-110006806D01*
X146692819Y-109728910D01*
X146751500Y-109433896D01*
X146751500Y-109133104D01*
X146692819Y-108838090D01*
X146577710Y-108560194D01*
X146410599Y-108310094D01*
X146197906Y-108097401D01*
X145947806Y-107930290D01*
X145669910Y-107815181D01*
X145374896Y-107756500D01*
X145074104Y-107756500D01*
X144779090Y-107815181D01*
X144501194Y-107930290D01*
X144251094Y-108097401D01*
X144038401Y-108310094D01*
X143871290Y-108560194D01*
X143756181Y-108838090D01*
X143697500Y-109133104D01*
X143034001Y-109133104D01*
X143005174Y-109104277D01*
X142836967Y-108991885D01*
X142650065Y-108914467D01*
X142451651Y-108875000D01*
X142249349Y-108875000D01*
X142050935Y-108914467D01*
X141864033Y-108991885D01*
X141695826Y-109104277D01*
X141552777Y-109247326D01*
X141440385Y-109415533D01*
X141362967Y-109602435D01*
X141323500Y-109800849D01*
X139020091Y-109800849D01*
X139068351Y-109710216D01*
X139012016Y-109509569D01*
X138916097Y-109320553D01*
X138785146Y-109153882D01*
X138624195Y-109015960D01*
X138439430Y-108912088D01*
X138237951Y-108846258D01*
X138027500Y-108821000D01*
X137373500Y-108821000D01*
X137327500Y-108821000D01*
X136673500Y-108821000D01*
X136463049Y-108846258D01*
X136261570Y-108912088D01*
X136076805Y-109015960D01*
X135915854Y-109153882D01*
X135784903Y-109320553D01*
X135688984Y-109509569D01*
X135632649Y-109710216D01*
X135043000Y-109710216D01*
X135043000Y-106950741D01*
X135046274Y-106917499D01*
X135043000Y-106884257D01*
X135043000Y-106884248D01*
X135033204Y-106784785D01*
X134994492Y-106657170D01*
X134931628Y-106539559D01*
X134847027Y-106436473D01*
X134821196Y-106415274D01*
X133431500Y-105025578D01*
X133431500Y-104800849D01*
X136323500Y-104800849D01*
X136323500Y-105003151D01*
X136362967Y-105201565D01*
X136440385Y-105388467D01*
X136552777Y-105556674D01*
X136695826Y-105699723D01*
X136864033Y-105812115D01*
X137050935Y-105889533D01*
X137249349Y-105929000D01*
X137451651Y-105929000D01*
X137650065Y-105889533D01*
X137836967Y-105812115D01*
X138005174Y-105699723D01*
X138148223Y-105556674D01*
X138260615Y-105388467D01*
X138338033Y-105201565D01*
X138377500Y-105003151D01*
X138377500Y-104800849D01*
X138338033Y-104602435D01*
X138260615Y-104415533D01*
X138148223Y-104247326D01*
X138095798Y-104194901D01*
X141269500Y-104194901D01*
X141269500Y-105609100D01*
X141285142Y-105767913D01*
X141346955Y-105971682D01*
X141447334Y-106159477D01*
X141582420Y-106324081D01*
X141747024Y-106459167D01*
X141934819Y-106559546D01*
X142138588Y-106621358D01*
X142350500Y-106642230D01*
X142562413Y-106621358D01*
X142766182Y-106559546D01*
X142953977Y-106459167D01*
X143118581Y-106324081D01*
X143253667Y-106159477D01*
X143354046Y-105971682D01*
X143415858Y-105767913D01*
X143431500Y-105609100D01*
X143431500Y-104461000D01*
X146952934Y-104461000D01*
X146961178Y-104544707D01*
X146985595Y-104625196D01*
X147025245Y-104699376D01*
X147078605Y-104764395D01*
X147143624Y-104817755D01*
X147217804Y-104857405D01*
X147298293Y-104881822D01*
X147382000Y-104890066D01*
X147952250Y-104888000D01*
X148059000Y-104781250D01*
X148059000Y-103909000D01*
X148105000Y-103909000D01*
X148105000Y-104781250D01*
X148211750Y-104888000D01*
X148782000Y-104890066D01*
X148865707Y-104881822D01*
X148946196Y-104857405D01*
X149020376Y-104817755D01*
X149085395Y-104764395D01*
X149138755Y-104699376D01*
X149178405Y-104625196D01*
X149202822Y-104544707D01*
X149211066Y-104461000D01*
X149209000Y-104015750D01*
X149102250Y-103909000D01*
X148105000Y-103909000D01*
X148059000Y-103909000D01*
X147061750Y-103909000D01*
X146955000Y-104015750D01*
X146952934Y-104461000D01*
X143431500Y-104461000D01*
X143431500Y-104194900D01*
X143415858Y-104036087D01*
X143354046Y-103832318D01*
X143253667Y-103644523D01*
X143118581Y-103479919D01*
X142953977Y-103344833D01*
X142890680Y-103311000D01*
X146952934Y-103311000D01*
X146955000Y-103756250D01*
X147061750Y-103863000D01*
X148059000Y-103863000D01*
X148059000Y-102990750D01*
X148105000Y-102990750D01*
X148105000Y-103863000D01*
X149102250Y-103863000D01*
X149209000Y-103756250D01*
X149209905Y-103560999D01*
X149492934Y-103560999D01*
X149492934Y-104211001D01*
X149505982Y-104343480D01*
X149544625Y-104470868D01*
X149607377Y-104588269D01*
X149691828Y-104691172D01*
X149794731Y-104775623D01*
X149912132Y-104838375D01*
X150039520Y-104877018D01*
X150171999Y-104890066D01*
X150668644Y-104890066D01*
X151643774Y-105865196D01*
X151664973Y-105891027D01*
X151768059Y-105975628D01*
X151885670Y-106038492D01*
X152013285Y-106077204D01*
X152112748Y-106087000D01*
X152112757Y-106087000D01*
X152145999Y-106090274D01*
X152179241Y-106087000D01*
X157707578Y-106087000D01*
X160492374Y-108871797D01*
X160490434Y-108891500D01*
X160490434Y-110691500D01*
X160498678Y-110775207D01*
X160523095Y-110855696D01*
X160562745Y-110929876D01*
X160616105Y-110994895D01*
X160681124Y-111048255D01*
X160755304Y-111087905D01*
X160835793Y-111112322D01*
X160919500Y-111120566D01*
X163819500Y-111120566D01*
X163903207Y-111112322D01*
X163983696Y-111087905D01*
X164057876Y-111048255D01*
X164122895Y-110994895D01*
X164176255Y-110929876D01*
X164215905Y-110855696D01*
X164240322Y-110775207D01*
X164248566Y-110691500D01*
X164248566Y-108891500D01*
X164240322Y-108807793D01*
X164215905Y-108727304D01*
X164176255Y-108653124D01*
X164122895Y-108588105D01*
X164057876Y-108534745D01*
X163983696Y-108495095D01*
X163903207Y-108470678D01*
X163819500Y-108462434D01*
X161997857Y-108462434D01*
X158490226Y-104954804D01*
X158469027Y-104928973D01*
X158365941Y-104844372D01*
X158248330Y-104781508D01*
X158120715Y-104742796D01*
X158021252Y-104733000D01*
X158021245Y-104733000D01*
X157988000Y-104729726D01*
X157954755Y-104733000D01*
X154041205Y-104733000D01*
X154092172Y-104691172D01*
X154176623Y-104588269D01*
X154190130Y-104563000D01*
X159795755Y-104563000D01*
X159829000Y-104566274D01*
X159862245Y-104563000D01*
X159862252Y-104563000D01*
X159961715Y-104553204D01*
X160089330Y-104514492D01*
X160206941Y-104451628D01*
X160310027Y-104367027D01*
X160331226Y-104341196D01*
X161997356Y-102675066D01*
X163819000Y-102675066D01*
X163902707Y-102666822D01*
X163983196Y-102642405D01*
X164057376Y-102602755D01*
X164122395Y-102549395D01*
X164175755Y-102484376D01*
X164215405Y-102410196D01*
X164239822Y-102329707D01*
X164248066Y-102246000D01*
X164248066Y-100446000D01*
X164239822Y-100362293D01*
X164215405Y-100281804D01*
X164175755Y-100207624D01*
X164122395Y-100142605D01*
X164057376Y-100089245D01*
X163983196Y-100049595D01*
X163902707Y-100025178D01*
X163819000Y-100016934D01*
X160919000Y-100016934D01*
X160835293Y-100025178D01*
X160754804Y-100049595D01*
X160680624Y-100089245D01*
X160615605Y-100142605D01*
X160562245Y-100207624D01*
X160522595Y-100281804D01*
X160498178Y-100362293D01*
X160489934Y-100446000D01*
X160489934Y-102246000D01*
X160491875Y-102265703D01*
X159548578Y-103209000D01*
X154190130Y-103209000D01*
X154176623Y-103183731D01*
X154092172Y-103080828D01*
X153989269Y-102996377D01*
X153871868Y-102933625D01*
X153744480Y-102894982D01*
X153612001Y-102881934D01*
X152711999Y-102881934D01*
X152579520Y-102894982D01*
X152452132Y-102933625D01*
X152334731Y-102996377D01*
X152231828Y-103080828D01*
X152147377Y-103183731D01*
X152084625Y-103301132D01*
X152045982Y-103428520D01*
X152032934Y-103560999D01*
X152032934Y-104211001D01*
X152045982Y-104343480D01*
X152049936Y-104356514D01*
X151751066Y-104057644D01*
X151751066Y-103560999D01*
X151738018Y-103428520D01*
X151699375Y-103301132D01*
X151636623Y-103183731D01*
X151552172Y-103080828D01*
X151449269Y-102996377D01*
X151331868Y-102933625D01*
X151204480Y-102894982D01*
X151072001Y-102881934D01*
X150171999Y-102881934D01*
X150039520Y-102894982D01*
X149912132Y-102933625D01*
X149794731Y-102996377D01*
X149691828Y-103080828D01*
X149607377Y-103183731D01*
X149544625Y-103301132D01*
X149505982Y-103428520D01*
X149492934Y-103560999D01*
X149209905Y-103560999D01*
X149211066Y-103311000D01*
X149202822Y-103227293D01*
X149178405Y-103146804D01*
X149138755Y-103072624D01*
X149085395Y-103007605D01*
X149020376Y-102954245D01*
X148946196Y-102914595D01*
X148865707Y-102890178D01*
X148782000Y-102881934D01*
X148211750Y-102884000D01*
X148105000Y-102990750D01*
X148059000Y-102990750D01*
X147952250Y-102884000D01*
X147382000Y-102881934D01*
X147298293Y-102890178D01*
X147217804Y-102914595D01*
X147143624Y-102954245D01*
X147078605Y-103007605D01*
X147025245Y-103072624D01*
X146985595Y-103146804D01*
X146961178Y-103227293D01*
X146952934Y-103311000D01*
X142890680Y-103311000D01*
X142766181Y-103244454D01*
X142562412Y-103182642D01*
X142350500Y-103161770D01*
X142138587Y-103182642D01*
X141934818Y-103244454D01*
X141747023Y-103344833D01*
X141582419Y-103479919D01*
X141447333Y-103644523D01*
X141346954Y-103832319D01*
X141285142Y-104036088D01*
X141269500Y-104194901D01*
X138095798Y-104194901D01*
X138005174Y-104104277D01*
X137836967Y-103991885D01*
X137650065Y-103914467D01*
X137451651Y-103875000D01*
X137249349Y-103875000D01*
X137050935Y-103914467D01*
X136864033Y-103991885D01*
X136695826Y-104104277D01*
X136552777Y-104247326D01*
X136440385Y-104415533D01*
X136362967Y-104602435D01*
X136323500Y-104800849D01*
X133431500Y-104800849D01*
X133431500Y-104194900D01*
X133415858Y-104036087D01*
X133354046Y-103832318D01*
X133253667Y-103644523D01*
X133118581Y-103479919D01*
X132953977Y-103344833D01*
X132766181Y-103244454D01*
X132562412Y-103182642D01*
X132350500Y-103161770D01*
X132138587Y-103182642D01*
X131934818Y-103244454D01*
X131747023Y-103344833D01*
X131582419Y-103479919D01*
X131447333Y-103644523D01*
X131346954Y-103832319D01*
X131285142Y-104036088D01*
X131269500Y-104194901D01*
X131269500Y-105609100D01*
X131285142Y-105767913D01*
X131346955Y-105971682D01*
X131447334Y-106159477D01*
X131582420Y-106324081D01*
X131747024Y-106459167D01*
X131934819Y-106559546D01*
X132138588Y-106621358D01*
X132350500Y-106642230D01*
X132562413Y-106621358D01*
X132766182Y-106559546D01*
X132951545Y-106460467D01*
X133689001Y-107197923D01*
X133689000Y-111282255D01*
X133685726Y-111315500D01*
X133689000Y-111348745D01*
X133689000Y-111348751D01*
X133698796Y-111448214D01*
X133737508Y-111575829D01*
X133800372Y-111693440D01*
X133852640Y-111757128D01*
X133884973Y-111796526D01*
X133910800Y-111817722D01*
X135941078Y-113848000D01*
X127452000Y-113848000D01*
X127452000Y-112300849D01*
X131323500Y-112300849D01*
X131323500Y-112503151D01*
X131362967Y-112701565D01*
X131440385Y-112888467D01*
X131552777Y-113056674D01*
X131695826Y-113199723D01*
X131864033Y-113312115D01*
X132050935Y-113389533D01*
X132249349Y-113429000D01*
X132451651Y-113429000D01*
X132650065Y-113389533D01*
X132836967Y-113312115D01*
X133005174Y-113199723D01*
X133148223Y-113056674D01*
X133260615Y-112888467D01*
X133338033Y-112701565D01*
X133377500Y-112503151D01*
X133377500Y-112300849D01*
X133338033Y-112102435D01*
X133260615Y-111915533D01*
X133148223Y-111747326D01*
X133005174Y-111604277D01*
X132836967Y-111491885D01*
X132650065Y-111414467D01*
X132451651Y-111375000D01*
X132249349Y-111375000D01*
X132050935Y-111414467D01*
X131864033Y-111491885D01*
X131695826Y-111604277D01*
X131552777Y-111747326D01*
X131440385Y-111915533D01*
X131362967Y-112102435D01*
X131323500Y-112300849D01*
X127452000Y-112300849D01*
X127452000Y-109133104D01*
X127949500Y-109133104D01*
X127949500Y-109433896D01*
X128008181Y-109728910D01*
X128123290Y-110006806D01*
X128290401Y-110256906D01*
X128503094Y-110469599D01*
X128753194Y-110636710D01*
X129031090Y-110751819D01*
X129326104Y-110810500D01*
X129626896Y-110810500D01*
X129921910Y-110751819D01*
X130199806Y-110636710D01*
X130449906Y-110469599D01*
X130662599Y-110256906D01*
X130829710Y-110006806D01*
X130915020Y-109800849D01*
X131323500Y-109800849D01*
X131323500Y-110003151D01*
X131362967Y-110201565D01*
X131440385Y-110388467D01*
X131552777Y-110556674D01*
X131695826Y-110699723D01*
X131864033Y-110812115D01*
X132050935Y-110889533D01*
X132249349Y-110929000D01*
X132451651Y-110929000D01*
X132650065Y-110889533D01*
X132836967Y-110812115D01*
X133005174Y-110699723D01*
X133148223Y-110556674D01*
X133260615Y-110388467D01*
X133338033Y-110201565D01*
X133377500Y-110003151D01*
X133377500Y-109800849D01*
X133338033Y-109602435D01*
X133260615Y-109415533D01*
X133148223Y-109247326D01*
X133005174Y-109104277D01*
X132836967Y-108991885D01*
X132650065Y-108914467D01*
X132451651Y-108875000D01*
X132249349Y-108875000D01*
X132050935Y-108914467D01*
X131864033Y-108991885D01*
X131695826Y-109104277D01*
X131552777Y-109247326D01*
X131440385Y-109415533D01*
X131362967Y-109602435D01*
X131323500Y-109800849D01*
X130915020Y-109800849D01*
X130944819Y-109728910D01*
X131003500Y-109433896D01*
X131003500Y-109133104D01*
X130944819Y-108838090D01*
X130829710Y-108560194D01*
X130662599Y-108310094D01*
X130449906Y-108097401D01*
X130199806Y-107930290D01*
X129921910Y-107815181D01*
X129626896Y-107756500D01*
X129326104Y-107756500D01*
X129031090Y-107815181D01*
X128753194Y-107930290D01*
X128503094Y-108097401D01*
X128290401Y-108310094D01*
X128123290Y-108560194D01*
X128008181Y-108838090D01*
X127949500Y-109133104D01*
X127452000Y-109133104D01*
X127452000Y-101977723D01*
X129628875Y-99800849D01*
X131323500Y-99800849D01*
X131323500Y-100003151D01*
X131362967Y-100201565D01*
X131440385Y-100388467D01*
X131552777Y-100556674D01*
X131695826Y-100699723D01*
X131864033Y-100812115D01*
X132050935Y-100889533D01*
X132249349Y-100929000D01*
X132451651Y-100929000D01*
X132650065Y-100889533D01*
X132836967Y-100812115D01*
X133005174Y-100699723D01*
X133023157Y-100681740D01*
X134103287Y-100681740D01*
X134171706Y-100875410D01*
X134374651Y-100989133D01*
X134595883Y-101061077D01*
X134826900Y-101088479D01*
X135058824Y-101070285D01*
X135282743Y-101007195D01*
X135490051Y-100901633D01*
X135529294Y-100875410D01*
X135597713Y-100681740D01*
X134850500Y-99934527D01*
X134103287Y-100681740D01*
X133023157Y-100681740D01*
X133148223Y-100556674D01*
X133260615Y-100388467D01*
X133338033Y-100201565D01*
X133377500Y-100003151D01*
X133377500Y-99878400D01*
X133664021Y-99878400D01*
X133682215Y-100110324D01*
X133745305Y-100334243D01*
X133850867Y-100541551D01*
X133877090Y-100580794D01*
X134070760Y-100649213D01*
X134817973Y-99902000D01*
X134883027Y-99902000D01*
X135630240Y-100649213D01*
X135823910Y-100580794D01*
X135937633Y-100377849D01*
X136009577Y-100156617D01*
X136036979Y-99925600D01*
X136018785Y-99693676D01*
X135955695Y-99469757D01*
X135850133Y-99262449D01*
X135823910Y-99223206D01*
X135630240Y-99154787D01*
X134883027Y-99902000D01*
X134817973Y-99902000D01*
X134070760Y-99154787D01*
X133877090Y-99223206D01*
X133763367Y-99426151D01*
X133691423Y-99647383D01*
X133664021Y-99878400D01*
X133377500Y-99878400D01*
X133377500Y-99800849D01*
X133338033Y-99602435D01*
X133260615Y-99415533D01*
X133148223Y-99247326D01*
X133023157Y-99122260D01*
X134103287Y-99122260D01*
X134850500Y-99869473D01*
X135597713Y-99122260D01*
X135529294Y-98928590D01*
X135326349Y-98814867D01*
X135105117Y-98742923D01*
X134874100Y-98715521D01*
X134642176Y-98733715D01*
X134418257Y-98796805D01*
X134210949Y-98902367D01*
X134171706Y-98928590D01*
X134103287Y-99122260D01*
X133023157Y-99122260D01*
X133005174Y-99104277D01*
X132836967Y-98991885D01*
X132650065Y-98914467D01*
X132451651Y-98875000D01*
X132249349Y-98875000D01*
X132050935Y-98914467D01*
X131864033Y-98991885D01*
X131695826Y-99104277D01*
X131552777Y-99247326D01*
X131440385Y-99415533D01*
X131362967Y-99602435D01*
X131323500Y-99800849D01*
X129628875Y-99800849D01*
X131505225Y-97924500D01*
X138370577Y-97924500D01*
X137556282Y-98738796D01*
%TD*%
M02*
