%TF.GenerationSoftware,KiCad,Pcbnew,(5.1.6)-1*%
%TF.CreationDate,2024-02-11T14:18:58-05:00*%
%TF.ProjectId,GB-DMG-Headphone-PCB,47422d44-4d47-42d4-9865-616470686f6e,rev?*%
%TF.SameCoordinates,Original*%
%TF.FileFunction,Soldermask,Top*%
%TF.FilePolarity,Negative*%
%FSLAX46Y46*%
G04 Gerber Fmt 4.6, Leading zero omitted, Abs format (unit mm)*
G04 Created by KiCad (PCBNEW (5.1.6)-1) date 2024-02-11 14:18:58*
%MOMM*%
%LPD*%
G01*
G04 APERTURE LIST*
%ADD10R,3.000000X1.900000*%
%ADD11R,1.800000X1.800000*%
%ADD12O,1.800000X1.800000*%
%ADD13C,1.300000*%
%ADD14O,2.820000X1.512000*%
%ADD15C,1.712000*%
%ADD16O,1.512000X2.820000*%
%ADD17C,2.300000*%
G04 APERTURE END LIST*
D10*
%TO.C,C1*%
X158369000Y-101346000D03*
X162369000Y-101346000D03*
%TD*%
%TO.C,C2*%
X162369500Y-109791500D03*
X158369500Y-109791500D03*
%TD*%
D11*
%TO.C,J1*%
X145542000Y-99123500D03*
D12*
X148082000Y-99123500D03*
X150622000Y-99123500D03*
X153162000Y-99123500D03*
%TD*%
D13*
%TO.C,J2*%
X142350500Y-112402000D03*
X142350500Y-109902000D03*
X132350500Y-112402000D03*
X132350500Y-109902000D03*
X137350500Y-104902000D03*
X142350500Y-99902000D03*
X132350500Y-99902000D03*
D14*
X137350500Y-109902000D03*
D15*
X134850500Y-99902000D03*
X137350500Y-99902000D03*
X139850500Y-99902000D03*
D16*
X142350500Y-104902000D03*
X132350500Y-104902000D03*
%TD*%
%TO.C,L1*%
G36*
G01*
X152683738Y-103261000D02*
X153640262Y-103261000D01*
G75*
G02*
X153912000Y-103532738I0J-271738D01*
G01*
X153912000Y-104239262D01*
G75*
G02*
X153640262Y-104511000I-271738J0D01*
G01*
X152683738Y-104511000D01*
G75*
G02*
X152412000Y-104239262I0J271738D01*
G01*
X152412000Y-103532738D01*
G75*
G02*
X152683738Y-103261000I271738J0D01*
G01*
G37*
G36*
G01*
X152683738Y-101211000D02*
X153640262Y-101211000D01*
G75*
G02*
X153912000Y-101482738I0J-271738D01*
G01*
X153912000Y-102189262D01*
G75*
G02*
X153640262Y-102461000I-271738J0D01*
G01*
X152683738Y-102461000D01*
G75*
G02*
X152412000Y-102189262I0J271738D01*
G01*
X152412000Y-101482738D01*
G75*
G02*
X152683738Y-101211000I271738J0D01*
G01*
G37*
%TD*%
%TO.C,L2*%
G36*
G01*
X150143738Y-101211000D02*
X151100262Y-101211000D01*
G75*
G02*
X151372000Y-101482738I0J-271738D01*
G01*
X151372000Y-102189262D01*
G75*
G02*
X151100262Y-102461000I-271738J0D01*
G01*
X150143738Y-102461000D01*
G75*
G02*
X149872000Y-102189262I0J271738D01*
G01*
X149872000Y-101482738D01*
G75*
G02*
X150143738Y-101211000I271738J0D01*
G01*
G37*
G36*
G01*
X150143738Y-103261000D02*
X151100262Y-103261000D01*
G75*
G02*
X151372000Y-103532738I0J-271738D01*
G01*
X151372000Y-104239262D01*
G75*
G02*
X151100262Y-104511000I-271738J0D01*
G01*
X150143738Y-104511000D01*
G75*
G02*
X149872000Y-104239262I0J271738D01*
G01*
X149872000Y-103532738D01*
G75*
G02*
X150143738Y-103261000I271738J0D01*
G01*
G37*
%TD*%
%TO.C,L3*%
G36*
G01*
X147603738Y-101211000D02*
X148560262Y-101211000D01*
G75*
G02*
X148832000Y-101482738I0J-271738D01*
G01*
X148832000Y-102189262D01*
G75*
G02*
X148560262Y-102461000I-271738J0D01*
G01*
X147603738Y-102461000D01*
G75*
G02*
X147332000Y-102189262I0J271738D01*
G01*
X147332000Y-101482738D01*
G75*
G02*
X147603738Y-101211000I271738J0D01*
G01*
G37*
G36*
G01*
X147603738Y-103261000D02*
X148560262Y-103261000D01*
G75*
G02*
X148832000Y-103532738I0J-271738D01*
G01*
X148832000Y-104239262D01*
G75*
G02*
X148560262Y-104511000I-271738J0D01*
G01*
X147603738Y-104511000D01*
G75*
G02*
X147332000Y-104239262I0J271738D01*
G01*
X147332000Y-103532738D01*
G75*
G02*
X147603738Y-103261000I271738J0D01*
G01*
G37*
%TD*%
D17*
%TO.C,H1*%
X129476500Y-109283500D03*
%TD*%
%TO.C,H2*%
X145224500Y-109283500D03*
%TD*%
M02*
