%TF.GenerationSoftware,KiCad,Pcbnew,(5.1.6)-1*%
%TF.CreationDate,2024-02-11T14:18:57-05:00*%
%TF.ProjectId,GB-DMG-Headphone-PCB,47422d44-4d47-42d4-9865-616470686f6e,rev?*%
%TF.SameCoordinates,Original*%
%TF.FileFunction,Paste,Top*%
%TF.FilePolarity,Positive*%
%FSLAX46Y46*%
G04 Gerber Fmt 4.6, Leading zero omitted, Abs format (unit mm)*
G04 Created by KiCad (PCBNEW (5.1.6)-1) date 2024-02-11 14:18:57*
%MOMM*%
%LPD*%
G01*
G04 APERTURE LIST*
%ADD10R,2.900000X1.800000*%
G04 APERTURE END LIST*
D10*
%TO.C,C1*%
X158369000Y-101346000D03*
X162369000Y-101346000D03*
%TD*%
%TO.C,C2*%
X162369500Y-109791500D03*
X158369500Y-109791500D03*
%TD*%
%TO.C,L1*%
G36*
G01*
X152711999Y-103311000D02*
X153612001Y-103311000D01*
G75*
G02*
X153862000Y-103560999I0J-249999D01*
G01*
X153862000Y-104211001D01*
G75*
G02*
X153612001Y-104461000I-249999J0D01*
G01*
X152711999Y-104461000D01*
G75*
G02*
X152462000Y-104211001I0J249999D01*
G01*
X152462000Y-103560999D01*
G75*
G02*
X152711999Y-103311000I249999J0D01*
G01*
G37*
G36*
G01*
X152711999Y-101261000D02*
X153612001Y-101261000D01*
G75*
G02*
X153862000Y-101510999I0J-249999D01*
G01*
X153862000Y-102161001D01*
G75*
G02*
X153612001Y-102411000I-249999J0D01*
G01*
X152711999Y-102411000D01*
G75*
G02*
X152462000Y-102161001I0J249999D01*
G01*
X152462000Y-101510999D01*
G75*
G02*
X152711999Y-101261000I249999J0D01*
G01*
G37*
%TD*%
%TO.C,L2*%
G36*
G01*
X150171999Y-101261000D02*
X151072001Y-101261000D01*
G75*
G02*
X151322000Y-101510999I0J-249999D01*
G01*
X151322000Y-102161001D01*
G75*
G02*
X151072001Y-102411000I-249999J0D01*
G01*
X150171999Y-102411000D01*
G75*
G02*
X149922000Y-102161001I0J249999D01*
G01*
X149922000Y-101510999D01*
G75*
G02*
X150171999Y-101261000I249999J0D01*
G01*
G37*
G36*
G01*
X150171999Y-103311000D02*
X151072001Y-103311000D01*
G75*
G02*
X151322000Y-103560999I0J-249999D01*
G01*
X151322000Y-104211001D01*
G75*
G02*
X151072001Y-104461000I-249999J0D01*
G01*
X150171999Y-104461000D01*
G75*
G02*
X149922000Y-104211001I0J249999D01*
G01*
X149922000Y-103560999D01*
G75*
G02*
X150171999Y-103311000I249999J0D01*
G01*
G37*
%TD*%
%TO.C,L3*%
G36*
G01*
X147631999Y-101261000D02*
X148532001Y-101261000D01*
G75*
G02*
X148782000Y-101510999I0J-249999D01*
G01*
X148782000Y-102161001D01*
G75*
G02*
X148532001Y-102411000I-249999J0D01*
G01*
X147631999Y-102411000D01*
G75*
G02*
X147382000Y-102161001I0J249999D01*
G01*
X147382000Y-101510999D01*
G75*
G02*
X147631999Y-101261000I249999J0D01*
G01*
G37*
G36*
G01*
X147631999Y-103311000D02*
X148532001Y-103311000D01*
G75*
G02*
X148782000Y-103560999I0J-249999D01*
G01*
X148782000Y-104211001D01*
G75*
G02*
X148532001Y-104461000I-249999J0D01*
G01*
X147631999Y-104461000D01*
G75*
G02*
X147382000Y-104211001I0J249999D01*
G01*
X147382000Y-103560999D01*
G75*
G02*
X147631999Y-103311000I249999J0D01*
G01*
G37*
%TD*%
M02*
