%TF.GenerationSoftware,KiCad,Pcbnew,(5.1.6)-1*%
%TF.CreationDate,2024-02-11T14:18:58-05:00*%
%TF.ProjectId,GB-DMG-Headphone-PCB,47422d44-4d47-42d4-9865-616470686f6e,rev?*%
%TF.SameCoordinates,Original*%
%TF.FileFunction,Legend,Top*%
%TF.FilePolarity,Positive*%
%FSLAX46Y46*%
G04 Gerber Fmt 4.6, Leading zero omitted, Abs format (unit mm)*
G04 Created by KiCad (PCBNEW (5.1.6)-1) date 2024-02-11 14:18:58*
%MOMM*%
%LPD*%
G01*
G04 APERTURE LIST*
%ADD10C,0.250000*%
%ADD11C,0.125000*%
%ADD12C,0.100000*%
%ADD13C,0.150000*%
%ADD14C,0.010000*%
%ADD15C,0.200000*%
%ADD16C,0.120000*%
%ADD17C,0.127000*%
%ADD18C,0.254000*%
G04 APERTURE END LIST*
D10*
X154757380Y-111505833D02*
X153757380Y-111505833D01*
X153757380Y-111267738D01*
X153805000Y-111124880D01*
X153900238Y-111029642D01*
X153995476Y-110982023D01*
X154185952Y-110934404D01*
X154328809Y-110934404D01*
X154519285Y-110982023D01*
X154614523Y-111029642D01*
X154709761Y-111124880D01*
X154757380Y-111267738D01*
X154757380Y-111505833D01*
X154757380Y-110505833D02*
X153757380Y-110505833D01*
X154471666Y-110172500D01*
X153757380Y-109839166D01*
X154757380Y-109839166D01*
X153805000Y-108839166D02*
X153757380Y-108934404D01*
X153757380Y-109077261D01*
X153805000Y-109220119D01*
X153900238Y-109315357D01*
X153995476Y-109362976D01*
X154185952Y-109410595D01*
X154328809Y-109410595D01*
X154519285Y-109362976D01*
X154614523Y-109315357D01*
X154709761Y-109220119D01*
X154757380Y-109077261D01*
X154757380Y-108982023D01*
X154709761Y-108839166D01*
X154662142Y-108791547D01*
X154328809Y-108791547D01*
X154328809Y-108982023D01*
D11*
X144087642Y-101951285D02*
X144266214Y-102701285D01*
X144409071Y-102165571D01*
X144551928Y-102701285D01*
X144730500Y-101951285D01*
X145016214Y-102701285D02*
X145016214Y-101951285D01*
X145016214Y-102308428D02*
X145444785Y-102308428D01*
X145444785Y-102701285D02*
X145444785Y-101951285D01*
X145801928Y-102701285D02*
X145801928Y-101951285D01*
X146051928Y-101951285D02*
X146480500Y-101951285D01*
X146266214Y-102701285D02*
X146266214Y-101951285D01*
X146730500Y-102308428D02*
X146980500Y-102308428D01*
X147087642Y-102701285D02*
X146730500Y-102701285D01*
X146730500Y-101951285D01*
X147087642Y-101951285D01*
D12*
G36*
X146621500Y-101727000D02*
G01*
X144526000Y-101727000D01*
X145542000Y-100711000D01*
X146621500Y-101727000D01*
G37*
X146621500Y-101727000D02*
X144526000Y-101727000D01*
X145542000Y-100711000D01*
X146621500Y-101727000D01*
D13*
X132731452Y-101750880D02*
X132731452Y-102465166D01*
X132683833Y-102608023D01*
X132588595Y-102703261D01*
X132445738Y-102750880D01*
X132350500Y-102750880D01*
X133683833Y-102750880D02*
X133207642Y-102750880D01*
X133207642Y-101750880D01*
X134588595Y-102655642D02*
X134540976Y-102703261D01*
X134398119Y-102750880D01*
X134302880Y-102750880D01*
X134160023Y-102703261D01*
X134064785Y-102608023D01*
X134017166Y-102512785D01*
X133969547Y-102322309D01*
X133969547Y-102179452D01*
X134017166Y-101988976D01*
X134064785Y-101893738D01*
X134160023Y-101798500D01*
X134302880Y-101750880D01*
X134398119Y-101750880D01*
X134540976Y-101798500D01*
X134588595Y-101846119D01*
X135302880Y-101750880D02*
X135302880Y-102465166D01*
X135255261Y-102608023D01*
X135160023Y-102703261D01*
X135017166Y-102750880D01*
X134921928Y-102750880D01*
X136255261Y-102750880D02*
X135779071Y-102750880D01*
X135779071Y-101750880D01*
X137160023Y-102655642D02*
X137112404Y-102703261D01*
X136969547Y-102750880D01*
X136874309Y-102750880D01*
X136731452Y-102703261D01*
X136636214Y-102608023D01*
X136588595Y-102512785D01*
X136540976Y-102322309D01*
X136540976Y-102179452D01*
X136588595Y-101988976D01*
X136636214Y-101893738D01*
X136731452Y-101798500D01*
X136874309Y-101750880D01*
X136969547Y-101750880D01*
X137112404Y-101798500D01*
X137160023Y-101846119D01*
X137874309Y-101750880D02*
X137874309Y-102465166D01*
X137826690Y-102608023D01*
X137731452Y-102703261D01*
X137588595Y-102750880D01*
X137493357Y-102750880D01*
X138826690Y-102750880D02*
X138350500Y-102750880D01*
X138350500Y-101750880D01*
X139731452Y-102655642D02*
X139683833Y-102703261D01*
X139540976Y-102750880D01*
X139445738Y-102750880D01*
X139302880Y-102703261D01*
X139207642Y-102608023D01*
X139160023Y-102512785D01*
X139112404Y-102322309D01*
X139112404Y-102179452D01*
X139160023Y-101988976D01*
X139207642Y-101893738D01*
X139302880Y-101798500D01*
X139445738Y-101750880D01*
X139540976Y-101750880D01*
X139683833Y-101798500D01*
X139731452Y-101846119D01*
X140445738Y-101750880D02*
X140445738Y-102465166D01*
X140398119Y-102608023D01*
X140302880Y-102703261D01*
X140160023Y-102750880D01*
X140064785Y-102750880D01*
X141398119Y-102750880D02*
X140921928Y-102750880D01*
X140921928Y-101750880D01*
X142302880Y-102655642D02*
X142255261Y-102703261D01*
X142112404Y-102750880D01*
X142017166Y-102750880D01*
X141874309Y-102703261D01*
X141779071Y-102608023D01*
X141731452Y-102512785D01*
X141683833Y-102322309D01*
X141683833Y-102179452D01*
X141731452Y-101988976D01*
X141779071Y-101893738D01*
X141874309Y-101798500D01*
X142017166Y-101750880D01*
X142112404Y-101750880D01*
X142255261Y-101798500D01*
X142302880Y-101846119D01*
D14*
%TO.C,G\u002A\u002A\u002A*%
G36*
X151609851Y-107496943D02*
G01*
X151813894Y-107497163D01*
X151991709Y-107497690D01*
X152145208Y-107498631D01*
X152276299Y-107500096D01*
X152386894Y-107502193D01*
X152478901Y-107505031D01*
X152554230Y-107508719D01*
X152614792Y-107513366D01*
X152662496Y-107519080D01*
X152699253Y-107525969D01*
X152726971Y-107534144D01*
X152747562Y-107543711D01*
X152762934Y-107554781D01*
X152774998Y-107567462D01*
X152785664Y-107581862D01*
X152796841Y-107598091D01*
X152805524Y-107609985D01*
X152852967Y-107672173D01*
X152857938Y-108765703D01*
X152858842Y-109031101D01*
X152858983Y-109263002D01*
X152858357Y-109461771D01*
X152856961Y-109627770D01*
X152854790Y-109761362D01*
X152851840Y-109862909D01*
X152848107Y-109932773D01*
X152844353Y-109967303D01*
X152803197Y-110111903D01*
X152733332Y-110245070D01*
X152638720Y-110361018D01*
X152523325Y-110453960D01*
X152502090Y-110466960D01*
X152475671Y-110482213D01*
X152450142Y-110495728D01*
X152423396Y-110507610D01*
X152393323Y-110517960D01*
X152357814Y-110526883D01*
X152314761Y-110534483D01*
X152262054Y-110540861D01*
X152197585Y-110546122D01*
X152119244Y-110550370D01*
X152024924Y-110553706D01*
X151912514Y-110556236D01*
X151779907Y-110558062D01*
X151624992Y-110559287D01*
X151445661Y-110560015D01*
X151239806Y-110560349D01*
X151005317Y-110560393D01*
X150740086Y-110560250D01*
X150600833Y-110560145D01*
X150361092Y-110559798D01*
X150132640Y-110559152D01*
X149917732Y-110558228D01*
X149718618Y-110557050D01*
X149537552Y-110555641D01*
X149376785Y-110554023D01*
X149238569Y-110552219D01*
X149125158Y-110550251D01*
X149038803Y-110548143D01*
X148981757Y-110545917D01*
X148956271Y-110543597D01*
X148956068Y-110543540D01*
X148894873Y-110511040D01*
X148837910Y-110455634D01*
X148794005Y-110387971D01*
X148772422Y-110321985D01*
X148770794Y-110293511D01*
X148769375Y-110233970D01*
X148768177Y-110146164D01*
X148767209Y-110032890D01*
X148766485Y-109896950D01*
X148766014Y-109741144D01*
X148765809Y-109568270D01*
X148765879Y-109381129D01*
X148766238Y-109182521D01*
X148766895Y-108975246D01*
X148766953Y-108960439D01*
X148768516Y-108563833D01*
X149017567Y-108563833D01*
X149029975Y-108615633D01*
X149065149Y-108644063D01*
X149093767Y-108648500D01*
X149132626Y-108639330D01*
X149149647Y-108628180D01*
X149165294Y-108596516D01*
X149169967Y-108563833D01*
X149157558Y-108512033D01*
X149122384Y-108483603D01*
X149093767Y-108479167D01*
X149047146Y-108492954D01*
X149021560Y-108532036D01*
X149017567Y-108563833D01*
X148768516Y-108563833D01*
X148771313Y-107854554D01*
X149542500Y-107854554D01*
X149542500Y-109035540D01*
X149542642Y-109278302D01*
X149543088Y-109488987D01*
X149543869Y-109669381D01*
X149545015Y-109821274D01*
X149546555Y-109946453D01*
X149548521Y-110046705D01*
X149550943Y-110123819D01*
X149553850Y-110179583D01*
X149557273Y-110215784D01*
X149561242Y-110234210D01*
X149562820Y-110236847D01*
X149583474Y-110240908D01*
X149634715Y-110244556D01*
X149713267Y-110247792D01*
X149815852Y-110250614D01*
X149939194Y-110253024D01*
X150080017Y-110255021D01*
X150235042Y-110256604D01*
X150400994Y-110257775D01*
X150574596Y-110258532D01*
X150752570Y-110258877D01*
X150931640Y-110258808D01*
X151108529Y-110258327D01*
X151279961Y-110257433D01*
X151442658Y-110256125D01*
X151593343Y-110254405D01*
X151728741Y-110252272D01*
X151845573Y-110249726D01*
X151940564Y-110246766D01*
X152010436Y-110243394D01*
X152051913Y-110239609D01*
X152062180Y-110236847D01*
X152066354Y-110224416D01*
X152069972Y-110194858D01*
X152073062Y-110146384D01*
X152075656Y-110077208D01*
X152077783Y-109985541D01*
X152079474Y-109869595D01*
X152080759Y-109727583D01*
X152081669Y-109557716D01*
X152082233Y-109358206D01*
X152082482Y-109127266D01*
X152082500Y-109035540D01*
X152082500Y-107854554D01*
X152044865Y-107828193D01*
X152034538Y-107823062D01*
X152017694Y-107818632D01*
X151991994Y-107814853D01*
X151955098Y-107811674D01*
X151904665Y-107809046D01*
X151838357Y-107806918D01*
X151753832Y-107805242D01*
X151648750Y-107803965D01*
X151520773Y-107803039D01*
X151367559Y-107802414D01*
X151186768Y-107802038D01*
X150976061Y-107801863D01*
X150812500Y-107801833D01*
X150579851Y-107801899D01*
X150378728Y-107802131D01*
X150206792Y-107802579D01*
X150061702Y-107803293D01*
X149941119Y-107804323D01*
X149842702Y-107805719D01*
X149764111Y-107807531D01*
X149703007Y-107809810D01*
X149657048Y-107812604D01*
X149623896Y-107815965D01*
X149601210Y-107819942D01*
X149586650Y-107824586D01*
X149580134Y-107828193D01*
X149542500Y-107854554D01*
X148771313Y-107854554D01*
X148772033Y-107672179D01*
X148820832Y-107608209D01*
X148833297Y-107591059D01*
X148844326Y-107575764D01*
X148855823Y-107562218D01*
X148869692Y-107550315D01*
X148887838Y-107539950D01*
X148912163Y-107531016D01*
X148944571Y-107523409D01*
X148986968Y-107517021D01*
X149041256Y-107511748D01*
X149109340Y-107507483D01*
X149193123Y-107504121D01*
X149294509Y-107501555D01*
X149415403Y-107499681D01*
X149557708Y-107498392D01*
X149723327Y-107497582D01*
X149914166Y-107497146D01*
X150132128Y-107496977D01*
X150379116Y-107496971D01*
X150657035Y-107497020D01*
X150821264Y-107497033D01*
X151115446Y-107496987D01*
X151377672Y-107496921D01*
X151609851Y-107496943D01*
G37*
X151609851Y-107496943D02*
X151813894Y-107497163D01*
X151991709Y-107497690D01*
X152145208Y-107498631D01*
X152276299Y-107500096D01*
X152386894Y-107502193D01*
X152478901Y-107505031D01*
X152554230Y-107508719D01*
X152614792Y-107513366D01*
X152662496Y-107519080D01*
X152699253Y-107525969D01*
X152726971Y-107534144D01*
X152747562Y-107543711D01*
X152762934Y-107554781D01*
X152774998Y-107567462D01*
X152785664Y-107581862D01*
X152796841Y-107598091D01*
X152805524Y-107609985D01*
X152852967Y-107672173D01*
X152857938Y-108765703D01*
X152858842Y-109031101D01*
X152858983Y-109263002D01*
X152858357Y-109461771D01*
X152856961Y-109627770D01*
X152854790Y-109761362D01*
X152851840Y-109862909D01*
X152848107Y-109932773D01*
X152844353Y-109967303D01*
X152803197Y-110111903D01*
X152733332Y-110245070D01*
X152638720Y-110361018D01*
X152523325Y-110453960D01*
X152502090Y-110466960D01*
X152475671Y-110482213D01*
X152450142Y-110495728D01*
X152423396Y-110507610D01*
X152393323Y-110517960D01*
X152357814Y-110526883D01*
X152314761Y-110534483D01*
X152262054Y-110540861D01*
X152197585Y-110546122D01*
X152119244Y-110550370D01*
X152024924Y-110553706D01*
X151912514Y-110556236D01*
X151779907Y-110558062D01*
X151624992Y-110559287D01*
X151445661Y-110560015D01*
X151239806Y-110560349D01*
X151005317Y-110560393D01*
X150740086Y-110560250D01*
X150600833Y-110560145D01*
X150361092Y-110559798D01*
X150132640Y-110559152D01*
X149917732Y-110558228D01*
X149718618Y-110557050D01*
X149537552Y-110555641D01*
X149376785Y-110554023D01*
X149238569Y-110552219D01*
X149125158Y-110550251D01*
X149038803Y-110548143D01*
X148981757Y-110545917D01*
X148956271Y-110543597D01*
X148956068Y-110543540D01*
X148894873Y-110511040D01*
X148837910Y-110455634D01*
X148794005Y-110387971D01*
X148772422Y-110321985D01*
X148770794Y-110293511D01*
X148769375Y-110233970D01*
X148768177Y-110146164D01*
X148767209Y-110032890D01*
X148766485Y-109896950D01*
X148766014Y-109741144D01*
X148765809Y-109568270D01*
X148765879Y-109381129D01*
X148766238Y-109182521D01*
X148766895Y-108975246D01*
X148766953Y-108960439D01*
X148768516Y-108563833D01*
X149017567Y-108563833D01*
X149029975Y-108615633D01*
X149065149Y-108644063D01*
X149093767Y-108648500D01*
X149132626Y-108639330D01*
X149149647Y-108628180D01*
X149165294Y-108596516D01*
X149169967Y-108563833D01*
X149157558Y-108512033D01*
X149122384Y-108483603D01*
X149093767Y-108479167D01*
X149047146Y-108492954D01*
X149021560Y-108532036D01*
X149017567Y-108563833D01*
X148768516Y-108563833D01*
X148771313Y-107854554D01*
X149542500Y-107854554D01*
X149542500Y-109035540D01*
X149542642Y-109278302D01*
X149543088Y-109488987D01*
X149543869Y-109669381D01*
X149545015Y-109821274D01*
X149546555Y-109946453D01*
X149548521Y-110046705D01*
X149550943Y-110123819D01*
X149553850Y-110179583D01*
X149557273Y-110215784D01*
X149561242Y-110234210D01*
X149562820Y-110236847D01*
X149583474Y-110240908D01*
X149634715Y-110244556D01*
X149713267Y-110247792D01*
X149815852Y-110250614D01*
X149939194Y-110253024D01*
X150080017Y-110255021D01*
X150235042Y-110256604D01*
X150400994Y-110257775D01*
X150574596Y-110258532D01*
X150752570Y-110258877D01*
X150931640Y-110258808D01*
X151108529Y-110258327D01*
X151279961Y-110257433D01*
X151442658Y-110256125D01*
X151593343Y-110254405D01*
X151728741Y-110252272D01*
X151845573Y-110249726D01*
X151940564Y-110246766D01*
X152010436Y-110243394D01*
X152051913Y-110239609D01*
X152062180Y-110236847D01*
X152066354Y-110224416D01*
X152069972Y-110194858D01*
X152073062Y-110146384D01*
X152075656Y-110077208D01*
X152077783Y-109985541D01*
X152079474Y-109869595D01*
X152080759Y-109727583D01*
X152081669Y-109557716D01*
X152082233Y-109358206D01*
X152082482Y-109127266D01*
X152082500Y-109035540D01*
X152082500Y-107854554D01*
X152044865Y-107828193D01*
X152034538Y-107823062D01*
X152017694Y-107818632D01*
X151991994Y-107814853D01*
X151955098Y-107811674D01*
X151904665Y-107809046D01*
X151838357Y-107806918D01*
X151753832Y-107805242D01*
X151648750Y-107803965D01*
X151520773Y-107803039D01*
X151367559Y-107802414D01*
X151186768Y-107802038D01*
X150976061Y-107801863D01*
X150812500Y-107801833D01*
X150579851Y-107801899D01*
X150378728Y-107802131D01*
X150206792Y-107802579D01*
X150061702Y-107803293D01*
X149941119Y-107804323D01*
X149842702Y-107805719D01*
X149764111Y-107807531D01*
X149703007Y-107809810D01*
X149657048Y-107812604D01*
X149623896Y-107815965D01*
X149601210Y-107819942D01*
X149586650Y-107824586D01*
X149580134Y-107828193D01*
X149542500Y-107854554D01*
X148771313Y-107854554D01*
X148772033Y-107672179D01*
X148820832Y-107608209D01*
X148833297Y-107591059D01*
X148844326Y-107575764D01*
X148855823Y-107562218D01*
X148869692Y-107550315D01*
X148887838Y-107539950D01*
X148912163Y-107531016D01*
X148944571Y-107523409D01*
X148986968Y-107517021D01*
X149041256Y-107511748D01*
X149109340Y-107507483D01*
X149193123Y-107504121D01*
X149294509Y-107501555D01*
X149415403Y-107499681D01*
X149557708Y-107498392D01*
X149723327Y-107497582D01*
X149914166Y-107497146D01*
X150132128Y-107496977D01*
X150379116Y-107496971D01*
X150657035Y-107497020D01*
X150821264Y-107497033D01*
X151115446Y-107496987D01*
X151377672Y-107496921D01*
X151609851Y-107496943D01*
G36*
X152507174Y-111078011D02*
G01*
X152582858Y-111119093D01*
X152644227Y-111185547D01*
X152654645Y-111202669D01*
X152685757Y-111288736D01*
X152686487Y-111374775D01*
X152659831Y-111455036D01*
X152608787Y-111523764D01*
X152536351Y-111575207D01*
X152445785Y-111603573D01*
X152388275Y-111605087D01*
X152331103Y-111587965D01*
X152303624Y-111574692D01*
X152229813Y-111527116D01*
X152184573Y-111472019D01*
X152162769Y-111400924D01*
X152158700Y-111335425D01*
X152162137Y-111266117D01*
X152174679Y-111216631D01*
X152198135Y-111175544D01*
X152262656Y-111111069D01*
X152340231Y-111073592D01*
X152424018Y-111062708D01*
X152507174Y-111078011D01*
G37*
X152507174Y-111078011D02*
X152582858Y-111119093D01*
X152644227Y-111185547D01*
X152654645Y-111202669D01*
X152685757Y-111288736D01*
X152686487Y-111374775D01*
X152659831Y-111455036D01*
X152608787Y-111523764D01*
X152536351Y-111575207D01*
X152445785Y-111603573D01*
X152388275Y-111605087D01*
X152331103Y-111587965D01*
X152303624Y-111574692D01*
X152229813Y-111527116D01*
X152184573Y-111472019D01*
X152162769Y-111400924D01*
X152158700Y-111335425D01*
X152162137Y-111266117D01*
X152174679Y-111216631D01*
X152198135Y-111175544D01*
X152262656Y-111111069D01*
X152340231Y-111073592D01*
X152424018Y-111062708D01*
X152507174Y-111078011D01*
G36*
X151850081Y-111439066D02*
G01*
X151850088Y-111439069D01*
X151925690Y-111488549D01*
X151978425Y-111555714D01*
X152007610Y-111633848D01*
X152012563Y-111716238D01*
X151992601Y-111796168D01*
X151947041Y-111866925D01*
X151897820Y-111908539D01*
X151818832Y-111945779D01*
X151737256Y-111959854D01*
X151674636Y-111951778D01*
X151589486Y-111909618D01*
X151525232Y-111841880D01*
X151509970Y-111817112D01*
X151478811Y-111732276D01*
X151477026Y-111648926D01*
X151500451Y-111571687D01*
X151544925Y-111505186D01*
X151606286Y-111454048D01*
X151680374Y-111422898D01*
X151763026Y-111416362D01*
X151850081Y-111439066D01*
G37*
X151850081Y-111439066D02*
X151850088Y-111439069D01*
X151925690Y-111488549D01*
X151978425Y-111555714D01*
X152007610Y-111633848D01*
X152012563Y-111716238D01*
X151992601Y-111796168D01*
X151947041Y-111866925D01*
X151897820Y-111908539D01*
X151818832Y-111945779D01*
X151737256Y-111959854D01*
X151674636Y-111951778D01*
X151589486Y-111909618D01*
X151525232Y-111841880D01*
X151509970Y-111817112D01*
X151478811Y-111732276D01*
X151477026Y-111648926D01*
X151500451Y-111571687D01*
X151544925Y-111505186D01*
X151606286Y-111454048D01*
X151680374Y-111422898D01*
X151763026Y-111416362D01*
X151850081Y-111439066D01*
G36*
X149609451Y-110920131D02*
G01*
X149664945Y-110927349D01*
X149691513Y-110937886D01*
X149702156Y-110967005D01*
X149708952Y-111028391D01*
X149711762Y-111120647D01*
X149711833Y-111141086D01*
X149711833Y-111323967D01*
X149895475Y-111323967D01*
X149989814Y-111325181D01*
X150055484Y-111331551D01*
X150097667Y-111347167D01*
X150121542Y-111376117D01*
X150132293Y-111422494D01*
X150135099Y-111490385D01*
X150135166Y-111513175D01*
X150133553Y-111584973D01*
X150125282Y-111635085D01*
X150105207Y-111667399D01*
X150068182Y-111685804D01*
X150009062Y-111694188D01*
X149922700Y-111696439D01*
X149892533Y-111696500D01*
X149711833Y-111696500D01*
X149711833Y-111879380D01*
X149709780Y-111977220D01*
X149703715Y-112044450D01*
X149693776Y-112079672D01*
X149691513Y-112082580D01*
X149662866Y-112093563D01*
X149606142Y-112100572D01*
X149531242Y-112102900D01*
X149460568Y-112101887D01*
X149416177Y-112097803D01*
X149390519Y-112089076D01*
X149376044Y-112074137D01*
X149373762Y-112070146D01*
X149366279Y-112039751D01*
X149360388Y-111984590D01*
X149356875Y-111913754D01*
X149356233Y-111866946D01*
X149356233Y-111696500D01*
X149178433Y-111696500D01*
X149082590Y-111694803D01*
X149015477Y-111687149D01*
X148972024Y-111669691D01*
X148947161Y-111638582D01*
X148935816Y-111589975D01*
X148932920Y-111520025D01*
X148932900Y-111510233D01*
X148935136Y-111437525D01*
X148945226Y-111386611D01*
X148968239Y-111353647D01*
X149009246Y-111334785D01*
X149073318Y-111326179D01*
X149165525Y-111323982D01*
X149178433Y-111323967D01*
X149356233Y-111323967D01*
X149356233Y-111153520D01*
X149357040Y-111060091D01*
X149362051Y-110995291D01*
X149375149Y-110953883D01*
X149400219Y-110930631D01*
X149441144Y-110920298D01*
X149501808Y-110917648D01*
X149531242Y-110917567D01*
X149609451Y-110920131D01*
G37*
X149609451Y-110920131D02*
X149664945Y-110927349D01*
X149691513Y-110937886D01*
X149702156Y-110967005D01*
X149708952Y-111028391D01*
X149711762Y-111120647D01*
X149711833Y-111141086D01*
X149711833Y-111323967D01*
X149895475Y-111323967D01*
X149989814Y-111325181D01*
X150055484Y-111331551D01*
X150097667Y-111347167D01*
X150121542Y-111376117D01*
X150132293Y-111422494D01*
X150135099Y-111490385D01*
X150135166Y-111513175D01*
X150133553Y-111584973D01*
X150125282Y-111635085D01*
X150105207Y-111667399D01*
X150068182Y-111685804D01*
X150009062Y-111694188D01*
X149922700Y-111696439D01*
X149892533Y-111696500D01*
X149711833Y-111696500D01*
X149711833Y-111879380D01*
X149709780Y-111977220D01*
X149703715Y-112044450D01*
X149693776Y-112079672D01*
X149691513Y-112082580D01*
X149662866Y-112093563D01*
X149606142Y-112100572D01*
X149531242Y-112102900D01*
X149460568Y-112101887D01*
X149416177Y-112097803D01*
X149390519Y-112089076D01*
X149376044Y-112074137D01*
X149373762Y-112070146D01*
X149366279Y-112039751D01*
X149360388Y-111984590D01*
X149356875Y-111913754D01*
X149356233Y-111866946D01*
X149356233Y-111696500D01*
X149178433Y-111696500D01*
X149082590Y-111694803D01*
X149015477Y-111687149D01*
X148972024Y-111669691D01*
X148947161Y-111638582D01*
X148935816Y-111589975D01*
X148932920Y-111520025D01*
X148932900Y-111510233D01*
X148935136Y-111437525D01*
X148945226Y-111386611D01*
X148968239Y-111353647D01*
X149009246Y-111334785D01*
X149073318Y-111326179D01*
X149165525Y-111323982D01*
X149178433Y-111323967D01*
X149356233Y-111323967D01*
X149356233Y-111153520D01*
X149357040Y-111060091D01*
X149362051Y-110995291D01*
X149375149Y-110953883D01*
X149400219Y-110930631D01*
X149441144Y-110920298D01*
X149501808Y-110917648D01*
X149531242Y-110917567D01*
X149609451Y-110920131D01*
G36*
X150653044Y-112448874D02*
G01*
X150693881Y-112474533D01*
X150715099Y-112518851D01*
X150711249Y-112567869D01*
X150694236Y-112584474D01*
X150654011Y-112613755D01*
X150596906Y-112651835D01*
X150529253Y-112694836D01*
X150457385Y-112738881D01*
X150387635Y-112780092D01*
X150326334Y-112814591D01*
X150279817Y-112838501D01*
X150254414Y-112847944D01*
X150253815Y-112847966D01*
X150234404Y-112839259D01*
X150205716Y-112820940D01*
X150176751Y-112788192D01*
X150172315Y-112741490D01*
X150176664Y-112719674D01*
X150188000Y-112699580D01*
X150210846Y-112677581D01*
X150249724Y-112650051D01*
X150309155Y-112613363D01*
X150393662Y-112563891D01*
X150394078Y-112563651D01*
X150484898Y-112512148D01*
X150551895Y-112477035D01*
X150599661Y-112456277D01*
X150632789Y-112447838D01*
X150653044Y-112448874D01*
G37*
X150653044Y-112448874D02*
X150693881Y-112474533D01*
X150715099Y-112518851D01*
X150711249Y-112567869D01*
X150694236Y-112584474D01*
X150654011Y-112613755D01*
X150596906Y-112651835D01*
X150529253Y-112694836D01*
X150457385Y-112738881D01*
X150387635Y-112780092D01*
X150326334Y-112814591D01*
X150279817Y-112838501D01*
X150254414Y-112847944D01*
X150253815Y-112847966D01*
X150234404Y-112839259D01*
X150205716Y-112820940D01*
X150176751Y-112788192D01*
X150172315Y-112741490D01*
X150176664Y-112719674D01*
X150188000Y-112699580D01*
X150210846Y-112677581D01*
X150249724Y-112650051D01*
X150309155Y-112613363D01*
X150393662Y-112563891D01*
X150394078Y-112563651D01*
X150484898Y-112512148D01*
X150551895Y-112477035D01*
X150599661Y-112456277D01*
X150632789Y-112447838D01*
X150653044Y-112448874D01*
G36*
X151412231Y-112473056D02*
G01*
X151441065Y-112509091D01*
X151453957Y-112555494D01*
X151445453Y-112600703D01*
X151442340Y-112606129D01*
X151423114Y-112621900D01*
X151380659Y-112649671D01*
X151321568Y-112685689D01*
X151252436Y-112726202D01*
X151179855Y-112767456D01*
X151110421Y-112805698D01*
X151050726Y-112837174D01*
X151007366Y-112858132D01*
X150987711Y-112864900D01*
X150963984Y-112852684D01*
X150934511Y-112823124D01*
X150933208Y-112821485D01*
X150913356Y-112789891D01*
X150908966Y-112760689D01*
X150922821Y-112730590D01*
X150957703Y-112696306D01*
X151016397Y-112654550D01*
X151101687Y-112602034D01*
X151136150Y-112581778D01*
X151213263Y-112537813D01*
X151281551Y-112500788D01*
X151334987Y-112473831D01*
X151367539Y-112460070D01*
X151372909Y-112458950D01*
X151412231Y-112473056D01*
G37*
X151412231Y-112473056D02*
X151441065Y-112509091D01*
X151453957Y-112555494D01*
X151445453Y-112600703D01*
X151442340Y-112606129D01*
X151423114Y-112621900D01*
X151380659Y-112649671D01*
X151321568Y-112685689D01*
X151252436Y-112726202D01*
X151179855Y-112767456D01*
X151110421Y-112805698D01*
X151050726Y-112837174D01*
X151007366Y-112858132D01*
X150987711Y-112864900D01*
X150963984Y-112852684D01*
X150934511Y-112823124D01*
X150933208Y-112821485D01*
X150913356Y-112789891D01*
X150908966Y-112760689D01*
X150922821Y-112730590D01*
X150957703Y-112696306D01*
X151016397Y-112654550D01*
X151101687Y-112602034D01*
X151136150Y-112581778D01*
X151213263Y-112537813D01*
X151281551Y-112500788D01*
X151334987Y-112473831D01*
X151367539Y-112460070D01*
X151372909Y-112458950D01*
X151412231Y-112473056D01*
G36*
X152595442Y-112345740D02*
G01*
X152610798Y-112357023D01*
X152630366Y-112379349D01*
X152656568Y-112415979D01*
X152691827Y-112470174D01*
X152738564Y-112545196D01*
X152799200Y-112644306D01*
X152835426Y-112703812D01*
X152897334Y-112806957D01*
X152941764Y-112885331D01*
X152969807Y-112942487D01*
X152982553Y-112981978D01*
X152981092Y-113007355D01*
X152966515Y-113022170D01*
X152939912Y-113029976D01*
X152935754Y-113030642D01*
X152921125Y-113026497D01*
X152900841Y-113008274D01*
X152872724Y-112972968D01*
X152834595Y-112917575D01*
X152784275Y-112839089D01*
X152719585Y-112734507D01*
X152711833Y-112721829D01*
X152655698Y-112628200D01*
X152606584Y-112542934D01*
X152567003Y-112470674D01*
X152539466Y-112416059D01*
X152526487Y-112383732D01*
X152525889Y-112378286D01*
X152545283Y-112352098D01*
X152567684Y-112343261D01*
X152581879Y-112342240D01*
X152595442Y-112345740D01*
G37*
X152595442Y-112345740D02*
X152610798Y-112357023D01*
X152630366Y-112379349D01*
X152656568Y-112415979D01*
X152691827Y-112470174D01*
X152738564Y-112545196D01*
X152799200Y-112644306D01*
X152835426Y-112703812D01*
X152897334Y-112806957D01*
X152941764Y-112885331D01*
X152969807Y-112942487D01*
X152982553Y-112981978D01*
X152981092Y-113007355D01*
X152966515Y-113022170D01*
X152939912Y-113029976D01*
X152935754Y-113030642D01*
X152921125Y-113026497D01*
X152900841Y-113008274D01*
X152872724Y-112972968D01*
X152834595Y-112917575D01*
X152784275Y-112839089D01*
X152719585Y-112734507D01*
X152711833Y-112721829D01*
X152655698Y-112628200D01*
X152606584Y-112542934D01*
X152567003Y-112470674D01*
X152539466Y-112416059D01*
X152526487Y-112383732D01*
X152525889Y-112378286D01*
X152545283Y-112352098D01*
X152567684Y-112343261D01*
X152581879Y-112342240D01*
X152595442Y-112345740D01*
G36*
X152350173Y-112504840D02*
G01*
X152369154Y-112519159D01*
X152393600Y-112547239D01*
X152426075Y-112592531D01*
X152469142Y-112658482D01*
X152525364Y-112748543D01*
X152559314Y-112803863D01*
X152624254Y-112912198D01*
X152676201Y-113003304D01*
X152713630Y-113074314D01*
X152735015Y-113122361D01*
X152739522Y-113142529D01*
X152722358Y-113174166D01*
X152690573Y-113183223D01*
X152655445Y-113168939D01*
X152637801Y-113149383D01*
X152621021Y-113122784D01*
X152589937Y-113072670D01*
X152547877Y-113004440D01*
X152498171Y-112923492D01*
X152448116Y-112841722D01*
X152382713Y-112732658D01*
X152335617Y-112648546D01*
X152305860Y-112586492D01*
X152292474Y-112543603D01*
X152294490Y-112516984D01*
X152310941Y-112503742D01*
X152334093Y-112500833D01*
X152350173Y-112504840D01*
G37*
X152350173Y-112504840D02*
X152369154Y-112519159D01*
X152393600Y-112547239D01*
X152426075Y-112592531D01*
X152469142Y-112658482D01*
X152525364Y-112748543D01*
X152559314Y-112803863D01*
X152624254Y-112912198D01*
X152676201Y-113003304D01*
X152713630Y-113074314D01*
X152735015Y-113122361D01*
X152739522Y-113142529D01*
X152722358Y-113174166D01*
X152690573Y-113183223D01*
X152655445Y-113168939D01*
X152637801Y-113149383D01*
X152621021Y-113122784D01*
X152589937Y-113072670D01*
X152547877Y-113004440D01*
X152498171Y-112923492D01*
X152448116Y-112841722D01*
X152382713Y-112732658D01*
X152335617Y-112648546D01*
X152305860Y-112586492D01*
X152292474Y-112543603D01*
X152294490Y-112516984D01*
X152310941Y-112503742D01*
X152334093Y-112500833D01*
X152350173Y-112504840D01*
G36*
X152098083Y-112648983D02*
G01*
X152114307Y-112657125D01*
X152134024Y-112676171D01*
X152159855Y-112709592D01*
X152194419Y-112760858D01*
X152240338Y-112833442D01*
X152300232Y-112930813D01*
X152317957Y-112959864D01*
X152383930Y-113069178D01*
X152433053Y-113153352D01*
X152466978Y-113215609D01*
X152487354Y-113259175D01*
X152495834Y-113287275D01*
X152494068Y-113303135D01*
X152493853Y-113303489D01*
X152462320Y-113331942D01*
X152426514Y-113327741D01*
X152391308Y-113293363D01*
X152353247Y-113236846D01*
X152307721Y-113165346D01*
X152257773Y-113084100D01*
X152206450Y-112998345D01*
X152156796Y-112913318D01*
X152111856Y-112834256D01*
X152074674Y-112766394D01*
X152048296Y-112714970D01*
X152035766Y-112685220D01*
X152035209Y-112680930D01*
X152054115Y-112658110D01*
X152082734Y-112648275D01*
X152098083Y-112648983D01*
G37*
X152098083Y-112648983D02*
X152114307Y-112657125D01*
X152134024Y-112676171D01*
X152159855Y-112709592D01*
X152194419Y-112760858D01*
X152240338Y-112833442D01*
X152300232Y-112930813D01*
X152317957Y-112959864D01*
X152383930Y-113069178D01*
X152433053Y-113153352D01*
X152466978Y-113215609D01*
X152487354Y-113259175D01*
X152495834Y-113287275D01*
X152494068Y-113303135D01*
X152493853Y-113303489D01*
X152462320Y-113331942D01*
X152426514Y-113327741D01*
X152391308Y-113293363D01*
X152353247Y-113236846D01*
X152307721Y-113165346D01*
X152257773Y-113084100D01*
X152206450Y-112998345D01*
X152156796Y-112913318D01*
X152111856Y-112834256D01*
X152074674Y-112766394D01*
X152048296Y-112714970D01*
X152035766Y-112685220D01*
X152035209Y-112680930D01*
X152054115Y-112658110D01*
X152082734Y-112648275D01*
X152098083Y-112648983D01*
G36*
X151871831Y-112798001D02*
G01*
X151872388Y-112798457D01*
X151891246Y-112821377D01*
X151922832Y-112867573D01*
X151963939Y-112931641D01*
X152011356Y-113008175D01*
X152061874Y-113091772D01*
X152112284Y-113177027D01*
X152159376Y-113258535D01*
X152199941Y-113330891D01*
X152230769Y-113388692D01*
X152248652Y-113426532D01*
X152251833Y-113437445D01*
X152239863Y-113469853D01*
X152225048Y-113481155D01*
X152200321Y-113489837D01*
X152186294Y-113486574D01*
X152174204Y-113478474D01*
X152156570Y-113457925D01*
X152125945Y-113413538D01*
X152085541Y-113350733D01*
X152038568Y-113274932D01*
X151988239Y-113191557D01*
X151937764Y-113106029D01*
X151890353Y-113023770D01*
X151849219Y-112950202D01*
X151817573Y-112890746D01*
X151798626Y-112850823D01*
X151794633Y-112837619D01*
X151807448Y-112802406D01*
X151837417Y-112787066D01*
X151871831Y-112798001D01*
G37*
X151871831Y-112798001D02*
X151872388Y-112798457D01*
X151891246Y-112821377D01*
X151922832Y-112867573D01*
X151963939Y-112931641D01*
X152011356Y-113008175D01*
X152061874Y-113091772D01*
X152112284Y-113177027D01*
X152159376Y-113258535D01*
X152199941Y-113330891D01*
X152230769Y-113388692D01*
X152248652Y-113426532D01*
X152251833Y-113437445D01*
X152239863Y-113469853D01*
X152225048Y-113481155D01*
X152200321Y-113489837D01*
X152186294Y-113486574D01*
X152174204Y-113478474D01*
X152156570Y-113457925D01*
X152125945Y-113413538D01*
X152085541Y-113350733D01*
X152038568Y-113274932D01*
X151988239Y-113191557D01*
X151937764Y-113106029D01*
X151890353Y-113023770D01*
X151849219Y-112950202D01*
X151817573Y-112890746D01*
X151798626Y-112850823D01*
X151794633Y-112837619D01*
X151807448Y-112802406D01*
X151837417Y-112787066D01*
X151871831Y-112798001D01*
G36*
X150810200Y-106548932D02*
G01*
X153022300Y-106549097D01*
X153107090Y-106588582D01*
X153198926Y-106647594D01*
X153278714Y-106729559D01*
X153333451Y-106818468D01*
X153336873Y-106828064D01*
X153340002Y-106842118D01*
X153342850Y-106862095D01*
X153345431Y-106889463D01*
X153347757Y-106925689D01*
X153349842Y-106972239D01*
X153351698Y-107030581D01*
X153353339Y-107102180D01*
X153354777Y-107188503D01*
X153356026Y-107291017D01*
X153357098Y-107411190D01*
X153358007Y-107550486D01*
X153358765Y-107710374D01*
X153359386Y-107892320D01*
X153359881Y-108097791D01*
X153360266Y-108328253D01*
X153360551Y-108585173D01*
X153360751Y-108870018D01*
X153360878Y-109184255D01*
X153360946Y-109529350D01*
X153360966Y-109906769D01*
X153360966Y-112974966D01*
X153309152Y-113119648D01*
X153229986Y-113294656D01*
X153126674Y-113446855D01*
X153000709Y-113574860D01*
X152853586Y-113677285D01*
X152686799Y-113752746D01*
X152597341Y-113779716D01*
X152576326Y-113784860D01*
X152554458Y-113789448D01*
X152529780Y-113793512D01*
X152500334Y-113797084D01*
X152464163Y-113800196D01*
X152419310Y-113802878D01*
X152363817Y-113805164D01*
X152295727Y-113807084D01*
X152213082Y-113808670D01*
X152113925Y-113809954D01*
X151996299Y-113810968D01*
X151858245Y-113811744D01*
X151697807Y-113812313D01*
X151513027Y-113812707D01*
X151301948Y-113812957D01*
X151062612Y-113813096D01*
X150793062Y-113813155D01*
X150533716Y-113813166D01*
X148600883Y-113813166D01*
X148513289Y-113769517D01*
X148414772Y-113704246D01*
X148339974Y-113616851D01*
X148304120Y-113550700D01*
X148300432Y-113541571D01*
X148297048Y-113530101D01*
X148293957Y-113514860D01*
X148291145Y-113494419D01*
X148288597Y-113467347D01*
X148286302Y-113432213D01*
X148284245Y-113387589D01*
X148282414Y-113332042D01*
X148280795Y-113264144D01*
X148279375Y-113182465D01*
X148278141Y-113085573D01*
X148277079Y-112972039D01*
X148276176Y-112840433D01*
X148275418Y-112689324D01*
X148274794Y-112517282D01*
X148274288Y-112322878D01*
X148273888Y-112104681D01*
X148273581Y-111861261D01*
X148273353Y-111591187D01*
X148273191Y-111293030D01*
X148273081Y-110965359D01*
X148273011Y-110606744D01*
X148272968Y-110215756D01*
X148272966Y-110197900D01*
X148273015Y-109743342D01*
X148273240Y-109322507D01*
X148273643Y-108935251D01*
X148274225Y-108581430D01*
X148274985Y-108260900D01*
X148275926Y-107973518D01*
X148277048Y-107719139D01*
X148278350Y-107497621D01*
X148279835Y-107308819D01*
X148280898Y-107209167D01*
X148526232Y-107209167D01*
X148530599Y-110331590D01*
X148531137Y-110713206D01*
X148531649Y-111062412D01*
X148532151Y-111380666D01*
X148532663Y-111669426D01*
X148533200Y-111930149D01*
X148533782Y-112164291D01*
X148534425Y-112373311D01*
X148535148Y-112558666D01*
X148535968Y-112721813D01*
X148536902Y-112864209D01*
X148537968Y-112987312D01*
X148539184Y-113092579D01*
X148540568Y-113181467D01*
X148542136Y-113255434D01*
X148543908Y-113315937D01*
X148545899Y-113364434D01*
X148548129Y-113402381D01*
X148550614Y-113431237D01*
X148553373Y-113452457D01*
X148556422Y-113467501D01*
X148559780Y-113477825D01*
X148563464Y-113484886D01*
X148567491Y-113490142D01*
X148568833Y-113491655D01*
X148605443Y-113524370D01*
X148636567Y-113543158D01*
X148658054Y-113545161D01*
X148711013Y-113547099D01*
X148793047Y-113548951D01*
X148901761Y-113550694D01*
X149034761Y-113552308D01*
X149189650Y-113553770D01*
X149364032Y-113555058D01*
X149555513Y-113556151D01*
X149761697Y-113557026D01*
X149980188Y-113557662D01*
X150208591Y-113558038D01*
X150274278Y-113558093D01*
X151878122Y-113559166D01*
X151740046Y-113334800D01*
X151673380Y-113226385D01*
X151622647Y-113143119D01*
X151586081Y-113081277D01*
X151561912Y-113037134D01*
X151548375Y-113006965D01*
X151543702Y-112987046D01*
X151546126Y-112973653D01*
X151553879Y-112963060D01*
X151560487Y-112956367D01*
X151591943Y-112937759D01*
X151613405Y-112937441D01*
X151629167Y-112954231D01*
X151659166Y-112995757D01*
X151700456Y-113057572D01*
X151750090Y-113135229D01*
X151805120Y-113224283D01*
X151822152Y-113252409D01*
X152006300Y-113557937D01*
X152209500Y-113558302D01*
X152375794Y-113552330D01*
X152516075Y-113532413D01*
X152636030Y-113496518D01*
X152741347Y-113442615D01*
X152837713Y-113368673D01*
X152893330Y-113314132D01*
X152978863Y-113204986D01*
X153043804Y-113083330D01*
X153083447Y-112958834D01*
X153091561Y-112906677D01*
X153101804Y-112805633D01*
X152931382Y-112528302D01*
X152870693Y-112428512D01*
X152826615Y-112353197D01*
X152797223Y-112298483D01*
X152780596Y-112260499D01*
X152774811Y-112235373D01*
X152777925Y-112219268D01*
X152798322Y-112192600D01*
X152821920Y-112187287D01*
X152851221Y-112205332D01*
X152888725Y-112248741D01*
X152936932Y-112319517D01*
X152970743Y-112373833D01*
X153013749Y-112443541D01*
X153050419Y-112501374D01*
X153077240Y-112541909D01*
X153090699Y-112559721D01*
X153091385Y-112560100D01*
X153092178Y-112543467D01*
X153092946Y-112494771D01*
X153093685Y-112415816D01*
X153094389Y-112308405D01*
X153095054Y-112174341D01*
X153095675Y-112015428D01*
X153096247Y-111833471D01*
X153096766Y-111630271D01*
X153097226Y-111407634D01*
X153097623Y-111167361D01*
X153097952Y-110911258D01*
X153098208Y-110641128D01*
X153098387Y-110358773D01*
X153098484Y-110065999D01*
X153098500Y-109884633D01*
X153098500Y-107209167D01*
X148526232Y-107209167D01*
X148280898Y-107209167D01*
X148281503Y-107152590D01*
X148283189Y-107039833D01*
X148522041Y-107039833D01*
X153098500Y-107039833D01*
X153098500Y-106974572D01*
X153083963Y-106907916D01*
X153045473Y-106851474D01*
X152990714Y-106815576D01*
X152977176Y-106811444D01*
X152955598Y-106810284D01*
X152902212Y-106809237D01*
X152819078Y-106808308D01*
X152708256Y-106807500D01*
X152571805Y-106806819D01*
X152411784Y-106806269D01*
X152230252Y-106805855D01*
X152029270Y-106805581D01*
X151810896Y-106805452D01*
X151577189Y-106805473D01*
X151330209Y-106805648D01*
X151072016Y-106805982D01*
X150804668Y-106806479D01*
X150783249Y-106806526D01*
X148628865Y-106811233D01*
X148584885Y-106855216D01*
X148546026Y-106915380D01*
X148531472Y-106969516D01*
X148522041Y-107039833D01*
X148283189Y-107039833D01*
X148283355Y-107028789D01*
X148285391Y-106937274D01*
X148287612Y-106877900D01*
X148290019Y-106850524D01*
X148290205Y-106849761D01*
X148329706Y-106762626D01*
X148394654Y-106680822D01*
X148476887Y-106613871D01*
X148507576Y-106596057D01*
X148598100Y-106548766D01*
X150810200Y-106548932D01*
G37*
X150810200Y-106548932D02*
X153022300Y-106549097D01*
X153107090Y-106588582D01*
X153198926Y-106647594D01*
X153278714Y-106729559D01*
X153333451Y-106818468D01*
X153336873Y-106828064D01*
X153340002Y-106842118D01*
X153342850Y-106862095D01*
X153345431Y-106889463D01*
X153347757Y-106925689D01*
X153349842Y-106972239D01*
X153351698Y-107030581D01*
X153353339Y-107102180D01*
X153354777Y-107188503D01*
X153356026Y-107291017D01*
X153357098Y-107411190D01*
X153358007Y-107550486D01*
X153358765Y-107710374D01*
X153359386Y-107892320D01*
X153359881Y-108097791D01*
X153360266Y-108328253D01*
X153360551Y-108585173D01*
X153360751Y-108870018D01*
X153360878Y-109184255D01*
X153360946Y-109529350D01*
X153360966Y-109906769D01*
X153360966Y-112974966D01*
X153309152Y-113119648D01*
X153229986Y-113294656D01*
X153126674Y-113446855D01*
X153000709Y-113574860D01*
X152853586Y-113677285D01*
X152686799Y-113752746D01*
X152597341Y-113779716D01*
X152576326Y-113784860D01*
X152554458Y-113789448D01*
X152529780Y-113793512D01*
X152500334Y-113797084D01*
X152464163Y-113800196D01*
X152419310Y-113802878D01*
X152363817Y-113805164D01*
X152295727Y-113807084D01*
X152213082Y-113808670D01*
X152113925Y-113809954D01*
X151996299Y-113810968D01*
X151858245Y-113811744D01*
X151697807Y-113812313D01*
X151513027Y-113812707D01*
X151301948Y-113812957D01*
X151062612Y-113813096D01*
X150793062Y-113813155D01*
X150533716Y-113813166D01*
X148600883Y-113813166D01*
X148513289Y-113769517D01*
X148414772Y-113704246D01*
X148339974Y-113616851D01*
X148304120Y-113550700D01*
X148300432Y-113541571D01*
X148297048Y-113530101D01*
X148293957Y-113514860D01*
X148291145Y-113494419D01*
X148288597Y-113467347D01*
X148286302Y-113432213D01*
X148284245Y-113387589D01*
X148282414Y-113332042D01*
X148280795Y-113264144D01*
X148279375Y-113182465D01*
X148278141Y-113085573D01*
X148277079Y-112972039D01*
X148276176Y-112840433D01*
X148275418Y-112689324D01*
X148274794Y-112517282D01*
X148274288Y-112322878D01*
X148273888Y-112104681D01*
X148273581Y-111861261D01*
X148273353Y-111591187D01*
X148273191Y-111293030D01*
X148273081Y-110965359D01*
X148273011Y-110606744D01*
X148272968Y-110215756D01*
X148272966Y-110197900D01*
X148273015Y-109743342D01*
X148273240Y-109322507D01*
X148273643Y-108935251D01*
X148274225Y-108581430D01*
X148274985Y-108260900D01*
X148275926Y-107973518D01*
X148277048Y-107719139D01*
X148278350Y-107497621D01*
X148279835Y-107308819D01*
X148280898Y-107209167D01*
X148526232Y-107209167D01*
X148530599Y-110331590D01*
X148531137Y-110713206D01*
X148531649Y-111062412D01*
X148532151Y-111380666D01*
X148532663Y-111669426D01*
X148533200Y-111930149D01*
X148533782Y-112164291D01*
X148534425Y-112373311D01*
X148535148Y-112558666D01*
X148535968Y-112721813D01*
X148536902Y-112864209D01*
X148537968Y-112987312D01*
X148539184Y-113092579D01*
X148540568Y-113181467D01*
X148542136Y-113255434D01*
X148543908Y-113315937D01*
X148545899Y-113364434D01*
X148548129Y-113402381D01*
X148550614Y-113431237D01*
X148553373Y-113452457D01*
X148556422Y-113467501D01*
X148559780Y-113477825D01*
X148563464Y-113484886D01*
X148567491Y-113490142D01*
X148568833Y-113491655D01*
X148605443Y-113524370D01*
X148636567Y-113543158D01*
X148658054Y-113545161D01*
X148711013Y-113547099D01*
X148793047Y-113548951D01*
X148901761Y-113550694D01*
X149034761Y-113552308D01*
X149189650Y-113553770D01*
X149364032Y-113555058D01*
X149555513Y-113556151D01*
X149761697Y-113557026D01*
X149980188Y-113557662D01*
X150208591Y-113558038D01*
X150274278Y-113558093D01*
X151878122Y-113559166D01*
X151740046Y-113334800D01*
X151673380Y-113226385D01*
X151622647Y-113143119D01*
X151586081Y-113081277D01*
X151561912Y-113037134D01*
X151548375Y-113006965D01*
X151543702Y-112987046D01*
X151546126Y-112973653D01*
X151553879Y-112963060D01*
X151560487Y-112956367D01*
X151591943Y-112937759D01*
X151613405Y-112937441D01*
X151629167Y-112954231D01*
X151659166Y-112995757D01*
X151700456Y-113057572D01*
X151750090Y-113135229D01*
X151805120Y-113224283D01*
X151822152Y-113252409D01*
X152006300Y-113557937D01*
X152209500Y-113558302D01*
X152375794Y-113552330D01*
X152516075Y-113532413D01*
X152636030Y-113496518D01*
X152741347Y-113442615D01*
X152837713Y-113368673D01*
X152893330Y-113314132D01*
X152978863Y-113204986D01*
X153043804Y-113083330D01*
X153083447Y-112958834D01*
X153091561Y-112906677D01*
X153101804Y-112805633D01*
X152931382Y-112528302D01*
X152870693Y-112428512D01*
X152826615Y-112353197D01*
X152797223Y-112298483D01*
X152780596Y-112260499D01*
X152774811Y-112235373D01*
X152777925Y-112219268D01*
X152798322Y-112192600D01*
X152821920Y-112187287D01*
X152851221Y-112205332D01*
X152888725Y-112248741D01*
X152936932Y-112319517D01*
X152970743Y-112373833D01*
X153013749Y-112443541D01*
X153050419Y-112501374D01*
X153077240Y-112541909D01*
X153090699Y-112559721D01*
X153091385Y-112560100D01*
X153092178Y-112543467D01*
X153092946Y-112494771D01*
X153093685Y-112415816D01*
X153094389Y-112308405D01*
X153095054Y-112174341D01*
X153095675Y-112015428D01*
X153096247Y-111833471D01*
X153096766Y-111630271D01*
X153097226Y-111407634D01*
X153097623Y-111167361D01*
X153097952Y-110911258D01*
X153098208Y-110641128D01*
X153098387Y-110358773D01*
X153098484Y-110065999D01*
X153098500Y-109884633D01*
X153098500Y-107209167D01*
X148526232Y-107209167D01*
X148280898Y-107209167D01*
X148281503Y-107152590D01*
X148283189Y-107039833D01*
X148522041Y-107039833D01*
X153098500Y-107039833D01*
X153098500Y-106974572D01*
X153083963Y-106907916D01*
X153045473Y-106851474D01*
X152990714Y-106815576D01*
X152977176Y-106811444D01*
X152955598Y-106810284D01*
X152902212Y-106809237D01*
X152819078Y-106808308D01*
X152708256Y-106807500D01*
X152571805Y-106806819D01*
X152411784Y-106806269D01*
X152230252Y-106805855D01*
X152029270Y-106805581D01*
X151810896Y-106805452D01*
X151577189Y-106805473D01*
X151330209Y-106805648D01*
X151072016Y-106805982D01*
X150804668Y-106806479D01*
X150783249Y-106806526D01*
X148628865Y-106811233D01*
X148584885Y-106855216D01*
X148546026Y-106915380D01*
X148531472Y-106969516D01*
X148522041Y-107039833D01*
X148283189Y-107039833D01*
X148283355Y-107028789D01*
X148285391Y-106937274D01*
X148287612Y-106877900D01*
X148290019Y-106850524D01*
X148290205Y-106849761D01*
X148329706Y-106762626D01*
X148394654Y-106680822D01*
X148476887Y-106613871D01*
X148507576Y-106596057D01*
X148598100Y-106548766D01*
X150810200Y-106548932D01*
D15*
%TO.C,C1*%
X161694000Y-98696000D02*
X157719000Y-98696000D01*
X163819000Y-103996000D02*
X157719000Y-103996000D01*
%TO.C,C2*%
X163819500Y-112441500D02*
X157719500Y-112441500D01*
X161694500Y-107141500D02*
X157719500Y-107141500D01*
D16*
%TO.C,J1*%
X144212000Y-100453500D02*
X144212000Y-99123500D01*
X145542000Y-100453500D02*
X144212000Y-100453500D01*
X146812000Y-100453500D02*
X146812000Y-97793500D01*
X146812000Y-97793500D02*
X154492000Y-97793500D01*
X146812000Y-100453500D02*
X154492000Y-100453500D01*
X154492000Y-100453500D02*
X154492000Y-97793500D01*
D17*
%TO.C,J2*%
X131350500Y-97902000D02*
X143350500Y-97902000D01*
D15*
X130950500Y-109902000D02*
G75*
G03*
X130950500Y-109902000I-100000J0D01*
G01*
D17*
X131350500Y-97902000D02*
X131350500Y-113402000D01*
X131350500Y-113402000D02*
X132850500Y-113402000D01*
X132850500Y-113402000D02*
X132850500Y-114402000D01*
X132850500Y-114402000D02*
X141850500Y-114402000D01*
X141850500Y-114402000D02*
X141850500Y-113402000D01*
X141850500Y-113402000D02*
X143350500Y-113402000D01*
X143350500Y-113402000D02*
X143350500Y-97902000D01*
D16*
%TO.C,L1*%
X153872000Y-102599748D02*
X153872000Y-103122252D01*
X152452000Y-102599748D02*
X152452000Y-103122252D01*
%TO.C,L2*%
X149912000Y-102599748D02*
X149912000Y-103122252D01*
X151332000Y-102599748D02*
X151332000Y-103122252D01*
%TO.C,L3*%
X147372000Y-102599748D02*
X147372000Y-103122252D01*
X148792000Y-102599748D02*
X148792000Y-103122252D01*
%TO.C,C1*%
D18*
X160189333Y-105419071D02*
X160128857Y-105479547D01*
X159947428Y-105540023D01*
X159826476Y-105540023D01*
X159645047Y-105479547D01*
X159524095Y-105358595D01*
X159463619Y-105237642D01*
X159403142Y-104995738D01*
X159403142Y-104814309D01*
X159463619Y-104572404D01*
X159524095Y-104451452D01*
X159645047Y-104330500D01*
X159826476Y-104270023D01*
X159947428Y-104270023D01*
X160128857Y-104330500D01*
X160189333Y-104390976D01*
X161398857Y-105540023D02*
X160673142Y-105540023D01*
X161036000Y-105540023D02*
X161036000Y-104270023D01*
X160915047Y-104451452D01*
X160794095Y-104572404D01*
X160673142Y-104632880D01*
%TO.C,C2*%
X160189333Y-113864571D02*
X160128857Y-113925047D01*
X159947428Y-113985523D01*
X159826476Y-113985523D01*
X159645047Y-113925047D01*
X159524095Y-113804095D01*
X159463619Y-113683142D01*
X159403142Y-113441238D01*
X159403142Y-113259809D01*
X159463619Y-113017904D01*
X159524095Y-112896952D01*
X159645047Y-112776000D01*
X159826476Y-112715523D01*
X159947428Y-112715523D01*
X160128857Y-112776000D01*
X160189333Y-112836476D01*
X160673142Y-112836476D02*
X160733619Y-112776000D01*
X160854571Y-112715523D01*
X161156952Y-112715523D01*
X161277904Y-112776000D01*
X161338380Y-112836476D01*
X161398857Y-112957428D01*
X161398857Y-113078380D01*
X161338380Y-113259809D01*
X160612666Y-113985523D01*
X161398857Y-113985523D01*
%TO.C,J1*%
D13*
X155241666Y-98575880D02*
X155241666Y-99290166D01*
X155194047Y-99433023D01*
X155098809Y-99528261D01*
X154955952Y-99575880D01*
X154860714Y-99575880D01*
X156241666Y-99575880D02*
X155670238Y-99575880D01*
X155955952Y-99575880D02*
X155955952Y-98575880D01*
X155860714Y-98718738D01*
X155765476Y-98813976D01*
X155670238Y-98861595D01*
%TO.C,J2*%
X137016618Y-106004479D02*
X137016618Y-106719941D01*
X136968920Y-106863033D01*
X136873525Y-106958428D01*
X136730433Y-107006125D01*
X136635038Y-107006125D01*
X137445894Y-106099874D02*
X137493592Y-106052177D01*
X137588987Y-106004479D01*
X137827474Y-106004479D01*
X137922869Y-106052177D01*
X137970566Y-106099874D01*
X138018264Y-106195269D01*
X138018264Y-106290664D01*
X137970566Y-106433756D01*
X137398197Y-107006125D01*
X138018264Y-107006125D01*
%TO.C,L1*%
X152995333Y-105925880D02*
X152519142Y-105925880D01*
X152519142Y-104925880D01*
X153852476Y-105925880D02*
X153281047Y-105925880D01*
X153566761Y-105925880D02*
X153566761Y-104925880D01*
X153471523Y-105068738D01*
X153376285Y-105163976D01*
X153281047Y-105211595D01*
%TO.C,L2*%
X150455333Y-105925880D02*
X149979142Y-105925880D01*
X149979142Y-104925880D01*
X150741047Y-105021119D02*
X150788666Y-104973500D01*
X150883904Y-104925880D01*
X151122000Y-104925880D01*
X151217238Y-104973500D01*
X151264857Y-105021119D01*
X151312476Y-105116357D01*
X151312476Y-105211595D01*
X151264857Y-105354452D01*
X150693428Y-105925880D01*
X151312476Y-105925880D01*
%TO.C,L3*%
X147915333Y-105925880D02*
X147439142Y-105925880D01*
X147439142Y-104925880D01*
X148153428Y-104925880D02*
X148772476Y-104925880D01*
X148439142Y-105306833D01*
X148582000Y-105306833D01*
X148677238Y-105354452D01*
X148724857Y-105402071D01*
X148772476Y-105497309D01*
X148772476Y-105735404D01*
X148724857Y-105830642D01*
X148677238Y-105878261D01*
X148582000Y-105925880D01*
X148296285Y-105925880D01*
X148201047Y-105878261D01*
X148153428Y-105830642D01*
%TD*%
M02*
