%FSLAX45Y45*%
G04 Gerber Fmt 4.5, Leading zero omitted, Abs format (unit mm)*
G04 Created by KiCad (PCBNEW (5.1.6)-1) date 2024-02-19 11:37:00*
%MOMM*%
%LPD*%
G01*
G04 APERTURE LIST*
%TA.AperFunction,Profile*%
%ADD10C,0.050000*%
%TD*%
%ADD11C,0.200000*%
%ADD12C,0.300000*%
G04 APERTURE END LIST*
D10*
X12700000Y-10179050D02*
X13131800Y-9747250D01*
X12700000Y-11430000D02*
X12700000Y-10179050D01*
X17367250Y-9747250D02*
X13131800Y-9747250D01*
X17367250Y-11430000D02*
X17367250Y-9747250D01*
X12700000Y-11430000D02*
X17367250Y-11430000D01*
D11*
X15169200Y-10019350D02*
X15209200Y-10059350D01*
X15209200Y-10019350D02*
X15169200Y-10059350D01*
X15486700Y-9873300D02*
X15526700Y-9913300D01*
X15526700Y-9873300D02*
X15486700Y-9913300D01*
X15677200Y-10447350D02*
X15717200Y-10487350D01*
X15717200Y-10447350D02*
X15677200Y-10487350D01*
X17232950Y-9828850D02*
X17272950Y-9868850D01*
X17272950Y-9828850D02*
X17232950Y-9868850D01*
X15808400Y-9899650D02*
G75*
G03*
X15808400Y-9899650I-35000J0D01*
G01*
X16075100Y-9899650D02*
G75*
G03*
X16075100Y-9899650I-35000J0D01*
G01*
X13235050Y-10450200D02*
X13235050Y-10530200D01*
X13195050Y-10490200D02*
X13275050Y-10490200D01*
X13265050Y-10525200D02*
X13265050Y-10455200D01*
X13205050Y-10525200D02*
X13205050Y-10455200D01*
X13265050Y-10455200D02*
G75*
G03*
X13205050Y-10455200I-30000J0D01*
G01*
X13205050Y-10525200D02*
G75*
G03*
X13265050Y-10525200I30000J0D01*
G01*
X13735050Y-10950200D02*
X13735050Y-11030200D01*
X13695050Y-10990200D02*
X13775050Y-10990200D01*
X13700050Y-11020200D02*
X13770050Y-11020200D01*
X13700050Y-10960200D02*
X13770050Y-10960200D01*
X13770050Y-11020200D02*
G75*
G03*
X13770050Y-10960200I0J30000D01*
G01*
X13700050Y-10960200D02*
G75*
G03*
X13700050Y-11020200I0J-30000D01*
G01*
X14235050Y-10450200D02*
X14235050Y-10530200D01*
X14195050Y-10490200D02*
X14275050Y-10490200D01*
X14265050Y-10525200D02*
X14265050Y-10455200D01*
X14205050Y-10525200D02*
X14205050Y-10455200D01*
X14265050Y-10455200D02*
G75*
G03*
X14205050Y-10455200I-30000J0D01*
G01*
X14205050Y-10525200D02*
G75*
G03*
X14265050Y-10525200I30000J0D01*
G01*
X14589556Y-9947706D02*
X14589556Y-9876994D01*
X14518844Y-9876994D01*
X14518844Y-9947706D01*
X14589556Y-9947706D01*
X14843556Y-9947706D02*
X14843556Y-9876994D01*
X14772844Y-9876994D01*
X14772844Y-9947706D01*
X14843556Y-9947706D01*
X15097556Y-9947706D02*
X15097556Y-9876994D01*
X15026844Y-9876994D01*
X15026844Y-9947706D01*
X15097556Y-9947706D01*
X15351556Y-9947706D02*
X15351556Y-9876994D01*
X15280844Y-9876994D01*
X15280844Y-9947706D01*
X15351556Y-9947706D01*
X13520406Y-10025556D02*
X13520406Y-9954844D01*
X13449694Y-9954844D01*
X13449694Y-10025556D01*
X13520406Y-10025556D01*
X13770406Y-10025556D02*
X13770406Y-9954844D01*
X13699694Y-9954844D01*
X13699694Y-10025556D01*
X13770406Y-10025556D01*
X14020406Y-10025556D02*
X14020406Y-9954844D01*
X13949694Y-9954844D01*
X13949694Y-10025556D01*
X14020406Y-10025556D01*
D12*
X12983928Y-11898214D02*
X12983928Y-11598214D01*
X13055357Y-11598214D01*
X13098214Y-11612500D01*
X13126786Y-11641071D01*
X13141071Y-11669643D01*
X13155357Y-11726786D01*
X13155357Y-11769643D01*
X13141071Y-11826786D01*
X13126786Y-11855357D01*
X13098214Y-11883929D01*
X13055357Y-11898214D01*
X12983928Y-11898214D01*
X13283928Y-11898214D02*
X13283928Y-11698214D01*
X13283928Y-11755357D02*
X13298214Y-11726786D01*
X13312500Y-11712500D01*
X13341071Y-11698214D01*
X13369643Y-11698214D01*
X13469643Y-11898214D02*
X13469643Y-11698214D01*
X13469643Y-11598214D02*
X13455357Y-11612500D01*
X13469643Y-11626786D01*
X13483928Y-11612500D01*
X13469643Y-11598214D01*
X13469643Y-11626786D01*
X13655357Y-11898214D02*
X13626786Y-11883929D01*
X13612500Y-11855357D01*
X13612500Y-11598214D01*
X13812500Y-11898214D02*
X13783928Y-11883929D01*
X13769643Y-11855357D01*
X13769643Y-11598214D01*
X14155357Y-11898214D02*
X14155357Y-11598214D01*
X14255357Y-11812500D01*
X14355357Y-11598214D01*
X14355357Y-11898214D01*
X14626786Y-11898214D02*
X14626786Y-11741071D01*
X14612500Y-11712500D01*
X14583928Y-11698214D01*
X14526786Y-11698214D01*
X14498214Y-11712500D01*
X14626786Y-11883929D02*
X14598214Y-11898214D01*
X14526786Y-11898214D01*
X14498214Y-11883929D01*
X14483928Y-11855357D01*
X14483928Y-11826786D01*
X14498214Y-11798214D01*
X14526786Y-11783929D01*
X14598214Y-11783929D01*
X14626786Y-11769643D01*
X14769643Y-11698214D02*
X14769643Y-11998214D01*
X14769643Y-11712500D02*
X14798214Y-11698214D01*
X14855357Y-11698214D01*
X14883928Y-11712500D01*
X14898214Y-11726786D01*
X14912500Y-11755357D01*
X14912500Y-11841071D01*
X14898214Y-11869643D01*
X14883928Y-11883929D01*
X14855357Y-11898214D01*
X14798214Y-11898214D01*
X14769643Y-11883929D01*
X15041071Y-11869643D02*
X15055357Y-11883929D01*
X15041071Y-11898214D01*
X15026786Y-11883929D01*
X15041071Y-11869643D01*
X15041071Y-11898214D01*
X15041071Y-11712500D02*
X15055357Y-11726786D01*
X15041071Y-11741071D01*
X15026786Y-11726786D01*
X15041071Y-11712500D01*
X15041071Y-11741071D01*
X12657500Y-12372500D02*
X12697500Y-12412500D01*
X12697500Y-12372500D02*
X12657500Y-12412500D01*
X13041071Y-12228214D02*
X13069643Y-12228214D01*
X13098214Y-12242500D01*
X13112500Y-12256786D01*
X13126786Y-12285357D01*
X13141071Y-12342500D01*
X13141071Y-12413929D01*
X13126786Y-12471071D01*
X13112500Y-12499643D01*
X13098214Y-12513929D01*
X13069643Y-12528214D01*
X13041071Y-12528214D01*
X13012500Y-12513929D01*
X12998214Y-12499643D01*
X12983928Y-12471071D01*
X12969643Y-12413929D01*
X12969643Y-12342500D01*
X12983928Y-12285357D01*
X12998214Y-12256786D01*
X13012500Y-12242500D01*
X13041071Y-12228214D01*
X13269643Y-12499643D02*
X13283928Y-12513929D01*
X13269643Y-12528214D01*
X13255357Y-12513929D01*
X13269643Y-12499643D01*
X13269643Y-12528214D01*
X13541071Y-12328214D02*
X13541071Y-12528214D01*
X13469643Y-12213929D02*
X13398214Y-12428214D01*
X13583928Y-12428214D01*
X13755357Y-12228214D02*
X13783928Y-12228214D01*
X13812500Y-12242500D01*
X13826786Y-12256786D01*
X13841071Y-12285357D01*
X13855357Y-12342500D01*
X13855357Y-12413929D01*
X13841071Y-12471071D01*
X13826786Y-12499643D01*
X13812500Y-12513929D01*
X13783928Y-12528214D01*
X13755357Y-12528214D01*
X13726786Y-12513929D01*
X13712500Y-12499643D01*
X13698214Y-12471071D01*
X13683928Y-12413929D01*
X13683928Y-12342500D01*
X13698214Y-12285357D01*
X13712500Y-12256786D01*
X13726786Y-12242500D01*
X13755357Y-12228214D01*
X13983928Y-12528214D02*
X13983928Y-12328214D01*
X13983928Y-12356786D02*
X13998214Y-12342500D01*
X14026786Y-12328214D01*
X14069643Y-12328214D01*
X14098214Y-12342500D01*
X14112500Y-12371071D01*
X14112500Y-12528214D01*
X14112500Y-12371071D02*
X14126786Y-12342500D01*
X14155357Y-12328214D01*
X14198214Y-12328214D01*
X14226786Y-12342500D01*
X14241071Y-12371071D01*
X14241071Y-12528214D01*
X14383928Y-12528214D02*
X14383928Y-12328214D01*
X14383928Y-12356786D02*
X14398214Y-12342500D01*
X14426786Y-12328214D01*
X14469643Y-12328214D01*
X14498214Y-12342500D01*
X14512500Y-12371071D01*
X14512500Y-12528214D01*
X14512500Y-12371071D02*
X14526786Y-12342500D01*
X14555357Y-12328214D01*
X14598214Y-12328214D01*
X14626786Y-12342500D01*
X14641071Y-12371071D01*
X14641071Y-12528214D01*
X15226786Y-12213929D02*
X14969643Y-12599643D01*
X15612500Y-12228214D02*
X15641071Y-12228214D01*
X15669643Y-12242500D01*
X15683928Y-12256786D01*
X15698214Y-12285357D01*
X15712500Y-12342500D01*
X15712500Y-12413929D01*
X15698214Y-12471071D01*
X15683928Y-12499643D01*
X15669643Y-12513929D01*
X15641071Y-12528214D01*
X15612500Y-12528214D01*
X15583928Y-12513929D01*
X15569643Y-12499643D01*
X15555357Y-12471071D01*
X15541071Y-12413929D01*
X15541071Y-12342500D01*
X15555357Y-12285357D01*
X15569643Y-12256786D01*
X15583928Y-12242500D01*
X15612500Y-12228214D01*
X15841071Y-12499643D02*
X15855357Y-12513929D01*
X15841071Y-12528214D01*
X15826786Y-12513929D01*
X15841071Y-12499643D01*
X15841071Y-12528214D01*
X16041071Y-12228214D02*
X16069643Y-12228214D01*
X16098214Y-12242500D01*
X16112500Y-12256786D01*
X16126786Y-12285357D01*
X16141071Y-12342500D01*
X16141071Y-12413929D01*
X16126786Y-12471071D01*
X16112500Y-12499643D01*
X16098214Y-12513929D01*
X16069643Y-12528214D01*
X16041071Y-12528214D01*
X16012500Y-12513929D01*
X15998214Y-12499643D01*
X15983928Y-12471071D01*
X15969643Y-12413929D01*
X15969643Y-12342500D01*
X15983928Y-12285357D01*
X15998214Y-12256786D01*
X16012500Y-12242500D01*
X16041071Y-12228214D01*
X16426786Y-12528214D02*
X16255357Y-12528214D01*
X16341071Y-12528214D02*
X16341071Y-12228214D01*
X16312500Y-12271071D01*
X16283928Y-12299643D01*
X16255357Y-12313929D01*
X16683928Y-12228214D02*
X16626786Y-12228214D01*
X16598214Y-12242500D01*
X16583928Y-12256786D01*
X16555357Y-12299643D01*
X16541071Y-12356786D01*
X16541071Y-12471071D01*
X16555357Y-12499643D01*
X16569643Y-12513929D01*
X16598214Y-12528214D01*
X16655357Y-12528214D01*
X16683928Y-12513929D01*
X16698214Y-12499643D01*
X16712500Y-12471071D01*
X16712500Y-12399643D01*
X16698214Y-12371071D01*
X16683928Y-12356786D01*
X16655357Y-12342500D01*
X16598214Y-12342500D01*
X16569643Y-12356786D01*
X16555357Y-12371071D01*
X16541071Y-12399643D01*
X16826786Y-12228214D02*
X16826786Y-12285357D01*
X16941071Y-12228214D02*
X16941071Y-12285357D01*
X17383928Y-12642500D02*
X17369643Y-12628214D01*
X17341071Y-12585357D01*
X17326786Y-12556786D01*
X17312500Y-12513929D01*
X17298214Y-12442500D01*
X17298214Y-12385357D01*
X17312500Y-12313929D01*
X17326786Y-12271071D01*
X17341071Y-12242500D01*
X17369643Y-12199643D01*
X17383928Y-12185357D01*
X17626786Y-12328214D02*
X17626786Y-12528214D01*
X17555357Y-12213929D02*
X17483928Y-12428214D01*
X17669643Y-12428214D01*
X18012500Y-12528214D02*
X18012500Y-12228214D01*
X18141071Y-12528214D02*
X18141071Y-12371071D01*
X18126786Y-12342500D01*
X18098214Y-12328214D01*
X18055357Y-12328214D01*
X18026786Y-12342500D01*
X18012500Y-12356786D01*
X18326786Y-12528214D02*
X18298214Y-12513929D01*
X18283928Y-12499643D01*
X18269643Y-12471071D01*
X18269643Y-12385357D01*
X18283928Y-12356786D01*
X18298214Y-12342500D01*
X18326786Y-12328214D01*
X18369643Y-12328214D01*
X18398214Y-12342500D01*
X18412500Y-12356786D01*
X18426786Y-12385357D01*
X18426786Y-12471071D01*
X18412500Y-12499643D01*
X18398214Y-12513929D01*
X18369643Y-12528214D01*
X18326786Y-12528214D01*
X18598214Y-12528214D02*
X18569643Y-12513929D01*
X18555357Y-12485357D01*
X18555357Y-12228214D01*
X18826786Y-12513929D02*
X18798214Y-12528214D01*
X18741071Y-12528214D01*
X18712500Y-12513929D01*
X18698214Y-12485357D01*
X18698214Y-12371071D01*
X18712500Y-12342500D01*
X18741071Y-12328214D01*
X18798214Y-12328214D01*
X18826786Y-12342500D01*
X18841071Y-12371071D01*
X18841071Y-12399643D01*
X18698214Y-12428214D01*
X18955357Y-12513929D02*
X18983928Y-12528214D01*
X19041071Y-12528214D01*
X19069643Y-12513929D01*
X19083928Y-12485357D01*
X19083928Y-12471071D01*
X19069643Y-12442500D01*
X19041071Y-12428214D01*
X18998214Y-12428214D01*
X18969643Y-12413929D01*
X18955357Y-12385357D01*
X18955357Y-12371071D01*
X18969643Y-12342500D01*
X18998214Y-12328214D01*
X19041071Y-12328214D01*
X19069643Y-12342500D01*
X19183928Y-12642500D02*
X19198214Y-12628214D01*
X19226786Y-12585357D01*
X19241071Y-12556786D01*
X19255357Y-12513929D01*
X19269643Y-12442500D01*
X19269643Y-12385357D01*
X19255357Y-12313929D01*
X19241071Y-12271071D01*
X19226786Y-12242500D01*
X19198214Y-12199643D01*
X19183928Y-12185357D01*
X12697500Y-12788500D02*
G75*
G03*
X12697500Y-12788500I-35000J0D01*
G01*
X13041071Y-12624214D02*
X13069643Y-12624214D01*
X13098214Y-12638500D01*
X13112500Y-12652786D01*
X13126786Y-12681357D01*
X13141071Y-12738500D01*
X13141071Y-12809929D01*
X13126786Y-12867071D01*
X13112500Y-12895643D01*
X13098214Y-12909929D01*
X13069643Y-12924214D01*
X13041071Y-12924214D01*
X13012500Y-12909929D01*
X12998214Y-12895643D01*
X12983928Y-12867071D01*
X12969643Y-12809929D01*
X12969643Y-12738500D01*
X12983928Y-12681357D01*
X12998214Y-12652786D01*
X13012500Y-12638500D01*
X13041071Y-12624214D01*
X13269643Y-12895643D02*
X13283928Y-12909929D01*
X13269643Y-12924214D01*
X13255357Y-12909929D01*
X13269643Y-12895643D01*
X13269643Y-12924214D01*
X13383928Y-12624214D02*
X13583928Y-12624214D01*
X13455357Y-12924214D01*
X13755357Y-12624214D02*
X13783928Y-12624214D01*
X13812500Y-12638500D01*
X13826786Y-12652786D01*
X13841071Y-12681357D01*
X13855357Y-12738500D01*
X13855357Y-12809929D01*
X13841071Y-12867071D01*
X13826786Y-12895643D01*
X13812500Y-12909929D01*
X13783928Y-12924214D01*
X13755357Y-12924214D01*
X13726786Y-12909929D01*
X13712500Y-12895643D01*
X13698214Y-12867071D01*
X13683928Y-12809929D01*
X13683928Y-12738500D01*
X13698214Y-12681357D01*
X13712500Y-12652786D01*
X13726786Y-12638500D01*
X13755357Y-12624214D01*
X13983928Y-12924214D02*
X13983928Y-12724214D01*
X13983928Y-12752786D02*
X13998214Y-12738500D01*
X14026786Y-12724214D01*
X14069643Y-12724214D01*
X14098214Y-12738500D01*
X14112500Y-12767071D01*
X14112500Y-12924214D01*
X14112500Y-12767071D02*
X14126786Y-12738500D01*
X14155357Y-12724214D01*
X14198214Y-12724214D01*
X14226786Y-12738500D01*
X14241071Y-12767071D01*
X14241071Y-12924214D01*
X14383928Y-12924214D02*
X14383928Y-12724214D01*
X14383928Y-12752786D02*
X14398214Y-12738500D01*
X14426786Y-12724214D01*
X14469643Y-12724214D01*
X14498214Y-12738500D01*
X14512500Y-12767071D01*
X14512500Y-12924214D01*
X14512500Y-12767071D02*
X14526786Y-12738500D01*
X14555357Y-12724214D01*
X14598214Y-12724214D01*
X14626786Y-12738500D01*
X14641071Y-12767071D01*
X14641071Y-12924214D01*
X15226786Y-12609929D02*
X14969643Y-12995643D01*
X15612500Y-12624214D02*
X15641071Y-12624214D01*
X15669643Y-12638500D01*
X15683928Y-12652786D01*
X15698214Y-12681357D01*
X15712500Y-12738500D01*
X15712500Y-12809929D01*
X15698214Y-12867071D01*
X15683928Y-12895643D01*
X15669643Y-12909929D01*
X15641071Y-12924214D01*
X15612500Y-12924214D01*
X15583928Y-12909929D01*
X15569643Y-12895643D01*
X15555357Y-12867071D01*
X15541071Y-12809929D01*
X15541071Y-12738500D01*
X15555357Y-12681357D01*
X15569643Y-12652786D01*
X15583928Y-12638500D01*
X15612500Y-12624214D01*
X15841071Y-12895643D02*
X15855357Y-12909929D01*
X15841071Y-12924214D01*
X15826786Y-12909929D01*
X15841071Y-12895643D01*
X15841071Y-12924214D01*
X16041071Y-12624214D02*
X16069643Y-12624214D01*
X16098214Y-12638500D01*
X16112500Y-12652786D01*
X16126786Y-12681357D01*
X16141071Y-12738500D01*
X16141071Y-12809929D01*
X16126786Y-12867071D01*
X16112500Y-12895643D01*
X16098214Y-12909929D01*
X16069643Y-12924214D01*
X16041071Y-12924214D01*
X16012500Y-12909929D01*
X15998214Y-12895643D01*
X15983928Y-12867071D01*
X15969643Y-12809929D01*
X15969643Y-12738500D01*
X15983928Y-12681357D01*
X15998214Y-12652786D01*
X16012500Y-12638500D01*
X16041071Y-12624214D01*
X16255357Y-12652786D02*
X16269643Y-12638500D01*
X16298214Y-12624214D01*
X16369643Y-12624214D01*
X16398214Y-12638500D01*
X16412500Y-12652786D01*
X16426786Y-12681357D01*
X16426786Y-12709929D01*
X16412500Y-12752786D01*
X16241071Y-12924214D01*
X16426786Y-12924214D01*
X16598214Y-12752786D02*
X16569643Y-12738500D01*
X16555357Y-12724214D01*
X16541071Y-12695643D01*
X16541071Y-12681357D01*
X16555357Y-12652786D01*
X16569643Y-12638500D01*
X16598214Y-12624214D01*
X16655357Y-12624214D01*
X16683928Y-12638500D01*
X16698214Y-12652786D01*
X16712500Y-12681357D01*
X16712500Y-12695643D01*
X16698214Y-12724214D01*
X16683928Y-12738500D01*
X16655357Y-12752786D01*
X16598214Y-12752786D01*
X16569643Y-12767071D01*
X16555357Y-12781357D01*
X16541071Y-12809929D01*
X16541071Y-12867071D01*
X16555357Y-12895643D01*
X16569643Y-12909929D01*
X16598214Y-12924214D01*
X16655357Y-12924214D01*
X16683928Y-12909929D01*
X16698214Y-12895643D01*
X16712500Y-12867071D01*
X16712500Y-12809929D01*
X16698214Y-12781357D01*
X16683928Y-12767071D01*
X16655357Y-12752786D01*
X16826786Y-12624214D02*
X16826786Y-12681357D01*
X16941071Y-12624214D02*
X16941071Y-12681357D01*
X17383928Y-13038500D02*
X17369643Y-13024214D01*
X17341071Y-12981357D01*
X17326786Y-12952786D01*
X17312500Y-12909929D01*
X17298214Y-12838500D01*
X17298214Y-12781357D01*
X17312500Y-12709929D01*
X17326786Y-12667071D01*
X17341071Y-12638500D01*
X17369643Y-12595643D01*
X17383928Y-12581357D01*
X17483928Y-12652786D02*
X17498214Y-12638500D01*
X17526786Y-12624214D01*
X17598214Y-12624214D01*
X17626786Y-12638500D01*
X17641071Y-12652786D01*
X17655357Y-12681357D01*
X17655357Y-12709929D01*
X17641071Y-12752786D01*
X17469643Y-12924214D01*
X17655357Y-12924214D01*
X18012500Y-12924214D02*
X18012500Y-12624214D01*
X18141071Y-12924214D02*
X18141071Y-12767071D01*
X18126786Y-12738500D01*
X18098214Y-12724214D01*
X18055357Y-12724214D01*
X18026786Y-12738500D01*
X18012500Y-12752786D01*
X18326786Y-12924214D02*
X18298214Y-12909929D01*
X18283928Y-12895643D01*
X18269643Y-12867071D01*
X18269643Y-12781357D01*
X18283928Y-12752786D01*
X18298214Y-12738500D01*
X18326786Y-12724214D01*
X18369643Y-12724214D01*
X18398214Y-12738500D01*
X18412500Y-12752786D01*
X18426786Y-12781357D01*
X18426786Y-12867071D01*
X18412500Y-12895643D01*
X18398214Y-12909929D01*
X18369643Y-12924214D01*
X18326786Y-12924214D01*
X18598214Y-12924214D02*
X18569643Y-12909929D01*
X18555357Y-12881357D01*
X18555357Y-12624214D01*
X18826786Y-12909929D02*
X18798214Y-12924214D01*
X18741071Y-12924214D01*
X18712500Y-12909929D01*
X18698214Y-12881357D01*
X18698214Y-12767071D01*
X18712500Y-12738500D01*
X18741071Y-12724214D01*
X18798214Y-12724214D01*
X18826786Y-12738500D01*
X18841071Y-12767071D01*
X18841071Y-12795643D01*
X18698214Y-12824214D01*
X18955357Y-12909929D02*
X18983928Y-12924214D01*
X19041071Y-12924214D01*
X19069643Y-12909929D01*
X19083928Y-12881357D01*
X19083928Y-12867071D01*
X19069643Y-12838500D01*
X19041071Y-12824214D01*
X18998214Y-12824214D01*
X18969643Y-12809929D01*
X18955357Y-12781357D01*
X18955357Y-12767071D01*
X18969643Y-12738500D01*
X18998214Y-12724214D01*
X19041071Y-12724214D01*
X19069643Y-12738500D01*
X19183928Y-13038500D02*
X19198214Y-13024214D01*
X19226786Y-12981357D01*
X19241071Y-12952786D01*
X19255357Y-12909929D01*
X19269643Y-12838500D01*
X19269643Y-12781357D01*
X19255357Y-12709929D01*
X19241071Y-12667071D01*
X19226786Y-12638500D01*
X19198214Y-12595643D01*
X19183928Y-12581357D01*
X12657500Y-13144500D02*
X12657500Y-13224500D01*
X12617500Y-13184500D02*
X12697500Y-13184500D01*
X13041071Y-13020214D02*
X13069643Y-13020214D01*
X13098214Y-13034500D01*
X13112500Y-13048786D01*
X13126786Y-13077357D01*
X13141071Y-13134500D01*
X13141071Y-13205929D01*
X13126786Y-13263071D01*
X13112500Y-13291643D01*
X13098214Y-13305929D01*
X13069643Y-13320214D01*
X13041071Y-13320214D01*
X13012500Y-13305929D01*
X12998214Y-13291643D01*
X12983928Y-13263071D01*
X12969643Y-13205929D01*
X12969643Y-13134500D01*
X12983928Y-13077357D01*
X12998214Y-13048786D01*
X13012500Y-13034500D01*
X13041071Y-13020214D01*
X13269643Y-13291643D02*
X13283928Y-13305929D01*
X13269643Y-13320214D01*
X13255357Y-13305929D01*
X13269643Y-13291643D01*
X13269643Y-13320214D01*
X13455357Y-13148786D02*
X13426786Y-13134500D01*
X13412500Y-13120214D01*
X13398214Y-13091643D01*
X13398214Y-13077357D01*
X13412500Y-13048786D01*
X13426786Y-13034500D01*
X13455357Y-13020214D01*
X13512500Y-13020214D01*
X13541071Y-13034500D01*
X13555357Y-13048786D01*
X13569643Y-13077357D01*
X13569643Y-13091643D01*
X13555357Y-13120214D01*
X13541071Y-13134500D01*
X13512500Y-13148786D01*
X13455357Y-13148786D01*
X13426786Y-13163071D01*
X13412500Y-13177357D01*
X13398214Y-13205929D01*
X13398214Y-13263071D01*
X13412500Y-13291643D01*
X13426786Y-13305929D01*
X13455357Y-13320214D01*
X13512500Y-13320214D01*
X13541071Y-13305929D01*
X13555357Y-13291643D01*
X13569643Y-13263071D01*
X13569643Y-13205929D01*
X13555357Y-13177357D01*
X13541071Y-13163071D01*
X13512500Y-13148786D01*
X13755357Y-13020214D02*
X13783928Y-13020214D01*
X13812500Y-13034500D01*
X13826786Y-13048786D01*
X13841071Y-13077357D01*
X13855357Y-13134500D01*
X13855357Y-13205929D01*
X13841071Y-13263071D01*
X13826786Y-13291643D01*
X13812500Y-13305929D01*
X13783928Y-13320214D01*
X13755357Y-13320214D01*
X13726786Y-13305929D01*
X13712500Y-13291643D01*
X13698214Y-13263071D01*
X13683928Y-13205929D01*
X13683928Y-13134500D01*
X13698214Y-13077357D01*
X13712500Y-13048786D01*
X13726786Y-13034500D01*
X13755357Y-13020214D01*
X13983928Y-13320214D02*
X13983928Y-13120214D01*
X13983928Y-13148786D02*
X13998214Y-13134500D01*
X14026786Y-13120214D01*
X14069643Y-13120214D01*
X14098214Y-13134500D01*
X14112500Y-13163071D01*
X14112500Y-13320214D01*
X14112500Y-13163071D02*
X14126786Y-13134500D01*
X14155357Y-13120214D01*
X14198214Y-13120214D01*
X14226786Y-13134500D01*
X14241071Y-13163071D01*
X14241071Y-13320214D01*
X14383928Y-13320214D02*
X14383928Y-13120214D01*
X14383928Y-13148786D02*
X14398214Y-13134500D01*
X14426786Y-13120214D01*
X14469643Y-13120214D01*
X14498214Y-13134500D01*
X14512500Y-13163071D01*
X14512500Y-13320214D01*
X14512500Y-13163071D02*
X14526786Y-13134500D01*
X14555357Y-13120214D01*
X14598214Y-13120214D01*
X14626786Y-13134500D01*
X14641071Y-13163071D01*
X14641071Y-13320214D01*
X15226786Y-13005929D02*
X14969643Y-13391643D01*
X15612500Y-13020214D02*
X15641071Y-13020214D01*
X15669643Y-13034500D01*
X15683928Y-13048786D01*
X15698214Y-13077357D01*
X15712500Y-13134500D01*
X15712500Y-13205929D01*
X15698214Y-13263071D01*
X15683928Y-13291643D01*
X15669643Y-13305929D01*
X15641071Y-13320214D01*
X15612500Y-13320214D01*
X15583928Y-13305929D01*
X15569643Y-13291643D01*
X15555357Y-13263071D01*
X15541071Y-13205929D01*
X15541071Y-13134500D01*
X15555357Y-13077357D01*
X15569643Y-13048786D01*
X15583928Y-13034500D01*
X15612500Y-13020214D01*
X15841071Y-13291643D02*
X15855357Y-13305929D01*
X15841071Y-13320214D01*
X15826786Y-13305929D01*
X15841071Y-13291643D01*
X15841071Y-13320214D01*
X16041071Y-13020214D02*
X16069643Y-13020214D01*
X16098214Y-13034500D01*
X16112500Y-13048786D01*
X16126786Y-13077357D01*
X16141071Y-13134500D01*
X16141071Y-13205929D01*
X16126786Y-13263071D01*
X16112500Y-13291643D01*
X16098214Y-13305929D01*
X16069643Y-13320214D01*
X16041071Y-13320214D01*
X16012500Y-13305929D01*
X15998214Y-13291643D01*
X15983928Y-13263071D01*
X15969643Y-13205929D01*
X15969643Y-13134500D01*
X15983928Y-13077357D01*
X15998214Y-13048786D01*
X16012500Y-13034500D01*
X16041071Y-13020214D01*
X16241071Y-13020214D02*
X16426786Y-13020214D01*
X16326786Y-13134500D01*
X16369643Y-13134500D01*
X16398214Y-13148786D01*
X16412500Y-13163071D01*
X16426786Y-13191643D01*
X16426786Y-13263071D01*
X16412500Y-13291643D01*
X16398214Y-13305929D01*
X16369643Y-13320214D01*
X16283928Y-13320214D01*
X16255357Y-13305929D01*
X16241071Y-13291643D01*
X16712500Y-13320214D02*
X16541071Y-13320214D01*
X16626786Y-13320214D02*
X16626786Y-13020214D01*
X16598214Y-13063071D01*
X16569643Y-13091643D01*
X16541071Y-13105929D01*
X16826786Y-13020214D02*
X16826786Y-13077357D01*
X16941071Y-13020214D02*
X16941071Y-13077357D01*
X17383928Y-13434500D02*
X17369643Y-13420214D01*
X17341071Y-13377357D01*
X17326786Y-13348786D01*
X17312500Y-13305929D01*
X17298214Y-13234500D01*
X17298214Y-13177357D01*
X17312500Y-13105929D01*
X17326786Y-13063071D01*
X17341071Y-13034500D01*
X17369643Y-12991643D01*
X17383928Y-12977357D01*
X17555357Y-13020214D02*
X17583928Y-13020214D01*
X17612500Y-13034500D01*
X17626786Y-13048786D01*
X17641071Y-13077357D01*
X17655357Y-13134500D01*
X17655357Y-13205929D01*
X17641071Y-13263071D01*
X17626786Y-13291643D01*
X17612500Y-13305929D01*
X17583928Y-13320214D01*
X17555357Y-13320214D01*
X17526786Y-13305929D01*
X17512500Y-13291643D01*
X17498214Y-13263071D01*
X17483928Y-13205929D01*
X17483928Y-13134500D01*
X17498214Y-13077357D01*
X17512500Y-13048786D01*
X17526786Y-13034500D01*
X17555357Y-13020214D01*
X18012500Y-13320214D02*
X18012500Y-13020214D01*
X18141071Y-13320214D02*
X18141071Y-13163071D01*
X18126786Y-13134500D01*
X18098214Y-13120214D01*
X18055357Y-13120214D01*
X18026786Y-13134500D01*
X18012500Y-13148786D01*
X18326786Y-13320214D02*
X18298214Y-13305929D01*
X18283928Y-13291643D01*
X18269643Y-13263071D01*
X18269643Y-13177357D01*
X18283928Y-13148786D01*
X18298214Y-13134500D01*
X18326786Y-13120214D01*
X18369643Y-13120214D01*
X18398214Y-13134500D01*
X18412500Y-13148786D01*
X18426786Y-13177357D01*
X18426786Y-13263071D01*
X18412500Y-13291643D01*
X18398214Y-13305929D01*
X18369643Y-13320214D01*
X18326786Y-13320214D01*
X18598214Y-13320214D02*
X18569643Y-13305929D01*
X18555357Y-13277357D01*
X18555357Y-13020214D01*
X18826786Y-13305929D02*
X18798214Y-13320214D01*
X18741071Y-13320214D01*
X18712500Y-13305929D01*
X18698214Y-13277357D01*
X18698214Y-13163071D01*
X18712500Y-13134500D01*
X18741071Y-13120214D01*
X18798214Y-13120214D01*
X18826786Y-13134500D01*
X18841071Y-13163071D01*
X18841071Y-13191643D01*
X18698214Y-13220214D01*
X18955357Y-13305929D02*
X18983928Y-13320214D01*
X19041071Y-13320214D01*
X19069643Y-13305929D01*
X19083928Y-13277357D01*
X19083928Y-13263071D01*
X19069643Y-13234500D01*
X19041071Y-13220214D01*
X18998214Y-13220214D01*
X18969643Y-13205929D01*
X18955357Y-13177357D01*
X18955357Y-13163071D01*
X18969643Y-13134500D01*
X18998214Y-13120214D01*
X19041071Y-13120214D01*
X19069643Y-13134500D01*
X19441071Y-13205929D02*
X19669643Y-13205929D01*
X19555357Y-13320214D02*
X19555357Y-13091643D01*
X20012500Y-13020214D02*
X20198214Y-13020214D01*
X20098214Y-13134500D01*
X20141071Y-13134500D01*
X20169643Y-13148786D01*
X20183928Y-13163071D01*
X20198214Y-13191643D01*
X20198214Y-13263071D01*
X20183928Y-13291643D01*
X20169643Y-13305929D01*
X20141071Y-13320214D01*
X20055357Y-13320214D01*
X20026786Y-13305929D01*
X20012500Y-13291643D01*
X20541071Y-13305929D02*
X20569643Y-13320214D01*
X20626786Y-13320214D01*
X20655357Y-13305929D01*
X20669643Y-13277357D01*
X20669643Y-13263071D01*
X20655357Y-13234500D01*
X20626786Y-13220214D01*
X20583928Y-13220214D01*
X20555357Y-13205929D01*
X20541071Y-13177357D01*
X20541071Y-13163071D01*
X20555357Y-13134500D01*
X20583928Y-13120214D01*
X20626786Y-13120214D01*
X20655357Y-13134500D01*
X20841071Y-13320214D02*
X20812500Y-13305929D01*
X20798214Y-13277357D01*
X20798214Y-13020214D01*
X20998214Y-13320214D02*
X20969643Y-13305929D01*
X20955357Y-13291643D01*
X20941071Y-13263071D01*
X20941071Y-13177357D01*
X20955357Y-13148786D01*
X20969643Y-13134500D01*
X20998214Y-13120214D01*
X21041071Y-13120214D01*
X21069643Y-13134500D01*
X21083928Y-13148786D01*
X21098214Y-13177357D01*
X21098214Y-13263071D01*
X21083928Y-13291643D01*
X21069643Y-13305929D01*
X21041071Y-13320214D01*
X20998214Y-13320214D01*
X21183928Y-13120214D02*
X21298214Y-13120214D01*
X21226786Y-13020214D02*
X21226786Y-13277357D01*
X21241071Y-13305929D01*
X21269643Y-13320214D01*
X21298214Y-13320214D01*
X21383928Y-13305929D02*
X21412500Y-13320214D01*
X21469643Y-13320214D01*
X21498214Y-13305929D01*
X21512500Y-13277357D01*
X21512500Y-13263071D01*
X21498214Y-13234500D01*
X21469643Y-13220214D01*
X21426786Y-13220214D01*
X21398214Y-13205929D01*
X21383928Y-13177357D01*
X21383928Y-13163071D01*
X21398214Y-13134500D01*
X21426786Y-13120214D01*
X21469643Y-13120214D01*
X21498214Y-13134500D01*
X21612500Y-13434500D02*
X21626786Y-13420214D01*
X21655357Y-13377357D01*
X21669643Y-13348786D01*
X21683928Y-13305929D01*
X21698214Y-13234500D01*
X21698214Y-13177357D01*
X21683928Y-13105929D01*
X21669643Y-13063071D01*
X21655357Y-13034500D01*
X21626786Y-12991643D01*
X21612500Y-12977357D01*
X12682856Y-13615856D02*
X12682856Y-13545144D01*
X12612144Y-13545144D01*
X12612144Y-13615856D01*
X12682856Y-13615856D01*
X13141071Y-13716214D02*
X12969643Y-13716214D01*
X13055357Y-13716214D02*
X13055357Y-13416214D01*
X13026786Y-13459071D01*
X12998214Y-13487643D01*
X12969643Y-13501929D01*
X13269643Y-13687643D02*
X13283928Y-13701929D01*
X13269643Y-13716214D01*
X13255357Y-13701929D01*
X13269643Y-13687643D01*
X13269643Y-13716214D01*
X13469643Y-13416214D02*
X13498214Y-13416214D01*
X13526786Y-13430500D01*
X13541071Y-13444786D01*
X13555357Y-13473357D01*
X13569643Y-13530500D01*
X13569643Y-13601929D01*
X13555357Y-13659071D01*
X13541071Y-13687643D01*
X13526786Y-13701929D01*
X13498214Y-13716214D01*
X13469643Y-13716214D01*
X13441071Y-13701929D01*
X13426786Y-13687643D01*
X13412500Y-13659071D01*
X13398214Y-13601929D01*
X13398214Y-13530500D01*
X13412500Y-13473357D01*
X13426786Y-13444786D01*
X13441071Y-13430500D01*
X13469643Y-13416214D01*
X13755357Y-13416214D02*
X13783928Y-13416214D01*
X13812500Y-13430500D01*
X13826786Y-13444786D01*
X13841071Y-13473357D01*
X13855357Y-13530500D01*
X13855357Y-13601929D01*
X13841071Y-13659071D01*
X13826786Y-13687643D01*
X13812500Y-13701929D01*
X13783928Y-13716214D01*
X13755357Y-13716214D01*
X13726786Y-13701929D01*
X13712500Y-13687643D01*
X13698214Y-13659071D01*
X13683928Y-13601929D01*
X13683928Y-13530500D01*
X13698214Y-13473357D01*
X13712500Y-13444786D01*
X13726786Y-13430500D01*
X13755357Y-13416214D01*
X13983928Y-13716214D02*
X13983928Y-13516214D01*
X13983928Y-13544786D02*
X13998214Y-13530500D01*
X14026786Y-13516214D01*
X14069643Y-13516214D01*
X14098214Y-13530500D01*
X14112500Y-13559071D01*
X14112500Y-13716214D01*
X14112500Y-13559071D02*
X14126786Y-13530500D01*
X14155357Y-13516214D01*
X14198214Y-13516214D01*
X14226786Y-13530500D01*
X14241071Y-13559071D01*
X14241071Y-13716214D01*
X14383928Y-13716214D02*
X14383928Y-13516214D01*
X14383928Y-13544786D02*
X14398214Y-13530500D01*
X14426786Y-13516214D01*
X14469643Y-13516214D01*
X14498214Y-13530500D01*
X14512500Y-13559071D01*
X14512500Y-13716214D01*
X14512500Y-13559071D02*
X14526786Y-13530500D01*
X14555357Y-13516214D01*
X14598214Y-13516214D01*
X14626786Y-13530500D01*
X14641071Y-13559071D01*
X14641071Y-13716214D01*
X15226786Y-13401929D02*
X14969643Y-13787643D01*
X15612500Y-13416214D02*
X15641071Y-13416214D01*
X15669643Y-13430500D01*
X15683928Y-13444786D01*
X15698214Y-13473357D01*
X15712500Y-13530500D01*
X15712500Y-13601929D01*
X15698214Y-13659071D01*
X15683928Y-13687643D01*
X15669643Y-13701929D01*
X15641071Y-13716214D01*
X15612500Y-13716214D01*
X15583928Y-13701929D01*
X15569643Y-13687643D01*
X15555357Y-13659071D01*
X15541071Y-13601929D01*
X15541071Y-13530500D01*
X15555357Y-13473357D01*
X15569643Y-13444786D01*
X15583928Y-13430500D01*
X15612500Y-13416214D01*
X15841071Y-13687643D02*
X15855357Y-13701929D01*
X15841071Y-13716214D01*
X15826786Y-13701929D01*
X15841071Y-13687643D01*
X15841071Y-13716214D01*
X16041071Y-13416214D02*
X16069643Y-13416214D01*
X16098214Y-13430500D01*
X16112500Y-13444786D01*
X16126786Y-13473357D01*
X16141071Y-13530500D01*
X16141071Y-13601929D01*
X16126786Y-13659071D01*
X16112500Y-13687643D01*
X16098214Y-13701929D01*
X16069643Y-13716214D01*
X16041071Y-13716214D01*
X16012500Y-13701929D01*
X15998214Y-13687643D01*
X15983928Y-13659071D01*
X15969643Y-13601929D01*
X15969643Y-13530500D01*
X15983928Y-13473357D01*
X15998214Y-13444786D01*
X16012500Y-13430500D01*
X16041071Y-13416214D01*
X16241071Y-13416214D02*
X16426786Y-13416214D01*
X16326786Y-13530500D01*
X16369643Y-13530500D01*
X16398214Y-13544786D01*
X16412500Y-13559071D01*
X16426786Y-13587643D01*
X16426786Y-13659071D01*
X16412500Y-13687643D01*
X16398214Y-13701929D01*
X16369643Y-13716214D01*
X16283928Y-13716214D01*
X16255357Y-13701929D01*
X16241071Y-13687643D01*
X16569643Y-13716214D02*
X16626786Y-13716214D01*
X16655357Y-13701929D01*
X16669643Y-13687643D01*
X16698214Y-13644786D01*
X16712500Y-13587643D01*
X16712500Y-13473357D01*
X16698214Y-13444786D01*
X16683928Y-13430500D01*
X16655357Y-13416214D01*
X16598214Y-13416214D01*
X16569643Y-13430500D01*
X16555357Y-13444786D01*
X16541071Y-13473357D01*
X16541071Y-13544786D01*
X16555357Y-13573357D01*
X16569643Y-13587643D01*
X16598214Y-13601929D01*
X16655357Y-13601929D01*
X16683928Y-13587643D01*
X16698214Y-13573357D01*
X16712500Y-13544786D01*
X16826786Y-13416214D02*
X16826786Y-13473357D01*
X16941071Y-13416214D02*
X16941071Y-13473357D01*
X17383928Y-13830500D02*
X17369643Y-13816214D01*
X17341071Y-13773357D01*
X17326786Y-13744786D01*
X17312500Y-13701929D01*
X17298214Y-13630500D01*
X17298214Y-13573357D01*
X17312500Y-13501929D01*
X17326786Y-13459071D01*
X17341071Y-13430500D01*
X17369643Y-13387643D01*
X17383928Y-13373357D01*
X17469643Y-13416214D02*
X17669643Y-13416214D01*
X17541071Y-13716214D01*
X18012500Y-13716214D02*
X18012500Y-13416214D01*
X18141071Y-13716214D02*
X18141071Y-13559071D01*
X18126786Y-13530500D01*
X18098214Y-13516214D01*
X18055357Y-13516214D01*
X18026786Y-13530500D01*
X18012500Y-13544786D01*
X18326786Y-13716214D02*
X18298214Y-13701929D01*
X18283928Y-13687643D01*
X18269643Y-13659071D01*
X18269643Y-13573357D01*
X18283928Y-13544786D01*
X18298214Y-13530500D01*
X18326786Y-13516214D01*
X18369643Y-13516214D01*
X18398214Y-13530500D01*
X18412500Y-13544786D01*
X18426786Y-13573357D01*
X18426786Y-13659071D01*
X18412500Y-13687643D01*
X18398214Y-13701929D01*
X18369643Y-13716214D01*
X18326786Y-13716214D01*
X18598214Y-13716214D02*
X18569643Y-13701929D01*
X18555357Y-13673357D01*
X18555357Y-13416214D01*
X18826786Y-13701929D02*
X18798214Y-13716214D01*
X18741071Y-13716214D01*
X18712500Y-13701929D01*
X18698214Y-13673357D01*
X18698214Y-13559071D01*
X18712500Y-13530500D01*
X18741071Y-13516214D01*
X18798214Y-13516214D01*
X18826786Y-13530500D01*
X18841071Y-13559071D01*
X18841071Y-13587643D01*
X18698214Y-13616214D01*
X18955357Y-13701929D02*
X18983928Y-13716214D01*
X19041071Y-13716214D01*
X19069643Y-13701929D01*
X19083928Y-13673357D01*
X19083928Y-13659071D01*
X19069643Y-13630500D01*
X19041071Y-13616214D01*
X18998214Y-13616214D01*
X18969643Y-13601929D01*
X18955357Y-13573357D01*
X18955357Y-13559071D01*
X18969643Y-13530500D01*
X18998214Y-13516214D01*
X19041071Y-13516214D01*
X19069643Y-13530500D01*
X19183928Y-13830500D02*
X19198214Y-13816214D01*
X19226786Y-13773357D01*
X19241071Y-13744786D01*
X19255357Y-13701929D01*
X19269643Y-13630500D01*
X19269643Y-13573357D01*
X19255357Y-13501929D01*
X19241071Y-13459071D01*
X19226786Y-13430500D01*
X19198214Y-13387643D01*
X19183928Y-13373357D01*
M02*
