%TF.GenerationSoftware,KiCad,Pcbnew,(5.1.6)-1*%
%TF.CreationDate,2024-02-19T11:36:57-05:00*%
%TF.ProjectId,GB-DMG-Pro-Headphone-PCB,47422d44-4d47-42d5-9072-6f2d48656164,0*%
%TF.SameCoordinates,Original*%
%TF.FileFunction,Copper,L1,Top*%
%TF.FilePolarity,Positive*%
%FSLAX46Y46*%
G04 Gerber Fmt 4.6, Leading zero omitted, Abs format (unit mm)*
G04 Created by KiCad (PCBNEW (5.1.6)-1) date 2024-02-19 11:36:57*
%MOMM*%
%LPD*%
G01*
G04 APERTURE LIST*
%TA.AperFunction,SMDPad,CuDef*%
%ADD10R,2.900000X1.800000*%
%TD*%
%TA.AperFunction,ComponentPad*%
%ADD11R,1.700000X1.700000*%
%TD*%
%TA.AperFunction,ComponentPad*%
%ADD12O,1.700000X1.700000*%
%TD*%
%TA.AperFunction,ComponentPad*%
%ADD13O,2.616000X1.308000*%
%TD*%
%TA.AperFunction,ComponentPad*%
%ADD14C,1.508000*%
%TD*%
%TA.AperFunction,ComponentPad*%
%ADD15O,1.308000X2.616000*%
%TD*%
%TA.AperFunction,SMDPad,CuDef*%
%ADD16R,2.800000X2.200000*%
%TD*%
%TA.AperFunction,SMDPad,CuDef*%
%ADD17R,2.600000X2.800000*%
%TD*%
%TA.AperFunction,ComponentPad*%
%ADD18R,1.500000X1.500000*%
%TD*%
%TA.AperFunction,ViaPad*%
%ADD19C,0.800000*%
%TD*%
%TA.AperFunction,Conductor*%
%ADD20C,0.400000*%
%TD*%
%TA.AperFunction,Conductor*%
%ADD21C,0.300000*%
%TD*%
G04 APERTURE END LIST*
D10*
%TO.P,C1,2*%
%TO.N,LEFT*%
X156972500Y-103060500D03*
%TO.P,C1,1*%
%TO.N,Net-(C1-Pad1)*%
X160972500Y-103060500D03*
%TD*%
%TO.P,C2,1*%
%TO.N,Net-(C2-Pad1)*%
X160972000Y-109728000D03*
%TO.P,C2,2*%
%TO.N,RIGHT*%
X156972000Y-109728000D03*
%TD*%
D11*
%TO.P,J1,1*%
%TO.N,DETECT*%
X145542000Y-99123500D03*
D12*
%TO.P,J1,2*%
%TO.N,Net-(J1-Pad2)*%
X148082000Y-99123500D03*
%TO.P,J1,3*%
%TO.N,Net-(J1-Pad3)*%
X150622000Y-99123500D03*
%TO.P,J1,4*%
%TO.N,Net-(J1-Pad4)*%
X153162000Y-99123500D03*
%TD*%
D13*
%TO.P,J2,1*%
%TO.N,GND*%
X137350500Y-109902000D03*
D14*
%TO.P,J2,4*%
X134850500Y-99902000D03*
%TO.P,J2,5*%
%TO.N,DETECT*%
X137350500Y-99902000D03*
%TO.P,J2,6*%
%TO.N,N/C*%
X139850500Y-99902000D03*
D15*
%TO.P,J2,2*%
%TO.N,LEFT*%
X142350500Y-104902000D03*
%TO.P,J2,3*%
%TO.N,RIGHT*%
X132350500Y-104902000D03*
%TD*%
%TO.P,L1,2*%
%TO.N,Net-(C1-Pad1)*%
%TA.AperFunction,SMDPad,CuDef*%
G36*
G01*
X152711999Y-103311000D02*
X153612001Y-103311000D01*
G75*
G02*
X153862000Y-103560999I0J-249999D01*
G01*
X153862000Y-104211001D01*
G75*
G02*
X153612001Y-104461000I-249999J0D01*
G01*
X152711999Y-104461000D01*
G75*
G02*
X152462000Y-104211001I0J249999D01*
G01*
X152462000Y-103560999D01*
G75*
G02*
X152711999Y-103311000I249999J0D01*
G01*
G37*
%TD.AperFunction*%
%TO.P,L1,1*%
%TO.N,Net-(J1-Pad4)*%
%TA.AperFunction,SMDPad,CuDef*%
G36*
G01*
X152711999Y-101261000D02*
X153612001Y-101261000D01*
G75*
G02*
X153862000Y-101510999I0J-249999D01*
G01*
X153862000Y-102161001D01*
G75*
G02*
X153612001Y-102411000I-249999J0D01*
G01*
X152711999Y-102411000D01*
G75*
G02*
X152462000Y-102161001I0J249999D01*
G01*
X152462000Y-101510999D01*
G75*
G02*
X152711999Y-101261000I249999J0D01*
G01*
G37*
%TD.AperFunction*%
%TD*%
%TO.P,L2,1*%
%TO.N,Net-(J1-Pad3)*%
%TA.AperFunction,SMDPad,CuDef*%
G36*
G01*
X150171999Y-101261000D02*
X151072001Y-101261000D01*
G75*
G02*
X151322000Y-101510999I0J-249999D01*
G01*
X151322000Y-102161001D01*
G75*
G02*
X151072001Y-102411000I-249999J0D01*
G01*
X150171999Y-102411000D01*
G75*
G02*
X149922000Y-102161001I0J249999D01*
G01*
X149922000Y-101510999D01*
G75*
G02*
X150171999Y-101261000I249999J0D01*
G01*
G37*
%TD.AperFunction*%
%TO.P,L2,2*%
%TO.N,Net-(C2-Pad1)*%
%TA.AperFunction,SMDPad,CuDef*%
G36*
G01*
X150171999Y-103311000D02*
X151072001Y-103311000D01*
G75*
G02*
X151322000Y-103560999I0J-249999D01*
G01*
X151322000Y-104211001D01*
G75*
G02*
X151072001Y-104461000I-249999J0D01*
G01*
X150171999Y-104461000D01*
G75*
G02*
X149922000Y-104211001I0J249999D01*
G01*
X149922000Y-103560999D01*
G75*
G02*
X150171999Y-103311000I249999J0D01*
G01*
G37*
%TD.AperFunction*%
%TD*%
%TO.P,L3,1*%
%TO.N,Net-(J1-Pad2)*%
%TA.AperFunction,SMDPad,CuDef*%
G36*
G01*
X147631999Y-101261000D02*
X148532001Y-101261000D01*
G75*
G02*
X148782000Y-101510999I0J-249999D01*
G01*
X148782000Y-102161001D01*
G75*
G02*
X148532001Y-102411000I-249999J0D01*
G01*
X147631999Y-102411000D01*
G75*
G02*
X147382000Y-102161001I0J249999D01*
G01*
X147382000Y-101510999D01*
G75*
G02*
X147631999Y-101261000I249999J0D01*
G01*
G37*
%TD.AperFunction*%
%TO.P,L3,2*%
%TO.N,GND*%
%TA.AperFunction,SMDPad,CuDef*%
G36*
G01*
X147631999Y-103311000D02*
X148532001Y-103311000D01*
G75*
G02*
X148782000Y-103560999I0J-249999D01*
G01*
X148782000Y-104211001D01*
G75*
G02*
X148532001Y-104461000I-249999J0D01*
G01*
X147631999Y-104461000D01*
G75*
G02*
X147382000Y-104211001I0J249999D01*
G01*
X147382000Y-103560999D01*
G75*
G02*
X147631999Y-103311000I249999J0D01*
G01*
G37*
%TD.AperFunction*%
%TD*%
D16*
%TO.P,J3,1*%
%TO.N,GND*%
X171894500Y-111950500D03*
D17*
%TO.P,J3,2*%
%TO.N,L_PRO*%
X171994500Y-102550500D03*
D16*
%TO.P,J3,3*%
%TO.N,R_PRO*%
X164494500Y-109950500D03*
%TD*%
D18*
%TO.P,J4,1*%
%TO.N,L_PRO*%
X160401000Y-98996500D03*
%TD*%
%TO.P,J5,1*%
%TO.N,R_PRO*%
X157734000Y-98996500D03*
%TD*%
D19*
%TO.N,LEFT*%
X156972000Y-104673500D03*
%TO.N,GND*%
X172529500Y-98488500D03*
X155067000Y-98933000D03*
X151892000Y-100393500D03*
%TD*%
D20*
%TO.N,LEFT*%
X156972000Y-103061000D02*
X156972500Y-103060500D01*
X156972000Y-104673500D02*
X156972000Y-103061000D01*
%TO.N,Net-(C1-Pad1)*%
X153162000Y-103886000D02*
X154749500Y-105473500D01*
X158559500Y-105473500D02*
X160972500Y-103060500D01*
X154749500Y-105473500D02*
X158559500Y-105473500D01*
%TO.N,Net-(C2-Pad1)*%
X158559000Y-107315000D02*
X160972000Y-109728000D01*
X150622000Y-103886000D02*
X154051000Y-107315000D01*
X154051000Y-107315000D02*
X158559000Y-107315000D01*
%TO.N,RIGHT*%
X153035000Y-113665000D02*
X156972000Y-109728000D01*
X138239500Y-113665000D02*
X153035000Y-113665000D01*
X132350500Y-104902000D02*
X132350500Y-107776000D01*
X132350500Y-107776000D02*
X138239500Y-113665000D01*
%TO.N,DETECT*%
X145542000Y-99123500D02*
X144653000Y-98234500D01*
X139018000Y-98234500D02*
X137350500Y-99902000D01*
X144653000Y-98234500D02*
X139018000Y-98234500D01*
%TO.N,Net-(J1-Pad2)*%
X148082000Y-99123500D02*
X148082000Y-101836000D01*
%TO.N,Net-(J1-Pad3)*%
X150622000Y-99123500D02*
X150622000Y-101836000D01*
%TO.N,Net-(J1-Pad4)*%
X153162000Y-99123500D02*
X153162000Y-101836000D01*
%TO.N,L_PRO*%
X167955500Y-102550500D02*
X171994500Y-102550500D01*
X160401000Y-98996500D02*
X164401500Y-98996500D01*
X164401500Y-98996500D02*
X167955500Y-102550500D01*
%TO.N,R_PRO*%
X157734000Y-98996500D02*
X159321500Y-100584000D01*
X159321500Y-100584000D02*
X162687000Y-100584000D01*
X164494500Y-102391500D02*
X164494500Y-109950500D01*
X162687000Y-100584000D02*
X164494500Y-102391500D01*
%TD*%
D21*
%TO.N,GND*%
G36*
X137607691Y-98725571D02*
G01*
X137469084Y-98698000D01*
X137231916Y-98698000D01*
X136999306Y-98744269D01*
X136780192Y-98835029D01*
X136582995Y-98966792D01*
X136415292Y-99134495D01*
X136283529Y-99331692D01*
X136192769Y-99550806D01*
X136146500Y-99783416D01*
X136146500Y-100020584D01*
X136192769Y-100253194D01*
X136283529Y-100472308D01*
X136415292Y-100669505D01*
X136582995Y-100837208D01*
X136780192Y-100968971D01*
X136999306Y-101059731D01*
X137231916Y-101106000D01*
X137469084Y-101106000D01*
X137701694Y-101059731D01*
X137920808Y-100968971D01*
X138118005Y-100837208D01*
X138285708Y-100669505D01*
X138417471Y-100472308D01*
X138508231Y-100253194D01*
X138554500Y-100020584D01*
X138554500Y-99783416D01*
X138526929Y-99644809D01*
X138743565Y-99428174D01*
X138692769Y-99550806D01*
X138646500Y-99783416D01*
X138646500Y-100020584D01*
X138692769Y-100253194D01*
X138783529Y-100472308D01*
X138915292Y-100669505D01*
X139082995Y-100837208D01*
X139280192Y-100968971D01*
X139499306Y-101059731D01*
X139731916Y-101106000D01*
X139969084Y-101106000D01*
X140201694Y-101059731D01*
X140420808Y-100968971D01*
X140618005Y-100837208D01*
X140785708Y-100669505D01*
X140917471Y-100472308D01*
X141008231Y-100253194D01*
X141054500Y-100020584D01*
X141054500Y-99783416D01*
X141008231Y-99550806D01*
X140917471Y-99331692D01*
X140785708Y-99134495D01*
X140618005Y-98966792D01*
X140494846Y-98884500D01*
X142083692Y-98884500D01*
X142044226Y-98892350D01*
X141853138Y-98971502D01*
X141681164Y-99086411D01*
X141534911Y-99232664D01*
X141420002Y-99404638D01*
X141340850Y-99595726D01*
X141300500Y-99798584D01*
X141300500Y-100005416D01*
X141340850Y-100208274D01*
X141420002Y-100399362D01*
X141534911Y-100571336D01*
X141681164Y-100717589D01*
X141853138Y-100832498D01*
X142044226Y-100911650D01*
X142247084Y-100952000D01*
X142453916Y-100952000D01*
X142656774Y-100911650D01*
X142847862Y-100832498D01*
X143019836Y-100717589D01*
X143166089Y-100571336D01*
X143280998Y-100399362D01*
X143360150Y-100208274D01*
X143400500Y-100005416D01*
X143400500Y-99798584D01*
X143360150Y-99595726D01*
X143280998Y-99404638D01*
X143166089Y-99232664D01*
X143019836Y-99086411D01*
X142847862Y-98971502D01*
X142656774Y-98892350D01*
X142617308Y-98884500D01*
X144239823Y-98884500D01*
X144239823Y-99973500D01*
X144248511Y-100061715D01*
X144274243Y-100146541D01*
X144316029Y-100224716D01*
X144372263Y-100293237D01*
X144440784Y-100349471D01*
X144518959Y-100391257D01*
X144603785Y-100416989D01*
X144692000Y-100425677D01*
X146392000Y-100425677D01*
X146480215Y-100416989D01*
X146565041Y-100391257D01*
X146643216Y-100349471D01*
X146711737Y-100293237D01*
X146767971Y-100224716D01*
X146809757Y-100146541D01*
X146835489Y-100061715D01*
X146844177Y-99973500D01*
X146844177Y-99532195D01*
X146929955Y-99739281D01*
X147072224Y-99952202D01*
X147253298Y-100133276D01*
X147432000Y-100252681D01*
X147432001Y-100841429D01*
X147363288Y-100862273D01*
X147241891Y-100927161D01*
X147135486Y-101014486D01*
X147048161Y-101120891D01*
X146983273Y-101242288D01*
X146943315Y-101374011D01*
X146929823Y-101510999D01*
X146929823Y-102161001D01*
X146943315Y-102297989D01*
X146983273Y-102429712D01*
X147048161Y-102551109D01*
X147135486Y-102657514D01*
X147241891Y-102744839D01*
X147363288Y-102809727D01*
X147495011Y-102849685D01*
X147596209Y-102859652D01*
X147382000Y-102858823D01*
X147293785Y-102867511D01*
X147208959Y-102893243D01*
X147130784Y-102935029D01*
X147062263Y-102991263D01*
X147006029Y-103059784D01*
X146964243Y-103137959D01*
X146938511Y-103222785D01*
X146929823Y-103311000D01*
X146932000Y-103748500D01*
X147044500Y-103861000D01*
X148057000Y-103861000D01*
X148057000Y-103841000D01*
X148107000Y-103841000D01*
X148107000Y-103861000D01*
X149119500Y-103861000D01*
X149232000Y-103748500D01*
X149234177Y-103311000D01*
X149225489Y-103222785D01*
X149199757Y-103137959D01*
X149157971Y-103059784D01*
X149101737Y-102991263D01*
X149033216Y-102935029D01*
X148955041Y-102893243D01*
X148870215Y-102867511D01*
X148782000Y-102858823D01*
X148567791Y-102859652D01*
X148668989Y-102849685D01*
X148800712Y-102809727D01*
X148922109Y-102744839D01*
X149028514Y-102657514D01*
X149115839Y-102551109D01*
X149180727Y-102429712D01*
X149220685Y-102297989D01*
X149234177Y-102161001D01*
X149234177Y-101510999D01*
X149220685Y-101374011D01*
X149180727Y-101242288D01*
X149115839Y-101120891D01*
X149028514Y-101014486D01*
X148922109Y-100927161D01*
X148800712Y-100862273D01*
X148732000Y-100841429D01*
X148732000Y-100252681D01*
X148910702Y-100133276D01*
X149091776Y-99952202D01*
X149234045Y-99739281D01*
X149332042Y-99502696D01*
X149352000Y-99402360D01*
X149371958Y-99502696D01*
X149469955Y-99739281D01*
X149612224Y-99952202D01*
X149793298Y-100133276D01*
X149972000Y-100252681D01*
X149972001Y-100841429D01*
X149903288Y-100862273D01*
X149781891Y-100927161D01*
X149675486Y-101014486D01*
X149588161Y-101120891D01*
X149523273Y-101242288D01*
X149483315Y-101374011D01*
X149469823Y-101510999D01*
X149469823Y-102161001D01*
X149483315Y-102297989D01*
X149523273Y-102429712D01*
X149588161Y-102551109D01*
X149675486Y-102657514D01*
X149781891Y-102744839D01*
X149903288Y-102809727D01*
X150035011Y-102849685D01*
X150149895Y-102861000D01*
X150035011Y-102872315D01*
X149903288Y-102912273D01*
X149781891Y-102977161D01*
X149675486Y-103064486D01*
X149588161Y-103170891D01*
X149523273Y-103292288D01*
X149483315Y-103424011D01*
X149469823Y-103560999D01*
X149469823Y-104211001D01*
X149483315Y-104347989D01*
X149523273Y-104479712D01*
X149588161Y-104601109D01*
X149675486Y-104707514D01*
X149781891Y-104794839D01*
X149903288Y-104859727D01*
X150035011Y-104899685D01*
X150171999Y-104913177D01*
X150729939Y-104913177D01*
X153568804Y-107752043D01*
X153589157Y-107776843D01*
X153613957Y-107797196D01*
X153613959Y-107797198D01*
X153627039Y-107807932D01*
X153688132Y-107858070D01*
X153801052Y-107918427D01*
X153923578Y-107955595D01*
X154019068Y-107965000D01*
X154019078Y-107965000D01*
X154050999Y-107968144D01*
X154082920Y-107965000D01*
X158289762Y-107965000D01*
X159077259Y-108752497D01*
X159069823Y-108828000D01*
X159069823Y-110628000D01*
X159078511Y-110716215D01*
X159104243Y-110801041D01*
X159146029Y-110879216D01*
X159202263Y-110947737D01*
X159270784Y-111003971D01*
X159348959Y-111045757D01*
X159433785Y-111071489D01*
X159522000Y-111080177D01*
X162422000Y-111080177D01*
X162510215Y-111071489D01*
X162595041Y-111045757D01*
X162642323Y-111020484D01*
X162642323Y-111050500D01*
X162651011Y-111138715D01*
X162676743Y-111223541D01*
X162718529Y-111301716D01*
X162774763Y-111370237D01*
X162843284Y-111426471D01*
X162921459Y-111468257D01*
X163006285Y-111493989D01*
X163094500Y-111502677D01*
X165894500Y-111502677D01*
X165982715Y-111493989D01*
X166067541Y-111468257D01*
X166145716Y-111426471D01*
X166214237Y-111370237D01*
X166270471Y-111301716D01*
X166312257Y-111223541D01*
X166337989Y-111138715D01*
X166346677Y-111050500D01*
X166346677Y-110722461D01*
X166894500Y-110722461D01*
X166894500Y-110978539D01*
X166944458Y-111229696D01*
X167042455Y-111466281D01*
X167184724Y-111679202D01*
X167365798Y-111860276D01*
X167578719Y-112002545D01*
X167815304Y-112100542D01*
X168066461Y-112150500D01*
X168322539Y-112150500D01*
X168573696Y-112100542D01*
X168810281Y-112002545D01*
X169023202Y-111860276D01*
X169204276Y-111679202D01*
X169346545Y-111466281D01*
X169444542Y-111229696D01*
X169494500Y-110978539D01*
X169494500Y-110850500D01*
X170042323Y-110850500D01*
X170044500Y-111813000D01*
X170157000Y-111925500D01*
X171869500Y-111925500D01*
X171869500Y-110513000D01*
X171757000Y-110400500D01*
X170494500Y-110398323D01*
X170406285Y-110407011D01*
X170321459Y-110432743D01*
X170243284Y-110474529D01*
X170174763Y-110530763D01*
X170118529Y-110599284D01*
X170076743Y-110677459D01*
X170051011Y-110762285D01*
X170042323Y-110850500D01*
X169494500Y-110850500D01*
X169494500Y-110722461D01*
X169444542Y-110471304D01*
X169346545Y-110234719D01*
X169204276Y-110021798D01*
X169023202Y-109840724D01*
X168810281Y-109698455D01*
X168573696Y-109600458D01*
X168322539Y-109550500D01*
X168066461Y-109550500D01*
X167815304Y-109600458D01*
X167578719Y-109698455D01*
X167365798Y-109840724D01*
X167184724Y-110021798D01*
X167042455Y-110234719D01*
X166944458Y-110471304D01*
X166894500Y-110722461D01*
X166346677Y-110722461D01*
X166346677Y-108850500D01*
X166337989Y-108762285D01*
X166312257Y-108677459D01*
X166270471Y-108599284D01*
X166214237Y-108530763D01*
X166145716Y-108474529D01*
X166067541Y-108432743D01*
X165982715Y-108407011D01*
X165894500Y-108398323D01*
X165144500Y-108398323D01*
X165144500Y-102423421D01*
X165147644Y-102391499D01*
X165144500Y-102359578D01*
X165144500Y-102359568D01*
X165135095Y-102264078D01*
X165097927Y-102141552D01*
X165060903Y-102072285D01*
X165037570Y-102028631D01*
X164976698Y-101954459D01*
X164976696Y-101954457D01*
X164956343Y-101929657D01*
X164931544Y-101909306D01*
X163169200Y-100146962D01*
X163148843Y-100122157D01*
X163049868Y-100040930D01*
X162936948Y-99980573D01*
X162814422Y-99943405D01*
X162718932Y-99934000D01*
X162718921Y-99934000D01*
X162687000Y-99930856D01*
X162655079Y-99934000D01*
X161561028Y-99934000D01*
X161568757Y-99919541D01*
X161594489Y-99834715D01*
X161603177Y-99746500D01*
X161603177Y-99646500D01*
X164132262Y-99646500D01*
X167346142Y-102860380D01*
X167184724Y-103021798D01*
X167042455Y-103234719D01*
X166944458Y-103471304D01*
X166894500Y-103722461D01*
X166894500Y-103978539D01*
X166944458Y-104229696D01*
X167042455Y-104466281D01*
X167184724Y-104679202D01*
X167365798Y-104860276D01*
X167578719Y-105002545D01*
X167815304Y-105100542D01*
X168066461Y-105150500D01*
X168322539Y-105150500D01*
X168573696Y-105100542D01*
X168810281Y-105002545D01*
X169023202Y-104860276D01*
X169204276Y-104679202D01*
X169346545Y-104466281D01*
X169444542Y-104229696D01*
X169494500Y-103978539D01*
X169494500Y-103722461D01*
X169444542Y-103471304D01*
X169346545Y-103234719D01*
X169323681Y-103200500D01*
X170242323Y-103200500D01*
X170242323Y-103950500D01*
X170251011Y-104038715D01*
X170276743Y-104123541D01*
X170318529Y-104201716D01*
X170374763Y-104270237D01*
X170443284Y-104326471D01*
X170521459Y-104368257D01*
X170606285Y-104393989D01*
X170694500Y-104402677D01*
X173197501Y-104402677D01*
X173197500Y-110398490D01*
X172032000Y-110400500D01*
X171919500Y-110513000D01*
X171919500Y-111925500D01*
X171939500Y-111925500D01*
X171939500Y-111975500D01*
X171919500Y-111975500D01*
X171919500Y-113388000D01*
X172032000Y-113500500D01*
X173197500Y-113502510D01*
X173197500Y-113825000D01*
X153794238Y-113825000D01*
X154568738Y-113050500D01*
X170042323Y-113050500D01*
X170051011Y-113138715D01*
X170076743Y-113223541D01*
X170118529Y-113301716D01*
X170174763Y-113370237D01*
X170243284Y-113426471D01*
X170321459Y-113468257D01*
X170406285Y-113493989D01*
X170494500Y-113502677D01*
X171757000Y-113500500D01*
X171869500Y-113388000D01*
X171869500Y-111975500D01*
X170157000Y-111975500D01*
X170044500Y-112088000D01*
X170042323Y-113050500D01*
X154568738Y-113050500D01*
X156539061Y-111080177D01*
X158422000Y-111080177D01*
X158510215Y-111071489D01*
X158595041Y-111045757D01*
X158673216Y-111003971D01*
X158741737Y-110947737D01*
X158797971Y-110879216D01*
X158839757Y-110801041D01*
X158865489Y-110716215D01*
X158874177Y-110628000D01*
X158874177Y-108828000D01*
X158865489Y-108739785D01*
X158839757Y-108654959D01*
X158797971Y-108576784D01*
X158741737Y-108508263D01*
X158673216Y-108452029D01*
X158595041Y-108410243D01*
X158510215Y-108384511D01*
X158422000Y-108375823D01*
X155522000Y-108375823D01*
X155433785Y-108384511D01*
X155348959Y-108410243D01*
X155270784Y-108452029D01*
X155202263Y-108508263D01*
X155146029Y-108576784D01*
X155104243Y-108654959D01*
X155078511Y-108739785D01*
X155069823Y-108828000D01*
X155069823Y-110628000D01*
X155077259Y-110703503D01*
X152765762Y-113015000D01*
X143203731Y-113015000D01*
X143280998Y-112899362D01*
X143360150Y-112708274D01*
X143400500Y-112505416D01*
X143400500Y-112298584D01*
X143360150Y-112095726D01*
X143280998Y-111904638D01*
X143166089Y-111732664D01*
X143019836Y-111586411D01*
X142847862Y-111471502D01*
X142656774Y-111392350D01*
X142453916Y-111352000D01*
X142247084Y-111352000D01*
X142044226Y-111392350D01*
X141853138Y-111471502D01*
X141681164Y-111586411D01*
X141534911Y-111732664D01*
X141420002Y-111904638D01*
X141340850Y-112095726D01*
X141300500Y-112298584D01*
X141300500Y-112505416D01*
X141340850Y-112708274D01*
X141420002Y-112899362D01*
X141497269Y-113015000D01*
X138508738Y-113015000D01*
X136476004Y-110982266D01*
X136671500Y-111006000D01*
X137325500Y-111006000D01*
X137325500Y-109927000D01*
X137375500Y-109927000D01*
X137375500Y-111006000D01*
X138029500Y-111006000D01*
X138244399Y-110979910D01*
X138450079Y-110912396D01*
X138638636Y-110806053D01*
X138802823Y-110664968D01*
X138936331Y-110494563D01*
X139034029Y-110301386D01*
X139090718Y-110099352D01*
X138995685Y-109927000D01*
X137375500Y-109927000D01*
X137325500Y-109927000D01*
X135705315Y-109927000D01*
X135610282Y-110099352D01*
X135616987Y-110123249D01*
X135198386Y-109704648D01*
X135610282Y-109704648D01*
X135705315Y-109877000D01*
X137325500Y-109877000D01*
X137325500Y-108798000D01*
X137375500Y-108798000D01*
X137375500Y-109877000D01*
X138995685Y-109877000D01*
X139038922Y-109798584D01*
X141300500Y-109798584D01*
X141300500Y-110005416D01*
X141340850Y-110208274D01*
X141420002Y-110399362D01*
X141534911Y-110571336D01*
X141681164Y-110717589D01*
X141853138Y-110832498D01*
X142044226Y-110911650D01*
X142247084Y-110952000D01*
X142453916Y-110952000D01*
X142656774Y-110911650D01*
X142847862Y-110832498D01*
X143019836Y-110717589D01*
X143166089Y-110571336D01*
X143280998Y-110399362D01*
X143360150Y-110208274D01*
X143400500Y-110005416D01*
X143400500Y-109798584D01*
X143360150Y-109595726D01*
X143280998Y-109404638D01*
X143166089Y-109232664D01*
X143064263Y-109130838D01*
X143674500Y-109130838D01*
X143674500Y-109436162D01*
X143734065Y-109735618D01*
X143850908Y-110017700D01*
X144020536Y-110271568D01*
X144236432Y-110487464D01*
X144490300Y-110657092D01*
X144772382Y-110773935D01*
X145071838Y-110833500D01*
X145377162Y-110833500D01*
X145676618Y-110773935D01*
X145958700Y-110657092D01*
X146212568Y-110487464D01*
X146428464Y-110271568D01*
X146598092Y-110017700D01*
X146714935Y-109735618D01*
X146774500Y-109436162D01*
X146774500Y-109130838D01*
X146714935Y-108831382D01*
X146598092Y-108549300D01*
X146428464Y-108295432D01*
X146212568Y-108079536D01*
X145958700Y-107909908D01*
X145676618Y-107793065D01*
X145377162Y-107733500D01*
X145071838Y-107733500D01*
X144772382Y-107793065D01*
X144490300Y-107909908D01*
X144236432Y-108079536D01*
X144020536Y-108295432D01*
X143850908Y-108549300D01*
X143734065Y-108831382D01*
X143674500Y-109130838D01*
X143064263Y-109130838D01*
X143019836Y-109086411D01*
X142847862Y-108971502D01*
X142656774Y-108892350D01*
X142453916Y-108852000D01*
X142247084Y-108852000D01*
X142044226Y-108892350D01*
X141853138Y-108971502D01*
X141681164Y-109086411D01*
X141534911Y-109232664D01*
X141420002Y-109404638D01*
X141340850Y-109595726D01*
X141300500Y-109798584D01*
X139038922Y-109798584D01*
X139090718Y-109704648D01*
X139034029Y-109502614D01*
X138936331Y-109309437D01*
X138802823Y-109139032D01*
X138638636Y-108997947D01*
X138450079Y-108891604D01*
X138244399Y-108824090D01*
X138029500Y-108798000D01*
X137375500Y-108798000D01*
X137325500Y-108798000D01*
X136671500Y-108798000D01*
X136456601Y-108824090D01*
X136250921Y-108891604D01*
X136062364Y-108997947D01*
X135898177Y-109139032D01*
X135764669Y-109309437D01*
X135666971Y-109502614D01*
X135610282Y-109704648D01*
X135198386Y-109704648D01*
X133000500Y-107506762D01*
X133000500Y-106450740D01*
X133134923Y-106340423D01*
X133272883Y-106172317D01*
X133375397Y-105980526D01*
X133438525Y-105772422D01*
X133454500Y-105610227D01*
X133454500Y-104798584D01*
X136300500Y-104798584D01*
X136300500Y-105005416D01*
X136340850Y-105208274D01*
X136420002Y-105399362D01*
X136534911Y-105571336D01*
X136681164Y-105717589D01*
X136853138Y-105832498D01*
X137044226Y-105911650D01*
X137247084Y-105952000D01*
X137453916Y-105952000D01*
X137656774Y-105911650D01*
X137847862Y-105832498D01*
X138019836Y-105717589D01*
X138166089Y-105571336D01*
X138280998Y-105399362D01*
X138360150Y-105208274D01*
X138400500Y-105005416D01*
X138400500Y-104798584D01*
X138360150Y-104595726D01*
X138280998Y-104404638D01*
X138166089Y-104232664D01*
X138127199Y-104193774D01*
X141246500Y-104193774D01*
X141246500Y-105610227D01*
X141262475Y-105772422D01*
X141325604Y-105980526D01*
X141428118Y-106172317D01*
X141566078Y-106340423D01*
X141734184Y-106478383D01*
X141925975Y-106580897D01*
X142134079Y-106644025D01*
X142350500Y-106665341D01*
X142566922Y-106644025D01*
X142775026Y-106580897D01*
X142966817Y-106478383D01*
X143134923Y-106340423D01*
X143272883Y-106172317D01*
X143375397Y-105980526D01*
X143438525Y-105772422D01*
X143454500Y-105610227D01*
X143454500Y-104461000D01*
X146929823Y-104461000D01*
X146938511Y-104549215D01*
X146964243Y-104634041D01*
X147006029Y-104712216D01*
X147062263Y-104780737D01*
X147130784Y-104836971D01*
X147208959Y-104878757D01*
X147293785Y-104904489D01*
X147382000Y-104913177D01*
X147944500Y-104911000D01*
X148057000Y-104798500D01*
X148057000Y-103911000D01*
X148107000Y-103911000D01*
X148107000Y-104798500D01*
X148219500Y-104911000D01*
X148782000Y-104913177D01*
X148870215Y-104904489D01*
X148955041Y-104878757D01*
X149033216Y-104836971D01*
X149101737Y-104780737D01*
X149157971Y-104712216D01*
X149199757Y-104634041D01*
X149225489Y-104549215D01*
X149234177Y-104461000D01*
X149232000Y-104023500D01*
X149119500Y-103911000D01*
X148107000Y-103911000D01*
X148057000Y-103911000D01*
X147044500Y-103911000D01*
X146932000Y-104023500D01*
X146929823Y-104461000D01*
X143454500Y-104461000D01*
X143454500Y-104193773D01*
X143438525Y-104031578D01*
X143375397Y-103823474D01*
X143272883Y-103631683D01*
X143134923Y-103463577D01*
X142966817Y-103325617D01*
X142775025Y-103223103D01*
X142566921Y-103159975D01*
X142350500Y-103138659D01*
X142134078Y-103159975D01*
X141925974Y-103223103D01*
X141734183Y-103325617D01*
X141566077Y-103463577D01*
X141428117Y-103631683D01*
X141325603Y-103823475D01*
X141262475Y-104031579D01*
X141246500Y-104193774D01*
X138127199Y-104193774D01*
X138019836Y-104086411D01*
X137847862Y-103971502D01*
X137656774Y-103892350D01*
X137453916Y-103852000D01*
X137247084Y-103852000D01*
X137044226Y-103892350D01*
X136853138Y-103971502D01*
X136681164Y-104086411D01*
X136534911Y-104232664D01*
X136420002Y-104404638D01*
X136340850Y-104595726D01*
X136300500Y-104798584D01*
X133454500Y-104798584D01*
X133454500Y-104193773D01*
X133438525Y-104031578D01*
X133375397Y-103823474D01*
X133272883Y-103631683D01*
X133134923Y-103463577D01*
X132966817Y-103325617D01*
X132775025Y-103223103D01*
X132566921Y-103159975D01*
X132350500Y-103138659D01*
X132134078Y-103159975D01*
X131925974Y-103223103D01*
X131734183Y-103325617D01*
X131566077Y-103463577D01*
X131428117Y-103631683D01*
X131325603Y-103823475D01*
X131262475Y-104031579D01*
X131246500Y-104193774D01*
X131246500Y-105610227D01*
X131262475Y-105772422D01*
X131325604Y-105980526D01*
X131428118Y-106172317D01*
X131566078Y-106340423D01*
X131700501Y-106450740D01*
X131700501Y-107744069D01*
X131697356Y-107776000D01*
X131709906Y-107903422D01*
X131747073Y-108025947D01*
X131807430Y-108138868D01*
X131868302Y-108213040D01*
X131868305Y-108213043D01*
X131888658Y-108237843D01*
X131913458Y-108258196D01*
X132520508Y-108865246D01*
X132453916Y-108852000D01*
X132247084Y-108852000D01*
X132044226Y-108892350D01*
X131853138Y-108971502D01*
X131681164Y-109086411D01*
X131534911Y-109232664D01*
X131420002Y-109404638D01*
X131340850Y-109595726D01*
X131300500Y-109798584D01*
X131300500Y-110005416D01*
X131340850Y-110208274D01*
X131420002Y-110399362D01*
X131534911Y-110571336D01*
X131681164Y-110717589D01*
X131853138Y-110832498D01*
X132044226Y-110911650D01*
X132247084Y-110952000D01*
X132453916Y-110952000D01*
X132656774Y-110911650D01*
X132847862Y-110832498D01*
X133019836Y-110717589D01*
X133166089Y-110571336D01*
X133280998Y-110399362D01*
X133360150Y-110208274D01*
X133400500Y-110005416D01*
X133400500Y-109798584D01*
X133387254Y-109731992D01*
X137480262Y-113825000D01*
X127475000Y-113825000D01*
X127475000Y-112298584D01*
X131300500Y-112298584D01*
X131300500Y-112505416D01*
X131340850Y-112708274D01*
X131420002Y-112899362D01*
X131534911Y-113071336D01*
X131681164Y-113217589D01*
X131853138Y-113332498D01*
X132044226Y-113411650D01*
X132247084Y-113452000D01*
X132453916Y-113452000D01*
X132656774Y-113411650D01*
X132847862Y-113332498D01*
X133019836Y-113217589D01*
X133166089Y-113071336D01*
X133280998Y-112899362D01*
X133360150Y-112708274D01*
X133400500Y-112505416D01*
X133400500Y-112298584D01*
X133360150Y-112095726D01*
X133280998Y-111904638D01*
X133166089Y-111732664D01*
X133019836Y-111586411D01*
X132847862Y-111471502D01*
X132656774Y-111392350D01*
X132453916Y-111352000D01*
X132247084Y-111352000D01*
X132044226Y-111392350D01*
X131853138Y-111471502D01*
X131681164Y-111586411D01*
X131534911Y-111732664D01*
X131420002Y-111904638D01*
X131340850Y-112095726D01*
X131300500Y-112298584D01*
X127475000Y-112298584D01*
X127475000Y-109130838D01*
X127926500Y-109130838D01*
X127926500Y-109436162D01*
X127986065Y-109735618D01*
X128102908Y-110017700D01*
X128272536Y-110271568D01*
X128488432Y-110487464D01*
X128742300Y-110657092D01*
X129024382Y-110773935D01*
X129323838Y-110833500D01*
X129629162Y-110833500D01*
X129928618Y-110773935D01*
X130210700Y-110657092D01*
X130464568Y-110487464D01*
X130680464Y-110271568D01*
X130850092Y-110017700D01*
X130966935Y-109735618D01*
X131026500Y-109436162D01*
X131026500Y-109130838D01*
X130966935Y-108831382D01*
X130850092Y-108549300D01*
X130680464Y-108295432D01*
X130464568Y-108079536D01*
X130210700Y-107909908D01*
X129928618Y-107793065D01*
X129629162Y-107733500D01*
X129323838Y-107733500D01*
X129024382Y-107793065D01*
X128742300Y-107909908D01*
X128488432Y-108079536D01*
X128272536Y-108295432D01*
X128102908Y-108549300D01*
X127986065Y-108831382D01*
X127926500Y-109130838D01*
X127475000Y-109130838D01*
X127475000Y-101987250D01*
X129663666Y-99798584D01*
X131300500Y-99798584D01*
X131300500Y-100005416D01*
X131340850Y-100208274D01*
X131420002Y-100399362D01*
X131534911Y-100571336D01*
X131681164Y-100717589D01*
X131853138Y-100832498D01*
X132044226Y-100911650D01*
X132247084Y-100952000D01*
X132453916Y-100952000D01*
X132656774Y-100911650D01*
X132847862Y-100832498D01*
X133019836Y-100717589D01*
X133042022Y-100695403D01*
X134092453Y-100695403D01*
X134159759Y-100895255D01*
X134366806Y-101010927D01*
X134592442Y-101083983D01*
X134827994Y-101111616D01*
X135064411Y-101092765D01*
X135292608Y-101028153D01*
X135503814Y-100920263D01*
X135541241Y-100895255D01*
X135608547Y-100695403D01*
X134850500Y-99937355D01*
X134092453Y-100695403D01*
X133042022Y-100695403D01*
X133166089Y-100571336D01*
X133280998Y-100399362D01*
X133360150Y-100208274D01*
X133400500Y-100005416D01*
X133400500Y-99879494D01*
X133640884Y-99879494D01*
X133659735Y-100115911D01*
X133724347Y-100344108D01*
X133832237Y-100555314D01*
X133857245Y-100592741D01*
X134057097Y-100660047D01*
X134815145Y-99902000D01*
X134885855Y-99902000D01*
X135643903Y-100660047D01*
X135843755Y-100592741D01*
X135959427Y-100385694D01*
X136032483Y-100160058D01*
X136060116Y-99924506D01*
X136041265Y-99688089D01*
X135976653Y-99459892D01*
X135868763Y-99248686D01*
X135843755Y-99211259D01*
X135643903Y-99143953D01*
X134885855Y-99902000D01*
X134815145Y-99902000D01*
X134057097Y-99143953D01*
X133857245Y-99211259D01*
X133741573Y-99418306D01*
X133668517Y-99643942D01*
X133640884Y-99879494D01*
X133400500Y-99879494D01*
X133400500Y-99798584D01*
X133360150Y-99595726D01*
X133280998Y-99404638D01*
X133166089Y-99232664D01*
X133042022Y-99108597D01*
X134092453Y-99108597D01*
X134850500Y-99866645D01*
X135608547Y-99108597D01*
X135541241Y-98908745D01*
X135334194Y-98793073D01*
X135108558Y-98720017D01*
X134873006Y-98692384D01*
X134636589Y-98711235D01*
X134408392Y-98775847D01*
X134197186Y-98883737D01*
X134159759Y-98908745D01*
X134092453Y-99108597D01*
X133042022Y-99108597D01*
X133019836Y-99086411D01*
X132847862Y-98971502D01*
X132656774Y-98892350D01*
X132453916Y-98852000D01*
X132247084Y-98852000D01*
X132044226Y-98892350D01*
X131853138Y-98971502D01*
X131681164Y-99086411D01*
X131534911Y-99232664D01*
X131420002Y-99404638D01*
X131340850Y-99595726D01*
X131300500Y-99798584D01*
X129663666Y-99798584D01*
X131514751Y-97947500D01*
X138385761Y-97947500D01*
X137607691Y-98725571D01*
G37*
X137607691Y-98725571D02*
X137469084Y-98698000D01*
X137231916Y-98698000D01*
X136999306Y-98744269D01*
X136780192Y-98835029D01*
X136582995Y-98966792D01*
X136415292Y-99134495D01*
X136283529Y-99331692D01*
X136192769Y-99550806D01*
X136146500Y-99783416D01*
X136146500Y-100020584D01*
X136192769Y-100253194D01*
X136283529Y-100472308D01*
X136415292Y-100669505D01*
X136582995Y-100837208D01*
X136780192Y-100968971D01*
X136999306Y-101059731D01*
X137231916Y-101106000D01*
X137469084Y-101106000D01*
X137701694Y-101059731D01*
X137920808Y-100968971D01*
X138118005Y-100837208D01*
X138285708Y-100669505D01*
X138417471Y-100472308D01*
X138508231Y-100253194D01*
X138554500Y-100020584D01*
X138554500Y-99783416D01*
X138526929Y-99644809D01*
X138743565Y-99428174D01*
X138692769Y-99550806D01*
X138646500Y-99783416D01*
X138646500Y-100020584D01*
X138692769Y-100253194D01*
X138783529Y-100472308D01*
X138915292Y-100669505D01*
X139082995Y-100837208D01*
X139280192Y-100968971D01*
X139499306Y-101059731D01*
X139731916Y-101106000D01*
X139969084Y-101106000D01*
X140201694Y-101059731D01*
X140420808Y-100968971D01*
X140618005Y-100837208D01*
X140785708Y-100669505D01*
X140917471Y-100472308D01*
X141008231Y-100253194D01*
X141054500Y-100020584D01*
X141054500Y-99783416D01*
X141008231Y-99550806D01*
X140917471Y-99331692D01*
X140785708Y-99134495D01*
X140618005Y-98966792D01*
X140494846Y-98884500D01*
X142083692Y-98884500D01*
X142044226Y-98892350D01*
X141853138Y-98971502D01*
X141681164Y-99086411D01*
X141534911Y-99232664D01*
X141420002Y-99404638D01*
X141340850Y-99595726D01*
X141300500Y-99798584D01*
X141300500Y-100005416D01*
X141340850Y-100208274D01*
X141420002Y-100399362D01*
X141534911Y-100571336D01*
X141681164Y-100717589D01*
X141853138Y-100832498D01*
X142044226Y-100911650D01*
X142247084Y-100952000D01*
X142453916Y-100952000D01*
X142656774Y-100911650D01*
X142847862Y-100832498D01*
X143019836Y-100717589D01*
X143166089Y-100571336D01*
X143280998Y-100399362D01*
X143360150Y-100208274D01*
X143400500Y-100005416D01*
X143400500Y-99798584D01*
X143360150Y-99595726D01*
X143280998Y-99404638D01*
X143166089Y-99232664D01*
X143019836Y-99086411D01*
X142847862Y-98971502D01*
X142656774Y-98892350D01*
X142617308Y-98884500D01*
X144239823Y-98884500D01*
X144239823Y-99973500D01*
X144248511Y-100061715D01*
X144274243Y-100146541D01*
X144316029Y-100224716D01*
X144372263Y-100293237D01*
X144440784Y-100349471D01*
X144518959Y-100391257D01*
X144603785Y-100416989D01*
X144692000Y-100425677D01*
X146392000Y-100425677D01*
X146480215Y-100416989D01*
X146565041Y-100391257D01*
X146643216Y-100349471D01*
X146711737Y-100293237D01*
X146767971Y-100224716D01*
X146809757Y-100146541D01*
X146835489Y-100061715D01*
X146844177Y-99973500D01*
X146844177Y-99532195D01*
X146929955Y-99739281D01*
X147072224Y-99952202D01*
X147253298Y-100133276D01*
X147432000Y-100252681D01*
X147432001Y-100841429D01*
X147363288Y-100862273D01*
X147241891Y-100927161D01*
X147135486Y-101014486D01*
X147048161Y-101120891D01*
X146983273Y-101242288D01*
X146943315Y-101374011D01*
X146929823Y-101510999D01*
X146929823Y-102161001D01*
X146943315Y-102297989D01*
X146983273Y-102429712D01*
X147048161Y-102551109D01*
X147135486Y-102657514D01*
X147241891Y-102744839D01*
X147363288Y-102809727D01*
X147495011Y-102849685D01*
X147596209Y-102859652D01*
X147382000Y-102858823D01*
X147293785Y-102867511D01*
X147208959Y-102893243D01*
X147130784Y-102935029D01*
X147062263Y-102991263D01*
X147006029Y-103059784D01*
X146964243Y-103137959D01*
X146938511Y-103222785D01*
X146929823Y-103311000D01*
X146932000Y-103748500D01*
X147044500Y-103861000D01*
X148057000Y-103861000D01*
X148057000Y-103841000D01*
X148107000Y-103841000D01*
X148107000Y-103861000D01*
X149119500Y-103861000D01*
X149232000Y-103748500D01*
X149234177Y-103311000D01*
X149225489Y-103222785D01*
X149199757Y-103137959D01*
X149157971Y-103059784D01*
X149101737Y-102991263D01*
X149033216Y-102935029D01*
X148955041Y-102893243D01*
X148870215Y-102867511D01*
X148782000Y-102858823D01*
X148567791Y-102859652D01*
X148668989Y-102849685D01*
X148800712Y-102809727D01*
X148922109Y-102744839D01*
X149028514Y-102657514D01*
X149115839Y-102551109D01*
X149180727Y-102429712D01*
X149220685Y-102297989D01*
X149234177Y-102161001D01*
X149234177Y-101510999D01*
X149220685Y-101374011D01*
X149180727Y-101242288D01*
X149115839Y-101120891D01*
X149028514Y-101014486D01*
X148922109Y-100927161D01*
X148800712Y-100862273D01*
X148732000Y-100841429D01*
X148732000Y-100252681D01*
X148910702Y-100133276D01*
X149091776Y-99952202D01*
X149234045Y-99739281D01*
X149332042Y-99502696D01*
X149352000Y-99402360D01*
X149371958Y-99502696D01*
X149469955Y-99739281D01*
X149612224Y-99952202D01*
X149793298Y-100133276D01*
X149972000Y-100252681D01*
X149972001Y-100841429D01*
X149903288Y-100862273D01*
X149781891Y-100927161D01*
X149675486Y-101014486D01*
X149588161Y-101120891D01*
X149523273Y-101242288D01*
X149483315Y-101374011D01*
X149469823Y-101510999D01*
X149469823Y-102161001D01*
X149483315Y-102297989D01*
X149523273Y-102429712D01*
X149588161Y-102551109D01*
X149675486Y-102657514D01*
X149781891Y-102744839D01*
X149903288Y-102809727D01*
X150035011Y-102849685D01*
X150149895Y-102861000D01*
X150035011Y-102872315D01*
X149903288Y-102912273D01*
X149781891Y-102977161D01*
X149675486Y-103064486D01*
X149588161Y-103170891D01*
X149523273Y-103292288D01*
X149483315Y-103424011D01*
X149469823Y-103560999D01*
X149469823Y-104211001D01*
X149483315Y-104347989D01*
X149523273Y-104479712D01*
X149588161Y-104601109D01*
X149675486Y-104707514D01*
X149781891Y-104794839D01*
X149903288Y-104859727D01*
X150035011Y-104899685D01*
X150171999Y-104913177D01*
X150729939Y-104913177D01*
X153568804Y-107752043D01*
X153589157Y-107776843D01*
X153613957Y-107797196D01*
X153613959Y-107797198D01*
X153627039Y-107807932D01*
X153688132Y-107858070D01*
X153801052Y-107918427D01*
X153923578Y-107955595D01*
X154019068Y-107965000D01*
X154019078Y-107965000D01*
X154050999Y-107968144D01*
X154082920Y-107965000D01*
X158289762Y-107965000D01*
X159077259Y-108752497D01*
X159069823Y-108828000D01*
X159069823Y-110628000D01*
X159078511Y-110716215D01*
X159104243Y-110801041D01*
X159146029Y-110879216D01*
X159202263Y-110947737D01*
X159270784Y-111003971D01*
X159348959Y-111045757D01*
X159433785Y-111071489D01*
X159522000Y-111080177D01*
X162422000Y-111080177D01*
X162510215Y-111071489D01*
X162595041Y-111045757D01*
X162642323Y-111020484D01*
X162642323Y-111050500D01*
X162651011Y-111138715D01*
X162676743Y-111223541D01*
X162718529Y-111301716D01*
X162774763Y-111370237D01*
X162843284Y-111426471D01*
X162921459Y-111468257D01*
X163006285Y-111493989D01*
X163094500Y-111502677D01*
X165894500Y-111502677D01*
X165982715Y-111493989D01*
X166067541Y-111468257D01*
X166145716Y-111426471D01*
X166214237Y-111370237D01*
X166270471Y-111301716D01*
X166312257Y-111223541D01*
X166337989Y-111138715D01*
X166346677Y-111050500D01*
X166346677Y-110722461D01*
X166894500Y-110722461D01*
X166894500Y-110978539D01*
X166944458Y-111229696D01*
X167042455Y-111466281D01*
X167184724Y-111679202D01*
X167365798Y-111860276D01*
X167578719Y-112002545D01*
X167815304Y-112100542D01*
X168066461Y-112150500D01*
X168322539Y-112150500D01*
X168573696Y-112100542D01*
X168810281Y-112002545D01*
X169023202Y-111860276D01*
X169204276Y-111679202D01*
X169346545Y-111466281D01*
X169444542Y-111229696D01*
X169494500Y-110978539D01*
X169494500Y-110850500D01*
X170042323Y-110850500D01*
X170044500Y-111813000D01*
X170157000Y-111925500D01*
X171869500Y-111925500D01*
X171869500Y-110513000D01*
X171757000Y-110400500D01*
X170494500Y-110398323D01*
X170406285Y-110407011D01*
X170321459Y-110432743D01*
X170243284Y-110474529D01*
X170174763Y-110530763D01*
X170118529Y-110599284D01*
X170076743Y-110677459D01*
X170051011Y-110762285D01*
X170042323Y-110850500D01*
X169494500Y-110850500D01*
X169494500Y-110722461D01*
X169444542Y-110471304D01*
X169346545Y-110234719D01*
X169204276Y-110021798D01*
X169023202Y-109840724D01*
X168810281Y-109698455D01*
X168573696Y-109600458D01*
X168322539Y-109550500D01*
X168066461Y-109550500D01*
X167815304Y-109600458D01*
X167578719Y-109698455D01*
X167365798Y-109840724D01*
X167184724Y-110021798D01*
X167042455Y-110234719D01*
X166944458Y-110471304D01*
X166894500Y-110722461D01*
X166346677Y-110722461D01*
X166346677Y-108850500D01*
X166337989Y-108762285D01*
X166312257Y-108677459D01*
X166270471Y-108599284D01*
X166214237Y-108530763D01*
X166145716Y-108474529D01*
X166067541Y-108432743D01*
X165982715Y-108407011D01*
X165894500Y-108398323D01*
X165144500Y-108398323D01*
X165144500Y-102423421D01*
X165147644Y-102391499D01*
X165144500Y-102359578D01*
X165144500Y-102359568D01*
X165135095Y-102264078D01*
X165097927Y-102141552D01*
X165060903Y-102072285D01*
X165037570Y-102028631D01*
X164976698Y-101954459D01*
X164976696Y-101954457D01*
X164956343Y-101929657D01*
X164931544Y-101909306D01*
X163169200Y-100146962D01*
X163148843Y-100122157D01*
X163049868Y-100040930D01*
X162936948Y-99980573D01*
X162814422Y-99943405D01*
X162718932Y-99934000D01*
X162718921Y-99934000D01*
X162687000Y-99930856D01*
X162655079Y-99934000D01*
X161561028Y-99934000D01*
X161568757Y-99919541D01*
X161594489Y-99834715D01*
X161603177Y-99746500D01*
X161603177Y-99646500D01*
X164132262Y-99646500D01*
X167346142Y-102860380D01*
X167184724Y-103021798D01*
X167042455Y-103234719D01*
X166944458Y-103471304D01*
X166894500Y-103722461D01*
X166894500Y-103978539D01*
X166944458Y-104229696D01*
X167042455Y-104466281D01*
X167184724Y-104679202D01*
X167365798Y-104860276D01*
X167578719Y-105002545D01*
X167815304Y-105100542D01*
X168066461Y-105150500D01*
X168322539Y-105150500D01*
X168573696Y-105100542D01*
X168810281Y-105002545D01*
X169023202Y-104860276D01*
X169204276Y-104679202D01*
X169346545Y-104466281D01*
X169444542Y-104229696D01*
X169494500Y-103978539D01*
X169494500Y-103722461D01*
X169444542Y-103471304D01*
X169346545Y-103234719D01*
X169323681Y-103200500D01*
X170242323Y-103200500D01*
X170242323Y-103950500D01*
X170251011Y-104038715D01*
X170276743Y-104123541D01*
X170318529Y-104201716D01*
X170374763Y-104270237D01*
X170443284Y-104326471D01*
X170521459Y-104368257D01*
X170606285Y-104393989D01*
X170694500Y-104402677D01*
X173197501Y-104402677D01*
X173197500Y-110398490D01*
X172032000Y-110400500D01*
X171919500Y-110513000D01*
X171919500Y-111925500D01*
X171939500Y-111925500D01*
X171939500Y-111975500D01*
X171919500Y-111975500D01*
X171919500Y-113388000D01*
X172032000Y-113500500D01*
X173197500Y-113502510D01*
X173197500Y-113825000D01*
X153794238Y-113825000D01*
X154568738Y-113050500D01*
X170042323Y-113050500D01*
X170051011Y-113138715D01*
X170076743Y-113223541D01*
X170118529Y-113301716D01*
X170174763Y-113370237D01*
X170243284Y-113426471D01*
X170321459Y-113468257D01*
X170406285Y-113493989D01*
X170494500Y-113502677D01*
X171757000Y-113500500D01*
X171869500Y-113388000D01*
X171869500Y-111975500D01*
X170157000Y-111975500D01*
X170044500Y-112088000D01*
X170042323Y-113050500D01*
X154568738Y-113050500D01*
X156539061Y-111080177D01*
X158422000Y-111080177D01*
X158510215Y-111071489D01*
X158595041Y-111045757D01*
X158673216Y-111003971D01*
X158741737Y-110947737D01*
X158797971Y-110879216D01*
X158839757Y-110801041D01*
X158865489Y-110716215D01*
X158874177Y-110628000D01*
X158874177Y-108828000D01*
X158865489Y-108739785D01*
X158839757Y-108654959D01*
X158797971Y-108576784D01*
X158741737Y-108508263D01*
X158673216Y-108452029D01*
X158595041Y-108410243D01*
X158510215Y-108384511D01*
X158422000Y-108375823D01*
X155522000Y-108375823D01*
X155433785Y-108384511D01*
X155348959Y-108410243D01*
X155270784Y-108452029D01*
X155202263Y-108508263D01*
X155146029Y-108576784D01*
X155104243Y-108654959D01*
X155078511Y-108739785D01*
X155069823Y-108828000D01*
X155069823Y-110628000D01*
X155077259Y-110703503D01*
X152765762Y-113015000D01*
X143203731Y-113015000D01*
X143280998Y-112899362D01*
X143360150Y-112708274D01*
X143400500Y-112505416D01*
X143400500Y-112298584D01*
X143360150Y-112095726D01*
X143280998Y-111904638D01*
X143166089Y-111732664D01*
X143019836Y-111586411D01*
X142847862Y-111471502D01*
X142656774Y-111392350D01*
X142453916Y-111352000D01*
X142247084Y-111352000D01*
X142044226Y-111392350D01*
X141853138Y-111471502D01*
X141681164Y-111586411D01*
X141534911Y-111732664D01*
X141420002Y-111904638D01*
X141340850Y-112095726D01*
X141300500Y-112298584D01*
X141300500Y-112505416D01*
X141340850Y-112708274D01*
X141420002Y-112899362D01*
X141497269Y-113015000D01*
X138508738Y-113015000D01*
X136476004Y-110982266D01*
X136671500Y-111006000D01*
X137325500Y-111006000D01*
X137325500Y-109927000D01*
X137375500Y-109927000D01*
X137375500Y-111006000D01*
X138029500Y-111006000D01*
X138244399Y-110979910D01*
X138450079Y-110912396D01*
X138638636Y-110806053D01*
X138802823Y-110664968D01*
X138936331Y-110494563D01*
X139034029Y-110301386D01*
X139090718Y-110099352D01*
X138995685Y-109927000D01*
X137375500Y-109927000D01*
X137325500Y-109927000D01*
X135705315Y-109927000D01*
X135610282Y-110099352D01*
X135616987Y-110123249D01*
X135198386Y-109704648D01*
X135610282Y-109704648D01*
X135705315Y-109877000D01*
X137325500Y-109877000D01*
X137325500Y-108798000D01*
X137375500Y-108798000D01*
X137375500Y-109877000D01*
X138995685Y-109877000D01*
X139038922Y-109798584D01*
X141300500Y-109798584D01*
X141300500Y-110005416D01*
X141340850Y-110208274D01*
X141420002Y-110399362D01*
X141534911Y-110571336D01*
X141681164Y-110717589D01*
X141853138Y-110832498D01*
X142044226Y-110911650D01*
X142247084Y-110952000D01*
X142453916Y-110952000D01*
X142656774Y-110911650D01*
X142847862Y-110832498D01*
X143019836Y-110717589D01*
X143166089Y-110571336D01*
X143280998Y-110399362D01*
X143360150Y-110208274D01*
X143400500Y-110005416D01*
X143400500Y-109798584D01*
X143360150Y-109595726D01*
X143280998Y-109404638D01*
X143166089Y-109232664D01*
X143064263Y-109130838D01*
X143674500Y-109130838D01*
X143674500Y-109436162D01*
X143734065Y-109735618D01*
X143850908Y-110017700D01*
X144020536Y-110271568D01*
X144236432Y-110487464D01*
X144490300Y-110657092D01*
X144772382Y-110773935D01*
X145071838Y-110833500D01*
X145377162Y-110833500D01*
X145676618Y-110773935D01*
X145958700Y-110657092D01*
X146212568Y-110487464D01*
X146428464Y-110271568D01*
X146598092Y-110017700D01*
X146714935Y-109735618D01*
X146774500Y-109436162D01*
X146774500Y-109130838D01*
X146714935Y-108831382D01*
X146598092Y-108549300D01*
X146428464Y-108295432D01*
X146212568Y-108079536D01*
X145958700Y-107909908D01*
X145676618Y-107793065D01*
X145377162Y-107733500D01*
X145071838Y-107733500D01*
X144772382Y-107793065D01*
X144490300Y-107909908D01*
X144236432Y-108079536D01*
X144020536Y-108295432D01*
X143850908Y-108549300D01*
X143734065Y-108831382D01*
X143674500Y-109130838D01*
X143064263Y-109130838D01*
X143019836Y-109086411D01*
X142847862Y-108971502D01*
X142656774Y-108892350D01*
X142453916Y-108852000D01*
X142247084Y-108852000D01*
X142044226Y-108892350D01*
X141853138Y-108971502D01*
X141681164Y-109086411D01*
X141534911Y-109232664D01*
X141420002Y-109404638D01*
X141340850Y-109595726D01*
X141300500Y-109798584D01*
X139038922Y-109798584D01*
X139090718Y-109704648D01*
X139034029Y-109502614D01*
X138936331Y-109309437D01*
X138802823Y-109139032D01*
X138638636Y-108997947D01*
X138450079Y-108891604D01*
X138244399Y-108824090D01*
X138029500Y-108798000D01*
X137375500Y-108798000D01*
X137325500Y-108798000D01*
X136671500Y-108798000D01*
X136456601Y-108824090D01*
X136250921Y-108891604D01*
X136062364Y-108997947D01*
X135898177Y-109139032D01*
X135764669Y-109309437D01*
X135666971Y-109502614D01*
X135610282Y-109704648D01*
X135198386Y-109704648D01*
X133000500Y-107506762D01*
X133000500Y-106450740D01*
X133134923Y-106340423D01*
X133272883Y-106172317D01*
X133375397Y-105980526D01*
X133438525Y-105772422D01*
X133454500Y-105610227D01*
X133454500Y-104798584D01*
X136300500Y-104798584D01*
X136300500Y-105005416D01*
X136340850Y-105208274D01*
X136420002Y-105399362D01*
X136534911Y-105571336D01*
X136681164Y-105717589D01*
X136853138Y-105832498D01*
X137044226Y-105911650D01*
X137247084Y-105952000D01*
X137453916Y-105952000D01*
X137656774Y-105911650D01*
X137847862Y-105832498D01*
X138019836Y-105717589D01*
X138166089Y-105571336D01*
X138280998Y-105399362D01*
X138360150Y-105208274D01*
X138400500Y-105005416D01*
X138400500Y-104798584D01*
X138360150Y-104595726D01*
X138280998Y-104404638D01*
X138166089Y-104232664D01*
X138127199Y-104193774D01*
X141246500Y-104193774D01*
X141246500Y-105610227D01*
X141262475Y-105772422D01*
X141325604Y-105980526D01*
X141428118Y-106172317D01*
X141566078Y-106340423D01*
X141734184Y-106478383D01*
X141925975Y-106580897D01*
X142134079Y-106644025D01*
X142350500Y-106665341D01*
X142566922Y-106644025D01*
X142775026Y-106580897D01*
X142966817Y-106478383D01*
X143134923Y-106340423D01*
X143272883Y-106172317D01*
X143375397Y-105980526D01*
X143438525Y-105772422D01*
X143454500Y-105610227D01*
X143454500Y-104461000D01*
X146929823Y-104461000D01*
X146938511Y-104549215D01*
X146964243Y-104634041D01*
X147006029Y-104712216D01*
X147062263Y-104780737D01*
X147130784Y-104836971D01*
X147208959Y-104878757D01*
X147293785Y-104904489D01*
X147382000Y-104913177D01*
X147944500Y-104911000D01*
X148057000Y-104798500D01*
X148057000Y-103911000D01*
X148107000Y-103911000D01*
X148107000Y-104798500D01*
X148219500Y-104911000D01*
X148782000Y-104913177D01*
X148870215Y-104904489D01*
X148955041Y-104878757D01*
X149033216Y-104836971D01*
X149101737Y-104780737D01*
X149157971Y-104712216D01*
X149199757Y-104634041D01*
X149225489Y-104549215D01*
X149234177Y-104461000D01*
X149232000Y-104023500D01*
X149119500Y-103911000D01*
X148107000Y-103911000D01*
X148057000Y-103911000D01*
X147044500Y-103911000D01*
X146932000Y-104023500D01*
X146929823Y-104461000D01*
X143454500Y-104461000D01*
X143454500Y-104193773D01*
X143438525Y-104031578D01*
X143375397Y-103823474D01*
X143272883Y-103631683D01*
X143134923Y-103463577D01*
X142966817Y-103325617D01*
X142775025Y-103223103D01*
X142566921Y-103159975D01*
X142350500Y-103138659D01*
X142134078Y-103159975D01*
X141925974Y-103223103D01*
X141734183Y-103325617D01*
X141566077Y-103463577D01*
X141428117Y-103631683D01*
X141325603Y-103823475D01*
X141262475Y-104031579D01*
X141246500Y-104193774D01*
X138127199Y-104193774D01*
X138019836Y-104086411D01*
X137847862Y-103971502D01*
X137656774Y-103892350D01*
X137453916Y-103852000D01*
X137247084Y-103852000D01*
X137044226Y-103892350D01*
X136853138Y-103971502D01*
X136681164Y-104086411D01*
X136534911Y-104232664D01*
X136420002Y-104404638D01*
X136340850Y-104595726D01*
X136300500Y-104798584D01*
X133454500Y-104798584D01*
X133454500Y-104193773D01*
X133438525Y-104031578D01*
X133375397Y-103823474D01*
X133272883Y-103631683D01*
X133134923Y-103463577D01*
X132966817Y-103325617D01*
X132775025Y-103223103D01*
X132566921Y-103159975D01*
X132350500Y-103138659D01*
X132134078Y-103159975D01*
X131925974Y-103223103D01*
X131734183Y-103325617D01*
X131566077Y-103463577D01*
X131428117Y-103631683D01*
X131325603Y-103823475D01*
X131262475Y-104031579D01*
X131246500Y-104193774D01*
X131246500Y-105610227D01*
X131262475Y-105772422D01*
X131325604Y-105980526D01*
X131428118Y-106172317D01*
X131566078Y-106340423D01*
X131700501Y-106450740D01*
X131700501Y-107744069D01*
X131697356Y-107776000D01*
X131709906Y-107903422D01*
X131747073Y-108025947D01*
X131807430Y-108138868D01*
X131868302Y-108213040D01*
X131868305Y-108213043D01*
X131888658Y-108237843D01*
X131913458Y-108258196D01*
X132520508Y-108865246D01*
X132453916Y-108852000D01*
X132247084Y-108852000D01*
X132044226Y-108892350D01*
X131853138Y-108971502D01*
X131681164Y-109086411D01*
X131534911Y-109232664D01*
X131420002Y-109404638D01*
X131340850Y-109595726D01*
X131300500Y-109798584D01*
X131300500Y-110005416D01*
X131340850Y-110208274D01*
X131420002Y-110399362D01*
X131534911Y-110571336D01*
X131681164Y-110717589D01*
X131853138Y-110832498D01*
X132044226Y-110911650D01*
X132247084Y-110952000D01*
X132453916Y-110952000D01*
X132656774Y-110911650D01*
X132847862Y-110832498D01*
X133019836Y-110717589D01*
X133166089Y-110571336D01*
X133280998Y-110399362D01*
X133360150Y-110208274D01*
X133400500Y-110005416D01*
X133400500Y-109798584D01*
X133387254Y-109731992D01*
X137480262Y-113825000D01*
X127475000Y-113825000D01*
X127475000Y-112298584D01*
X131300500Y-112298584D01*
X131300500Y-112505416D01*
X131340850Y-112708274D01*
X131420002Y-112899362D01*
X131534911Y-113071336D01*
X131681164Y-113217589D01*
X131853138Y-113332498D01*
X132044226Y-113411650D01*
X132247084Y-113452000D01*
X132453916Y-113452000D01*
X132656774Y-113411650D01*
X132847862Y-113332498D01*
X133019836Y-113217589D01*
X133166089Y-113071336D01*
X133280998Y-112899362D01*
X133360150Y-112708274D01*
X133400500Y-112505416D01*
X133400500Y-112298584D01*
X133360150Y-112095726D01*
X133280998Y-111904638D01*
X133166089Y-111732664D01*
X133019836Y-111586411D01*
X132847862Y-111471502D01*
X132656774Y-111392350D01*
X132453916Y-111352000D01*
X132247084Y-111352000D01*
X132044226Y-111392350D01*
X131853138Y-111471502D01*
X131681164Y-111586411D01*
X131534911Y-111732664D01*
X131420002Y-111904638D01*
X131340850Y-112095726D01*
X131300500Y-112298584D01*
X127475000Y-112298584D01*
X127475000Y-109130838D01*
X127926500Y-109130838D01*
X127926500Y-109436162D01*
X127986065Y-109735618D01*
X128102908Y-110017700D01*
X128272536Y-110271568D01*
X128488432Y-110487464D01*
X128742300Y-110657092D01*
X129024382Y-110773935D01*
X129323838Y-110833500D01*
X129629162Y-110833500D01*
X129928618Y-110773935D01*
X130210700Y-110657092D01*
X130464568Y-110487464D01*
X130680464Y-110271568D01*
X130850092Y-110017700D01*
X130966935Y-109735618D01*
X131026500Y-109436162D01*
X131026500Y-109130838D01*
X130966935Y-108831382D01*
X130850092Y-108549300D01*
X130680464Y-108295432D01*
X130464568Y-108079536D01*
X130210700Y-107909908D01*
X129928618Y-107793065D01*
X129629162Y-107733500D01*
X129323838Y-107733500D01*
X129024382Y-107793065D01*
X128742300Y-107909908D01*
X128488432Y-108079536D01*
X128272536Y-108295432D01*
X128102908Y-108549300D01*
X127986065Y-108831382D01*
X127926500Y-109130838D01*
X127475000Y-109130838D01*
X127475000Y-101987250D01*
X129663666Y-99798584D01*
X131300500Y-99798584D01*
X131300500Y-100005416D01*
X131340850Y-100208274D01*
X131420002Y-100399362D01*
X131534911Y-100571336D01*
X131681164Y-100717589D01*
X131853138Y-100832498D01*
X132044226Y-100911650D01*
X132247084Y-100952000D01*
X132453916Y-100952000D01*
X132656774Y-100911650D01*
X132847862Y-100832498D01*
X133019836Y-100717589D01*
X133042022Y-100695403D01*
X134092453Y-100695403D01*
X134159759Y-100895255D01*
X134366806Y-101010927D01*
X134592442Y-101083983D01*
X134827994Y-101111616D01*
X135064411Y-101092765D01*
X135292608Y-101028153D01*
X135503814Y-100920263D01*
X135541241Y-100895255D01*
X135608547Y-100695403D01*
X134850500Y-99937355D01*
X134092453Y-100695403D01*
X133042022Y-100695403D01*
X133166089Y-100571336D01*
X133280998Y-100399362D01*
X133360150Y-100208274D01*
X133400500Y-100005416D01*
X133400500Y-99879494D01*
X133640884Y-99879494D01*
X133659735Y-100115911D01*
X133724347Y-100344108D01*
X133832237Y-100555314D01*
X133857245Y-100592741D01*
X134057097Y-100660047D01*
X134815145Y-99902000D01*
X134885855Y-99902000D01*
X135643903Y-100660047D01*
X135843755Y-100592741D01*
X135959427Y-100385694D01*
X136032483Y-100160058D01*
X136060116Y-99924506D01*
X136041265Y-99688089D01*
X135976653Y-99459892D01*
X135868763Y-99248686D01*
X135843755Y-99211259D01*
X135643903Y-99143953D01*
X134885855Y-99902000D01*
X134815145Y-99902000D01*
X134057097Y-99143953D01*
X133857245Y-99211259D01*
X133741573Y-99418306D01*
X133668517Y-99643942D01*
X133640884Y-99879494D01*
X133400500Y-99879494D01*
X133400500Y-99798584D01*
X133360150Y-99595726D01*
X133280998Y-99404638D01*
X133166089Y-99232664D01*
X133042022Y-99108597D01*
X134092453Y-99108597D01*
X134850500Y-99866645D01*
X135608547Y-99108597D01*
X135541241Y-98908745D01*
X135334194Y-98793073D01*
X135108558Y-98720017D01*
X134873006Y-98692384D01*
X134636589Y-98711235D01*
X134408392Y-98775847D01*
X134197186Y-98883737D01*
X134159759Y-98908745D01*
X134092453Y-99108597D01*
X133042022Y-99108597D01*
X133019836Y-99086411D01*
X132847862Y-98971502D01*
X132656774Y-98892350D01*
X132453916Y-98852000D01*
X132247084Y-98852000D01*
X132044226Y-98892350D01*
X131853138Y-98971502D01*
X131681164Y-99086411D01*
X131534911Y-99232664D01*
X131420002Y-99404638D01*
X131340850Y-99595726D01*
X131300500Y-99798584D01*
X129663666Y-99798584D01*
X131514751Y-97947500D01*
X138385761Y-97947500D01*
X137607691Y-98725571D01*
G36*
X156608029Y-97995284D02*
G01*
X156566243Y-98073459D01*
X156540511Y-98158285D01*
X156531823Y-98246500D01*
X156531823Y-99746500D01*
X156540511Y-99834715D01*
X156566243Y-99919541D01*
X156608029Y-99997716D01*
X156664263Y-100066237D01*
X156732784Y-100122471D01*
X156810959Y-100164257D01*
X156895785Y-100189989D01*
X156984000Y-100198677D01*
X158016939Y-100198677D01*
X158839304Y-101021043D01*
X158859657Y-101045843D01*
X158884457Y-101066196D01*
X158884459Y-101066198D01*
X158958631Y-101127070D01*
X159002466Y-101150500D01*
X159071552Y-101187427D01*
X159194078Y-101224595D01*
X159289568Y-101234000D01*
X159289578Y-101234000D01*
X159321499Y-101237144D01*
X159353421Y-101234000D01*
X162417762Y-101234000D01*
X163844500Y-102660739D01*
X163844501Y-108398323D01*
X163094500Y-108398323D01*
X163006285Y-108407011D01*
X162921459Y-108432743D01*
X162843284Y-108474529D01*
X162774763Y-108530763D01*
X162767483Y-108539634D01*
X162741737Y-108508263D01*
X162673216Y-108452029D01*
X162595041Y-108410243D01*
X162510215Y-108384511D01*
X162422000Y-108375823D01*
X160539062Y-108375823D01*
X159041200Y-106877962D01*
X159020843Y-106853157D01*
X158921868Y-106771930D01*
X158808948Y-106711573D01*
X158686422Y-106674405D01*
X158590932Y-106665000D01*
X158590921Y-106665000D01*
X158559000Y-106661856D01*
X158527079Y-106665000D01*
X154320239Y-106665000D01*
X152546177Y-104890938D01*
X152575011Y-104899685D01*
X152711999Y-104913177D01*
X153269939Y-104913177D01*
X154267304Y-105910543D01*
X154287657Y-105935343D01*
X154312457Y-105955696D01*
X154312459Y-105955698D01*
X154386631Y-106016570D01*
X154499552Y-106076927D01*
X154622078Y-106114095D01*
X154717568Y-106123500D01*
X154717578Y-106123500D01*
X154749499Y-106126644D01*
X154781421Y-106123500D01*
X158527579Y-106123500D01*
X158559500Y-106126644D01*
X158591421Y-106123500D01*
X158591432Y-106123500D01*
X158686922Y-106114095D01*
X158809448Y-106076927D01*
X158922368Y-106016570D01*
X159021343Y-105935343D01*
X159041700Y-105910538D01*
X160539562Y-104412677D01*
X162422500Y-104412677D01*
X162510715Y-104403989D01*
X162595541Y-104378257D01*
X162673716Y-104336471D01*
X162742237Y-104280237D01*
X162798471Y-104211716D01*
X162840257Y-104133541D01*
X162865989Y-104048715D01*
X162874677Y-103960500D01*
X162874677Y-102160500D01*
X162865989Y-102072285D01*
X162840257Y-101987459D01*
X162798471Y-101909284D01*
X162742237Y-101840763D01*
X162673716Y-101784529D01*
X162595541Y-101742743D01*
X162510715Y-101717011D01*
X162422500Y-101708323D01*
X159522500Y-101708323D01*
X159434285Y-101717011D01*
X159349459Y-101742743D01*
X159271284Y-101784529D01*
X159202763Y-101840763D01*
X159146529Y-101909284D01*
X159104743Y-101987459D01*
X159079011Y-102072285D01*
X159070323Y-102160500D01*
X159070323Y-103960500D01*
X159077759Y-104036003D01*
X158290262Y-104823500D01*
X157808816Y-104823500D01*
X157822000Y-104757218D01*
X157822000Y-104589782D01*
X157789335Y-104425564D01*
X157783997Y-104412677D01*
X158422500Y-104412677D01*
X158510715Y-104403989D01*
X158595541Y-104378257D01*
X158673716Y-104336471D01*
X158742237Y-104280237D01*
X158798471Y-104211716D01*
X158840257Y-104133541D01*
X158865989Y-104048715D01*
X158874677Y-103960500D01*
X158874677Y-102160500D01*
X158865989Y-102072285D01*
X158840257Y-101987459D01*
X158798471Y-101909284D01*
X158742237Y-101840763D01*
X158673716Y-101784529D01*
X158595541Y-101742743D01*
X158510715Y-101717011D01*
X158422500Y-101708323D01*
X155522500Y-101708323D01*
X155434285Y-101717011D01*
X155349459Y-101742743D01*
X155271284Y-101784529D01*
X155202763Y-101840763D01*
X155146529Y-101909284D01*
X155104743Y-101987459D01*
X155079011Y-102072285D01*
X155070323Y-102160500D01*
X155070323Y-103960500D01*
X155079011Y-104048715D01*
X155104743Y-104133541D01*
X155146529Y-104211716D01*
X155202763Y-104280237D01*
X155271284Y-104336471D01*
X155349459Y-104378257D01*
X155434285Y-104403989D01*
X155522500Y-104412677D01*
X156160003Y-104412677D01*
X156154665Y-104425564D01*
X156122000Y-104589782D01*
X156122000Y-104757218D01*
X156135184Y-104823500D01*
X155018739Y-104823500D01*
X154314177Y-104118939D01*
X154314177Y-103560999D01*
X154300685Y-103424011D01*
X154260727Y-103292288D01*
X154195839Y-103170891D01*
X154108514Y-103064486D01*
X154002109Y-102977161D01*
X153880712Y-102912273D01*
X153748989Y-102872315D01*
X153634105Y-102861000D01*
X153748989Y-102849685D01*
X153880712Y-102809727D01*
X154002109Y-102744839D01*
X154108514Y-102657514D01*
X154195839Y-102551109D01*
X154260727Y-102429712D01*
X154300685Y-102297989D01*
X154314177Y-102161001D01*
X154314177Y-101510999D01*
X154300685Y-101374011D01*
X154260727Y-101242288D01*
X154195839Y-101120891D01*
X154108514Y-101014486D01*
X154002109Y-100927161D01*
X153880712Y-100862273D01*
X153812000Y-100841429D01*
X153812000Y-100252681D01*
X153990702Y-100133276D01*
X154171776Y-99952202D01*
X154314045Y-99739281D01*
X154412042Y-99502696D01*
X154462000Y-99251539D01*
X154462000Y-98995461D01*
X154412042Y-98744304D01*
X154314045Y-98507719D01*
X154171776Y-98294798D01*
X153990702Y-98113724D01*
X153777781Y-97971455D01*
X153719949Y-97947500D01*
X156647245Y-97947500D01*
X156608029Y-97995284D01*
G37*
X156608029Y-97995284D02*
X156566243Y-98073459D01*
X156540511Y-98158285D01*
X156531823Y-98246500D01*
X156531823Y-99746500D01*
X156540511Y-99834715D01*
X156566243Y-99919541D01*
X156608029Y-99997716D01*
X156664263Y-100066237D01*
X156732784Y-100122471D01*
X156810959Y-100164257D01*
X156895785Y-100189989D01*
X156984000Y-100198677D01*
X158016939Y-100198677D01*
X158839304Y-101021043D01*
X158859657Y-101045843D01*
X158884457Y-101066196D01*
X158884459Y-101066198D01*
X158958631Y-101127070D01*
X159002466Y-101150500D01*
X159071552Y-101187427D01*
X159194078Y-101224595D01*
X159289568Y-101234000D01*
X159289578Y-101234000D01*
X159321499Y-101237144D01*
X159353421Y-101234000D01*
X162417762Y-101234000D01*
X163844500Y-102660739D01*
X163844501Y-108398323D01*
X163094500Y-108398323D01*
X163006285Y-108407011D01*
X162921459Y-108432743D01*
X162843284Y-108474529D01*
X162774763Y-108530763D01*
X162767483Y-108539634D01*
X162741737Y-108508263D01*
X162673216Y-108452029D01*
X162595041Y-108410243D01*
X162510215Y-108384511D01*
X162422000Y-108375823D01*
X160539062Y-108375823D01*
X159041200Y-106877962D01*
X159020843Y-106853157D01*
X158921868Y-106771930D01*
X158808948Y-106711573D01*
X158686422Y-106674405D01*
X158590932Y-106665000D01*
X158590921Y-106665000D01*
X158559000Y-106661856D01*
X158527079Y-106665000D01*
X154320239Y-106665000D01*
X152546177Y-104890938D01*
X152575011Y-104899685D01*
X152711999Y-104913177D01*
X153269939Y-104913177D01*
X154267304Y-105910543D01*
X154287657Y-105935343D01*
X154312457Y-105955696D01*
X154312459Y-105955698D01*
X154386631Y-106016570D01*
X154499552Y-106076927D01*
X154622078Y-106114095D01*
X154717568Y-106123500D01*
X154717578Y-106123500D01*
X154749499Y-106126644D01*
X154781421Y-106123500D01*
X158527579Y-106123500D01*
X158559500Y-106126644D01*
X158591421Y-106123500D01*
X158591432Y-106123500D01*
X158686922Y-106114095D01*
X158809448Y-106076927D01*
X158922368Y-106016570D01*
X159021343Y-105935343D01*
X159041700Y-105910538D01*
X160539562Y-104412677D01*
X162422500Y-104412677D01*
X162510715Y-104403989D01*
X162595541Y-104378257D01*
X162673716Y-104336471D01*
X162742237Y-104280237D01*
X162798471Y-104211716D01*
X162840257Y-104133541D01*
X162865989Y-104048715D01*
X162874677Y-103960500D01*
X162874677Y-102160500D01*
X162865989Y-102072285D01*
X162840257Y-101987459D01*
X162798471Y-101909284D01*
X162742237Y-101840763D01*
X162673716Y-101784529D01*
X162595541Y-101742743D01*
X162510715Y-101717011D01*
X162422500Y-101708323D01*
X159522500Y-101708323D01*
X159434285Y-101717011D01*
X159349459Y-101742743D01*
X159271284Y-101784529D01*
X159202763Y-101840763D01*
X159146529Y-101909284D01*
X159104743Y-101987459D01*
X159079011Y-102072285D01*
X159070323Y-102160500D01*
X159070323Y-103960500D01*
X159077759Y-104036003D01*
X158290262Y-104823500D01*
X157808816Y-104823500D01*
X157822000Y-104757218D01*
X157822000Y-104589782D01*
X157789335Y-104425564D01*
X157783997Y-104412677D01*
X158422500Y-104412677D01*
X158510715Y-104403989D01*
X158595541Y-104378257D01*
X158673716Y-104336471D01*
X158742237Y-104280237D01*
X158798471Y-104211716D01*
X158840257Y-104133541D01*
X158865989Y-104048715D01*
X158874677Y-103960500D01*
X158874677Y-102160500D01*
X158865989Y-102072285D01*
X158840257Y-101987459D01*
X158798471Y-101909284D01*
X158742237Y-101840763D01*
X158673716Y-101784529D01*
X158595541Y-101742743D01*
X158510715Y-101717011D01*
X158422500Y-101708323D01*
X155522500Y-101708323D01*
X155434285Y-101717011D01*
X155349459Y-101742743D01*
X155271284Y-101784529D01*
X155202763Y-101840763D01*
X155146529Y-101909284D01*
X155104743Y-101987459D01*
X155079011Y-102072285D01*
X155070323Y-102160500D01*
X155070323Y-103960500D01*
X155079011Y-104048715D01*
X155104743Y-104133541D01*
X155146529Y-104211716D01*
X155202763Y-104280237D01*
X155271284Y-104336471D01*
X155349459Y-104378257D01*
X155434285Y-104403989D01*
X155522500Y-104412677D01*
X156160003Y-104412677D01*
X156154665Y-104425564D01*
X156122000Y-104589782D01*
X156122000Y-104757218D01*
X156135184Y-104823500D01*
X155018739Y-104823500D01*
X154314177Y-104118939D01*
X154314177Y-103560999D01*
X154300685Y-103424011D01*
X154260727Y-103292288D01*
X154195839Y-103170891D01*
X154108514Y-103064486D01*
X154002109Y-102977161D01*
X153880712Y-102912273D01*
X153748989Y-102872315D01*
X153634105Y-102861000D01*
X153748989Y-102849685D01*
X153880712Y-102809727D01*
X154002109Y-102744839D01*
X154108514Y-102657514D01*
X154195839Y-102551109D01*
X154260727Y-102429712D01*
X154300685Y-102297989D01*
X154314177Y-102161001D01*
X154314177Y-101510999D01*
X154300685Y-101374011D01*
X154260727Y-101242288D01*
X154195839Y-101120891D01*
X154108514Y-101014486D01*
X154002109Y-100927161D01*
X153880712Y-100862273D01*
X153812000Y-100841429D01*
X153812000Y-100252681D01*
X153990702Y-100133276D01*
X154171776Y-99952202D01*
X154314045Y-99739281D01*
X154412042Y-99502696D01*
X154462000Y-99251539D01*
X154462000Y-98995461D01*
X154412042Y-98744304D01*
X154314045Y-98507719D01*
X154171776Y-98294798D01*
X153990702Y-98113724D01*
X153777781Y-97971455D01*
X153719949Y-97947500D01*
X156647245Y-97947500D01*
X156608029Y-97995284D01*
G36*
X151911958Y-99502696D02*
G01*
X152009955Y-99739281D01*
X152152224Y-99952202D01*
X152333298Y-100133276D01*
X152512000Y-100252681D01*
X152512001Y-100841429D01*
X152443288Y-100862273D01*
X152321891Y-100927161D01*
X152215486Y-101014486D01*
X152128161Y-101120891D01*
X152063273Y-101242288D01*
X152023315Y-101374011D01*
X152009823Y-101510999D01*
X152009823Y-102161001D01*
X152023315Y-102297989D01*
X152063273Y-102429712D01*
X152128161Y-102551109D01*
X152215486Y-102657514D01*
X152321891Y-102744839D01*
X152443288Y-102809727D01*
X152575011Y-102849685D01*
X152689895Y-102861000D01*
X152575011Y-102872315D01*
X152443288Y-102912273D01*
X152321891Y-102977161D01*
X152215486Y-103064486D01*
X152128161Y-103170891D01*
X152063273Y-103292288D01*
X152023315Y-103424011D01*
X152009823Y-103560999D01*
X152009823Y-104211001D01*
X152023315Y-104347989D01*
X152032062Y-104376824D01*
X151774177Y-104118939D01*
X151774177Y-103560999D01*
X151760685Y-103424011D01*
X151720727Y-103292288D01*
X151655839Y-103170891D01*
X151568514Y-103064486D01*
X151462109Y-102977161D01*
X151340712Y-102912273D01*
X151208989Y-102872315D01*
X151094105Y-102861000D01*
X151208989Y-102849685D01*
X151340712Y-102809727D01*
X151462109Y-102744839D01*
X151568514Y-102657514D01*
X151655839Y-102551109D01*
X151720727Y-102429712D01*
X151760685Y-102297989D01*
X151774177Y-102161001D01*
X151774177Y-101510999D01*
X151760685Y-101374011D01*
X151720727Y-101242288D01*
X151655839Y-101120891D01*
X151568514Y-101014486D01*
X151462109Y-100927161D01*
X151340712Y-100862273D01*
X151272000Y-100841429D01*
X151272000Y-100252681D01*
X151450702Y-100133276D01*
X151631776Y-99952202D01*
X151774045Y-99739281D01*
X151872042Y-99502696D01*
X151892000Y-99402360D01*
X151911958Y-99502696D01*
G37*
X151911958Y-99502696D02*
X152009955Y-99739281D01*
X152152224Y-99952202D01*
X152333298Y-100133276D01*
X152512000Y-100252681D01*
X152512001Y-100841429D01*
X152443288Y-100862273D01*
X152321891Y-100927161D01*
X152215486Y-101014486D01*
X152128161Y-101120891D01*
X152063273Y-101242288D01*
X152023315Y-101374011D01*
X152009823Y-101510999D01*
X152009823Y-102161001D01*
X152023315Y-102297989D01*
X152063273Y-102429712D01*
X152128161Y-102551109D01*
X152215486Y-102657514D01*
X152321891Y-102744839D01*
X152443288Y-102809727D01*
X152575011Y-102849685D01*
X152689895Y-102861000D01*
X152575011Y-102872315D01*
X152443288Y-102912273D01*
X152321891Y-102977161D01*
X152215486Y-103064486D01*
X152128161Y-103170891D01*
X152063273Y-103292288D01*
X152023315Y-103424011D01*
X152009823Y-103560999D01*
X152009823Y-104211001D01*
X152023315Y-104347989D01*
X152032062Y-104376824D01*
X151774177Y-104118939D01*
X151774177Y-103560999D01*
X151760685Y-103424011D01*
X151720727Y-103292288D01*
X151655839Y-103170891D01*
X151568514Y-103064486D01*
X151462109Y-102977161D01*
X151340712Y-102912273D01*
X151208989Y-102872315D01*
X151094105Y-102861000D01*
X151208989Y-102849685D01*
X151340712Y-102809727D01*
X151462109Y-102744839D01*
X151568514Y-102657514D01*
X151655839Y-102551109D01*
X151720727Y-102429712D01*
X151760685Y-102297989D01*
X151774177Y-102161001D01*
X151774177Y-101510999D01*
X151760685Y-101374011D01*
X151720727Y-101242288D01*
X151655839Y-101120891D01*
X151568514Y-101014486D01*
X151462109Y-100927161D01*
X151340712Y-100862273D01*
X151272000Y-100841429D01*
X151272000Y-100252681D01*
X151450702Y-100133276D01*
X151631776Y-99952202D01*
X151774045Y-99739281D01*
X151872042Y-99502696D01*
X151892000Y-99402360D01*
X151911958Y-99502696D01*
G36*
X173197501Y-100698323D02*
G01*
X170694500Y-100698323D01*
X170606285Y-100707011D01*
X170521459Y-100732743D01*
X170443284Y-100774529D01*
X170374763Y-100830763D01*
X170318529Y-100899284D01*
X170276743Y-100977459D01*
X170251011Y-101062285D01*
X170242323Y-101150500D01*
X170242323Y-101900500D01*
X168224739Y-101900500D01*
X164883700Y-98559462D01*
X164863343Y-98534657D01*
X164764368Y-98453430D01*
X164651448Y-98393073D01*
X164528922Y-98355905D01*
X164433432Y-98346500D01*
X164433421Y-98346500D01*
X164401500Y-98343356D01*
X164369579Y-98346500D01*
X161603177Y-98346500D01*
X161603177Y-98246500D01*
X161594489Y-98158285D01*
X161568757Y-98073459D01*
X161526971Y-97995284D01*
X161487755Y-97947500D01*
X173197501Y-97947500D01*
X173197501Y-100698323D01*
G37*
X173197501Y-100698323D02*
X170694500Y-100698323D01*
X170606285Y-100707011D01*
X170521459Y-100732743D01*
X170443284Y-100774529D01*
X170374763Y-100830763D01*
X170318529Y-100899284D01*
X170276743Y-100977459D01*
X170251011Y-101062285D01*
X170242323Y-101150500D01*
X170242323Y-101900500D01*
X168224739Y-101900500D01*
X164883700Y-98559462D01*
X164863343Y-98534657D01*
X164764368Y-98453430D01*
X164651448Y-98393073D01*
X164528922Y-98355905D01*
X164433432Y-98346500D01*
X164433421Y-98346500D01*
X164401500Y-98343356D01*
X164369579Y-98346500D01*
X161603177Y-98346500D01*
X161603177Y-98246500D01*
X161594489Y-98158285D01*
X161568757Y-98073459D01*
X161526971Y-97995284D01*
X161487755Y-97947500D01*
X173197501Y-97947500D01*
X173197501Y-100698323D01*
%TD*%
M02*
