%TF.GenerationSoftware,KiCad,Pcbnew,(5.1.6)-1*%
%TF.CreationDate,2024-02-19T11:36:57-05:00*%
%TF.ProjectId,GB-DMG-Pro-Headphone-PCB,47422d44-4d47-42d5-9072-6f2d48656164,0*%
%TF.SameCoordinates,Original*%
%TF.FileFunction,Copper,L2,Bot*%
%TF.FilePolarity,Positive*%
%FSLAX46Y46*%
G04 Gerber Fmt 4.6, Leading zero omitted, Abs format (unit mm)*
G04 Created by KiCad (PCBNEW (5.1.6)-1) date 2024-02-19 11:36:57*
%MOMM*%
%LPD*%
G01*
G04 APERTURE LIST*
%TA.AperFunction,ComponentPad*%
%ADD10R,1.700000X1.700000*%
%TD*%
%TA.AperFunction,ComponentPad*%
%ADD11O,1.700000X1.700000*%
%TD*%
%TA.AperFunction,ComponentPad*%
%ADD12O,2.616000X1.308000*%
%TD*%
%TA.AperFunction,ComponentPad*%
%ADD13C,1.508000*%
%TD*%
%TA.AperFunction,ComponentPad*%
%ADD14O,1.308000X2.616000*%
%TD*%
%TA.AperFunction,ComponentPad*%
%ADD15R,1.500000X1.500000*%
%TD*%
%TA.AperFunction,ViaPad*%
%ADD16C,0.800000*%
%TD*%
%TA.AperFunction,Conductor*%
%ADD17C,0.400000*%
%TD*%
%TA.AperFunction,Conductor*%
%ADD18C,0.300000*%
%TD*%
G04 APERTURE END LIST*
D10*
%TO.P,J1,1*%
%TO.N,DETECT*%
X145542000Y-99123500D03*
D11*
%TO.P,J1,2*%
%TO.N,Net-(J1-Pad2)*%
X148082000Y-99123500D03*
%TO.P,J1,3*%
%TO.N,Net-(J1-Pad3)*%
X150622000Y-99123500D03*
%TO.P,J1,4*%
%TO.N,Net-(J1-Pad4)*%
X153162000Y-99123500D03*
%TD*%
D12*
%TO.P,J2,1*%
%TO.N,GND*%
X137350500Y-109902000D03*
D13*
%TO.P,J2,4*%
X134850500Y-99902000D03*
%TO.P,J2,5*%
%TO.N,DETECT*%
X137350500Y-99902000D03*
%TO.P,J2,6*%
%TO.N,N/C*%
X139850500Y-99902000D03*
D14*
%TO.P,J2,2*%
%TO.N,LEFT*%
X142350500Y-104902000D03*
%TO.P,J2,3*%
%TO.N,RIGHT*%
X132350500Y-104902000D03*
%TD*%
D15*
%TO.P,J4,1*%
%TO.N,L_PRO*%
X160401000Y-98996500D03*
%TD*%
%TO.P,J5,1*%
%TO.N,R_PRO*%
X157734000Y-98996500D03*
%TD*%
D16*
%TO.N,LEFT*%
X156972000Y-104673500D03*
%TO.N,GND*%
X172529500Y-98488500D03*
X155067000Y-98933000D03*
X151892000Y-100393500D03*
%TD*%
D17*
%TO.N,LEFT*%
X142350500Y-104902000D02*
X156743500Y-104902000D01*
X156743500Y-104902000D02*
X156972000Y-104673500D01*
%TD*%
D18*
%TO.N,GND*%
G36*
X144372263Y-97953763D02*
G01*
X144316029Y-98022284D01*
X144274243Y-98100459D01*
X144248511Y-98185285D01*
X144239823Y-98273500D01*
X144239823Y-99973500D01*
X144248511Y-100061715D01*
X144274243Y-100146541D01*
X144316029Y-100224716D01*
X144372263Y-100293237D01*
X144440784Y-100349471D01*
X144518959Y-100391257D01*
X144603785Y-100416989D01*
X144692000Y-100425677D01*
X146392000Y-100425677D01*
X146480215Y-100416989D01*
X146565041Y-100391257D01*
X146643216Y-100349471D01*
X146711737Y-100293237D01*
X146767971Y-100224716D01*
X146809757Y-100146541D01*
X146835489Y-100061715D01*
X146844177Y-99973500D01*
X146844177Y-99532195D01*
X146929955Y-99739281D01*
X147072224Y-99952202D01*
X147253298Y-100133276D01*
X147466219Y-100275545D01*
X147702804Y-100373542D01*
X147953961Y-100423500D01*
X148210039Y-100423500D01*
X148461196Y-100373542D01*
X148697781Y-100275545D01*
X148910702Y-100133276D01*
X149091776Y-99952202D01*
X149234045Y-99739281D01*
X149332042Y-99502696D01*
X149352000Y-99402360D01*
X149371958Y-99502696D01*
X149469955Y-99739281D01*
X149612224Y-99952202D01*
X149793298Y-100133276D01*
X150006219Y-100275545D01*
X150242804Y-100373542D01*
X150493961Y-100423500D01*
X150750039Y-100423500D01*
X151001196Y-100373542D01*
X151237781Y-100275545D01*
X151450702Y-100133276D01*
X151631776Y-99952202D01*
X151774045Y-99739281D01*
X151872042Y-99502696D01*
X151892000Y-99402360D01*
X151911958Y-99502696D01*
X152009955Y-99739281D01*
X152152224Y-99952202D01*
X152333298Y-100133276D01*
X152546219Y-100275545D01*
X152782804Y-100373542D01*
X153033961Y-100423500D01*
X153290039Y-100423500D01*
X153541196Y-100373542D01*
X153777781Y-100275545D01*
X153990702Y-100133276D01*
X154171776Y-99952202D01*
X154314045Y-99739281D01*
X154412042Y-99502696D01*
X154462000Y-99251539D01*
X154462000Y-98995461D01*
X154412042Y-98744304D01*
X154314045Y-98507719D01*
X154171776Y-98294798D01*
X153990702Y-98113724D01*
X153777781Y-97971455D01*
X153719949Y-97947500D01*
X156647245Y-97947500D01*
X156608029Y-97995284D01*
X156566243Y-98073459D01*
X156540511Y-98158285D01*
X156531823Y-98246500D01*
X156531823Y-99746500D01*
X156540511Y-99834715D01*
X156566243Y-99919541D01*
X156608029Y-99997716D01*
X156664263Y-100066237D01*
X156732784Y-100122471D01*
X156810959Y-100164257D01*
X156895785Y-100189989D01*
X156984000Y-100198677D01*
X158484000Y-100198677D01*
X158572215Y-100189989D01*
X158657041Y-100164257D01*
X158735216Y-100122471D01*
X158803737Y-100066237D01*
X158859971Y-99997716D01*
X158901757Y-99919541D01*
X158927489Y-99834715D01*
X158936177Y-99746500D01*
X158936177Y-98246500D01*
X158927489Y-98158285D01*
X158901757Y-98073459D01*
X158859971Y-97995284D01*
X158820755Y-97947500D01*
X159314245Y-97947500D01*
X159275029Y-97995284D01*
X159233243Y-98073459D01*
X159207511Y-98158285D01*
X159198823Y-98246500D01*
X159198823Y-99746500D01*
X159207511Y-99834715D01*
X159233243Y-99919541D01*
X159275029Y-99997716D01*
X159331263Y-100066237D01*
X159399784Y-100122471D01*
X159477959Y-100164257D01*
X159562785Y-100189989D01*
X159651000Y-100198677D01*
X161151000Y-100198677D01*
X161239215Y-100189989D01*
X161324041Y-100164257D01*
X161402216Y-100122471D01*
X161470737Y-100066237D01*
X161526971Y-99997716D01*
X161568757Y-99919541D01*
X161594489Y-99834715D01*
X161603177Y-99746500D01*
X161603177Y-98246500D01*
X161594489Y-98158285D01*
X161568757Y-98073459D01*
X161526971Y-97995284D01*
X161487755Y-97947500D01*
X173197501Y-97947500D01*
X173197500Y-113825000D01*
X127475000Y-113825000D01*
X127475000Y-112298584D01*
X131300500Y-112298584D01*
X131300500Y-112505416D01*
X131340850Y-112708274D01*
X131420002Y-112899362D01*
X131534911Y-113071336D01*
X131681164Y-113217589D01*
X131853138Y-113332498D01*
X132044226Y-113411650D01*
X132247084Y-113452000D01*
X132453916Y-113452000D01*
X132656774Y-113411650D01*
X132847862Y-113332498D01*
X133019836Y-113217589D01*
X133166089Y-113071336D01*
X133280998Y-112899362D01*
X133360150Y-112708274D01*
X133400500Y-112505416D01*
X133400500Y-112298584D01*
X141300500Y-112298584D01*
X141300500Y-112505416D01*
X141340850Y-112708274D01*
X141420002Y-112899362D01*
X141534911Y-113071336D01*
X141681164Y-113217589D01*
X141853138Y-113332498D01*
X142044226Y-113411650D01*
X142247084Y-113452000D01*
X142453916Y-113452000D01*
X142656774Y-113411650D01*
X142847862Y-113332498D01*
X143019836Y-113217589D01*
X143166089Y-113071336D01*
X143280998Y-112899362D01*
X143360150Y-112708274D01*
X143400500Y-112505416D01*
X143400500Y-112298584D01*
X143360150Y-112095726D01*
X143280998Y-111904638D01*
X143166089Y-111732664D01*
X143019836Y-111586411D01*
X142847862Y-111471502D01*
X142656774Y-111392350D01*
X142453916Y-111352000D01*
X142247084Y-111352000D01*
X142044226Y-111392350D01*
X141853138Y-111471502D01*
X141681164Y-111586411D01*
X141534911Y-111732664D01*
X141420002Y-111904638D01*
X141340850Y-112095726D01*
X141300500Y-112298584D01*
X133400500Y-112298584D01*
X133360150Y-112095726D01*
X133280998Y-111904638D01*
X133166089Y-111732664D01*
X133019836Y-111586411D01*
X132847862Y-111471502D01*
X132656774Y-111392350D01*
X132453916Y-111352000D01*
X132247084Y-111352000D01*
X132044226Y-111392350D01*
X131853138Y-111471502D01*
X131681164Y-111586411D01*
X131534911Y-111732664D01*
X131420002Y-111904638D01*
X131340850Y-112095726D01*
X131300500Y-112298584D01*
X127475000Y-112298584D01*
X127475000Y-109130838D01*
X127926500Y-109130838D01*
X127926500Y-109436162D01*
X127986065Y-109735618D01*
X128102908Y-110017700D01*
X128272536Y-110271568D01*
X128488432Y-110487464D01*
X128742300Y-110657092D01*
X129024382Y-110773935D01*
X129323838Y-110833500D01*
X129629162Y-110833500D01*
X129928618Y-110773935D01*
X130210700Y-110657092D01*
X130464568Y-110487464D01*
X130680464Y-110271568D01*
X130850092Y-110017700D01*
X130940853Y-109798584D01*
X131300500Y-109798584D01*
X131300500Y-110005416D01*
X131340850Y-110208274D01*
X131420002Y-110399362D01*
X131534911Y-110571336D01*
X131681164Y-110717589D01*
X131853138Y-110832498D01*
X132044226Y-110911650D01*
X132247084Y-110952000D01*
X132453916Y-110952000D01*
X132656774Y-110911650D01*
X132847862Y-110832498D01*
X133019836Y-110717589D01*
X133166089Y-110571336D01*
X133280998Y-110399362D01*
X133360150Y-110208274D01*
X133381815Y-110099352D01*
X135610282Y-110099352D01*
X135666971Y-110301386D01*
X135764669Y-110494563D01*
X135898177Y-110664968D01*
X136062364Y-110806053D01*
X136250921Y-110912396D01*
X136456601Y-110979910D01*
X136671500Y-111006000D01*
X137325500Y-111006000D01*
X137325500Y-109927000D01*
X137375500Y-109927000D01*
X137375500Y-111006000D01*
X138029500Y-111006000D01*
X138244399Y-110979910D01*
X138450079Y-110912396D01*
X138638636Y-110806053D01*
X138802823Y-110664968D01*
X138936331Y-110494563D01*
X139034029Y-110301386D01*
X139090718Y-110099352D01*
X138995685Y-109927000D01*
X137375500Y-109927000D01*
X137325500Y-109927000D01*
X135705315Y-109927000D01*
X135610282Y-110099352D01*
X133381815Y-110099352D01*
X133400500Y-110005416D01*
X133400500Y-109798584D01*
X133381816Y-109704648D01*
X135610282Y-109704648D01*
X135705315Y-109877000D01*
X137325500Y-109877000D01*
X137325500Y-108798000D01*
X137375500Y-108798000D01*
X137375500Y-109877000D01*
X138995685Y-109877000D01*
X139038922Y-109798584D01*
X141300500Y-109798584D01*
X141300500Y-110005416D01*
X141340850Y-110208274D01*
X141420002Y-110399362D01*
X141534911Y-110571336D01*
X141681164Y-110717589D01*
X141853138Y-110832498D01*
X142044226Y-110911650D01*
X142247084Y-110952000D01*
X142453916Y-110952000D01*
X142656774Y-110911650D01*
X142847862Y-110832498D01*
X143019836Y-110717589D01*
X143166089Y-110571336D01*
X143280998Y-110399362D01*
X143360150Y-110208274D01*
X143400500Y-110005416D01*
X143400500Y-109798584D01*
X143360150Y-109595726D01*
X143280998Y-109404638D01*
X143166089Y-109232664D01*
X143064263Y-109130838D01*
X143674500Y-109130838D01*
X143674500Y-109436162D01*
X143734065Y-109735618D01*
X143850908Y-110017700D01*
X144020536Y-110271568D01*
X144236432Y-110487464D01*
X144490300Y-110657092D01*
X144772382Y-110773935D01*
X145071838Y-110833500D01*
X145377162Y-110833500D01*
X145676618Y-110773935D01*
X145800886Y-110722461D01*
X166894500Y-110722461D01*
X166894500Y-110978539D01*
X166944458Y-111229696D01*
X167042455Y-111466281D01*
X167184724Y-111679202D01*
X167365798Y-111860276D01*
X167578719Y-112002545D01*
X167815304Y-112100542D01*
X168066461Y-112150500D01*
X168322539Y-112150500D01*
X168573696Y-112100542D01*
X168810281Y-112002545D01*
X169023202Y-111860276D01*
X169204276Y-111679202D01*
X169346545Y-111466281D01*
X169444542Y-111229696D01*
X169494500Y-110978539D01*
X169494500Y-110722461D01*
X169444542Y-110471304D01*
X169346545Y-110234719D01*
X169204276Y-110021798D01*
X169023202Y-109840724D01*
X168810281Y-109698455D01*
X168573696Y-109600458D01*
X168322539Y-109550500D01*
X168066461Y-109550500D01*
X167815304Y-109600458D01*
X167578719Y-109698455D01*
X167365798Y-109840724D01*
X167184724Y-110021798D01*
X167042455Y-110234719D01*
X166944458Y-110471304D01*
X166894500Y-110722461D01*
X145800886Y-110722461D01*
X145958700Y-110657092D01*
X146212568Y-110487464D01*
X146428464Y-110271568D01*
X146598092Y-110017700D01*
X146714935Y-109735618D01*
X146774500Y-109436162D01*
X146774500Y-109130838D01*
X146714935Y-108831382D01*
X146598092Y-108549300D01*
X146428464Y-108295432D01*
X146212568Y-108079536D01*
X145958700Y-107909908D01*
X145676618Y-107793065D01*
X145377162Y-107733500D01*
X145071838Y-107733500D01*
X144772382Y-107793065D01*
X144490300Y-107909908D01*
X144236432Y-108079536D01*
X144020536Y-108295432D01*
X143850908Y-108549300D01*
X143734065Y-108831382D01*
X143674500Y-109130838D01*
X143064263Y-109130838D01*
X143019836Y-109086411D01*
X142847862Y-108971502D01*
X142656774Y-108892350D01*
X142453916Y-108852000D01*
X142247084Y-108852000D01*
X142044226Y-108892350D01*
X141853138Y-108971502D01*
X141681164Y-109086411D01*
X141534911Y-109232664D01*
X141420002Y-109404638D01*
X141340850Y-109595726D01*
X141300500Y-109798584D01*
X139038922Y-109798584D01*
X139090718Y-109704648D01*
X139034029Y-109502614D01*
X138936331Y-109309437D01*
X138802823Y-109139032D01*
X138638636Y-108997947D01*
X138450079Y-108891604D01*
X138244399Y-108824090D01*
X138029500Y-108798000D01*
X137375500Y-108798000D01*
X137325500Y-108798000D01*
X136671500Y-108798000D01*
X136456601Y-108824090D01*
X136250921Y-108891604D01*
X136062364Y-108997947D01*
X135898177Y-109139032D01*
X135764669Y-109309437D01*
X135666971Y-109502614D01*
X135610282Y-109704648D01*
X133381816Y-109704648D01*
X133360150Y-109595726D01*
X133280998Y-109404638D01*
X133166089Y-109232664D01*
X133019836Y-109086411D01*
X132847862Y-108971502D01*
X132656774Y-108892350D01*
X132453916Y-108852000D01*
X132247084Y-108852000D01*
X132044226Y-108892350D01*
X131853138Y-108971502D01*
X131681164Y-109086411D01*
X131534911Y-109232664D01*
X131420002Y-109404638D01*
X131340850Y-109595726D01*
X131300500Y-109798584D01*
X130940853Y-109798584D01*
X130966935Y-109735618D01*
X131026500Y-109436162D01*
X131026500Y-109130838D01*
X130966935Y-108831382D01*
X130850092Y-108549300D01*
X130680464Y-108295432D01*
X130464568Y-108079536D01*
X130210700Y-107909908D01*
X129928618Y-107793065D01*
X129629162Y-107733500D01*
X129323838Y-107733500D01*
X129024382Y-107793065D01*
X128742300Y-107909908D01*
X128488432Y-108079536D01*
X128272536Y-108295432D01*
X128102908Y-108549300D01*
X127986065Y-108831382D01*
X127926500Y-109130838D01*
X127475000Y-109130838D01*
X127475000Y-104193774D01*
X131246500Y-104193774D01*
X131246500Y-105610227D01*
X131262475Y-105772422D01*
X131325604Y-105980526D01*
X131428118Y-106172317D01*
X131566078Y-106340423D01*
X131734184Y-106478383D01*
X131925975Y-106580897D01*
X132134079Y-106644025D01*
X132350500Y-106665341D01*
X132566922Y-106644025D01*
X132775026Y-106580897D01*
X132966817Y-106478383D01*
X133134923Y-106340423D01*
X133272883Y-106172317D01*
X133375397Y-105980526D01*
X133438525Y-105772422D01*
X133454500Y-105610227D01*
X133454500Y-104798584D01*
X136300500Y-104798584D01*
X136300500Y-105005416D01*
X136340850Y-105208274D01*
X136420002Y-105399362D01*
X136534911Y-105571336D01*
X136681164Y-105717589D01*
X136853138Y-105832498D01*
X137044226Y-105911650D01*
X137247084Y-105952000D01*
X137453916Y-105952000D01*
X137656774Y-105911650D01*
X137847862Y-105832498D01*
X138019836Y-105717589D01*
X138166089Y-105571336D01*
X138280998Y-105399362D01*
X138360150Y-105208274D01*
X138400500Y-105005416D01*
X138400500Y-104798584D01*
X138360150Y-104595726D01*
X138280998Y-104404638D01*
X138166089Y-104232664D01*
X138127199Y-104193774D01*
X141246500Y-104193774D01*
X141246500Y-105610227D01*
X141262475Y-105772422D01*
X141325604Y-105980526D01*
X141428118Y-106172317D01*
X141566078Y-106340423D01*
X141734184Y-106478383D01*
X141925975Y-106580897D01*
X142134079Y-106644025D01*
X142350500Y-106665341D01*
X142566922Y-106644025D01*
X142775026Y-106580897D01*
X142966817Y-106478383D01*
X143134923Y-106340423D01*
X143272883Y-106172317D01*
X143375397Y-105980526D01*
X143438525Y-105772422D01*
X143454500Y-105610227D01*
X143454500Y-105552000D01*
X156711579Y-105552000D01*
X156743500Y-105555144D01*
X156775421Y-105552000D01*
X156775432Y-105552000D01*
X156870922Y-105542595D01*
X156933870Y-105523500D01*
X157055718Y-105523500D01*
X157219936Y-105490835D01*
X157374626Y-105426760D01*
X157513844Y-105333738D01*
X157632238Y-105215344D01*
X157725260Y-105076126D01*
X157789335Y-104921436D01*
X157822000Y-104757218D01*
X157822000Y-104589782D01*
X157789335Y-104425564D01*
X157725260Y-104270874D01*
X157632238Y-104131656D01*
X157513844Y-104013262D01*
X157374626Y-103920240D01*
X157219936Y-103856165D01*
X157055718Y-103823500D01*
X156888282Y-103823500D01*
X156724064Y-103856165D01*
X156569374Y-103920240D01*
X156430156Y-104013262D01*
X156311762Y-104131656D01*
X156231351Y-104252000D01*
X143454500Y-104252000D01*
X143454500Y-104193773D01*
X143438525Y-104031578D01*
X143375397Y-103823474D01*
X143321405Y-103722461D01*
X166894500Y-103722461D01*
X166894500Y-103978539D01*
X166944458Y-104229696D01*
X167042455Y-104466281D01*
X167184724Y-104679202D01*
X167365798Y-104860276D01*
X167578719Y-105002545D01*
X167815304Y-105100542D01*
X168066461Y-105150500D01*
X168322539Y-105150500D01*
X168573696Y-105100542D01*
X168810281Y-105002545D01*
X169023202Y-104860276D01*
X169204276Y-104679202D01*
X169346545Y-104466281D01*
X169444542Y-104229696D01*
X169494500Y-103978539D01*
X169494500Y-103722461D01*
X169444542Y-103471304D01*
X169346545Y-103234719D01*
X169204276Y-103021798D01*
X169023202Y-102840724D01*
X168810281Y-102698455D01*
X168573696Y-102600458D01*
X168322539Y-102550500D01*
X168066461Y-102550500D01*
X167815304Y-102600458D01*
X167578719Y-102698455D01*
X167365798Y-102840724D01*
X167184724Y-103021798D01*
X167042455Y-103234719D01*
X166944458Y-103471304D01*
X166894500Y-103722461D01*
X143321405Y-103722461D01*
X143272883Y-103631683D01*
X143134923Y-103463577D01*
X142966817Y-103325617D01*
X142775025Y-103223103D01*
X142566921Y-103159975D01*
X142350500Y-103138659D01*
X142134078Y-103159975D01*
X141925974Y-103223103D01*
X141734183Y-103325617D01*
X141566077Y-103463577D01*
X141428117Y-103631683D01*
X141325603Y-103823475D01*
X141262475Y-104031579D01*
X141246500Y-104193774D01*
X138127199Y-104193774D01*
X138019836Y-104086411D01*
X137847862Y-103971502D01*
X137656774Y-103892350D01*
X137453916Y-103852000D01*
X137247084Y-103852000D01*
X137044226Y-103892350D01*
X136853138Y-103971502D01*
X136681164Y-104086411D01*
X136534911Y-104232664D01*
X136420002Y-104404638D01*
X136340850Y-104595726D01*
X136300500Y-104798584D01*
X133454500Y-104798584D01*
X133454500Y-104193773D01*
X133438525Y-104031578D01*
X133375397Y-103823474D01*
X133272883Y-103631683D01*
X133134923Y-103463577D01*
X132966817Y-103325617D01*
X132775025Y-103223103D01*
X132566921Y-103159975D01*
X132350500Y-103138659D01*
X132134078Y-103159975D01*
X131925974Y-103223103D01*
X131734183Y-103325617D01*
X131566077Y-103463577D01*
X131428117Y-103631683D01*
X131325603Y-103823475D01*
X131262475Y-104031579D01*
X131246500Y-104193774D01*
X127475000Y-104193774D01*
X127475000Y-101987250D01*
X129663666Y-99798584D01*
X131300500Y-99798584D01*
X131300500Y-100005416D01*
X131340850Y-100208274D01*
X131420002Y-100399362D01*
X131534911Y-100571336D01*
X131681164Y-100717589D01*
X131853138Y-100832498D01*
X132044226Y-100911650D01*
X132247084Y-100952000D01*
X132453916Y-100952000D01*
X132656774Y-100911650D01*
X132847862Y-100832498D01*
X133019836Y-100717589D01*
X133042022Y-100695403D01*
X134092453Y-100695403D01*
X134159759Y-100895255D01*
X134366806Y-101010927D01*
X134592442Y-101083983D01*
X134827994Y-101111616D01*
X135064411Y-101092765D01*
X135292608Y-101028153D01*
X135503814Y-100920263D01*
X135541241Y-100895255D01*
X135608547Y-100695403D01*
X134850500Y-99937355D01*
X134092453Y-100695403D01*
X133042022Y-100695403D01*
X133166089Y-100571336D01*
X133280998Y-100399362D01*
X133360150Y-100208274D01*
X133400500Y-100005416D01*
X133400500Y-99879494D01*
X133640884Y-99879494D01*
X133659735Y-100115911D01*
X133724347Y-100344108D01*
X133832237Y-100555314D01*
X133857245Y-100592741D01*
X134057097Y-100660047D01*
X134815145Y-99902000D01*
X134885855Y-99902000D01*
X135643903Y-100660047D01*
X135843755Y-100592741D01*
X135959427Y-100385694D01*
X136032483Y-100160058D01*
X136060116Y-99924506D01*
X136048867Y-99783416D01*
X136146500Y-99783416D01*
X136146500Y-100020584D01*
X136192769Y-100253194D01*
X136283529Y-100472308D01*
X136415292Y-100669505D01*
X136582995Y-100837208D01*
X136780192Y-100968971D01*
X136999306Y-101059731D01*
X137231916Y-101106000D01*
X137469084Y-101106000D01*
X137701694Y-101059731D01*
X137920808Y-100968971D01*
X138118005Y-100837208D01*
X138285708Y-100669505D01*
X138417471Y-100472308D01*
X138508231Y-100253194D01*
X138554500Y-100020584D01*
X138554500Y-99783416D01*
X138646500Y-99783416D01*
X138646500Y-100020584D01*
X138692769Y-100253194D01*
X138783529Y-100472308D01*
X138915292Y-100669505D01*
X139082995Y-100837208D01*
X139280192Y-100968971D01*
X139499306Y-101059731D01*
X139731916Y-101106000D01*
X139969084Y-101106000D01*
X140201694Y-101059731D01*
X140420808Y-100968971D01*
X140618005Y-100837208D01*
X140785708Y-100669505D01*
X140917471Y-100472308D01*
X141008231Y-100253194D01*
X141054500Y-100020584D01*
X141054500Y-99798584D01*
X141300500Y-99798584D01*
X141300500Y-100005416D01*
X141340850Y-100208274D01*
X141420002Y-100399362D01*
X141534911Y-100571336D01*
X141681164Y-100717589D01*
X141853138Y-100832498D01*
X142044226Y-100911650D01*
X142247084Y-100952000D01*
X142453916Y-100952000D01*
X142656774Y-100911650D01*
X142847862Y-100832498D01*
X143019836Y-100717589D01*
X143166089Y-100571336D01*
X143280998Y-100399362D01*
X143360150Y-100208274D01*
X143400500Y-100005416D01*
X143400500Y-99798584D01*
X143360150Y-99595726D01*
X143280998Y-99404638D01*
X143166089Y-99232664D01*
X143019836Y-99086411D01*
X142847862Y-98971502D01*
X142656774Y-98892350D01*
X142453916Y-98852000D01*
X142247084Y-98852000D01*
X142044226Y-98892350D01*
X141853138Y-98971502D01*
X141681164Y-99086411D01*
X141534911Y-99232664D01*
X141420002Y-99404638D01*
X141340850Y-99595726D01*
X141300500Y-99798584D01*
X141054500Y-99798584D01*
X141054500Y-99783416D01*
X141008231Y-99550806D01*
X140917471Y-99331692D01*
X140785708Y-99134495D01*
X140618005Y-98966792D01*
X140420808Y-98835029D01*
X140201694Y-98744269D01*
X139969084Y-98698000D01*
X139731916Y-98698000D01*
X139499306Y-98744269D01*
X139280192Y-98835029D01*
X139082995Y-98966792D01*
X138915292Y-99134495D01*
X138783529Y-99331692D01*
X138692769Y-99550806D01*
X138646500Y-99783416D01*
X138554500Y-99783416D01*
X138508231Y-99550806D01*
X138417471Y-99331692D01*
X138285708Y-99134495D01*
X138118005Y-98966792D01*
X137920808Y-98835029D01*
X137701694Y-98744269D01*
X137469084Y-98698000D01*
X137231916Y-98698000D01*
X136999306Y-98744269D01*
X136780192Y-98835029D01*
X136582995Y-98966792D01*
X136415292Y-99134495D01*
X136283529Y-99331692D01*
X136192769Y-99550806D01*
X136146500Y-99783416D01*
X136048867Y-99783416D01*
X136041265Y-99688089D01*
X135976653Y-99459892D01*
X135868763Y-99248686D01*
X135843755Y-99211259D01*
X135643903Y-99143953D01*
X134885855Y-99902000D01*
X134815145Y-99902000D01*
X134057097Y-99143953D01*
X133857245Y-99211259D01*
X133741573Y-99418306D01*
X133668517Y-99643942D01*
X133640884Y-99879494D01*
X133400500Y-99879494D01*
X133400500Y-99798584D01*
X133360150Y-99595726D01*
X133280998Y-99404638D01*
X133166089Y-99232664D01*
X133042022Y-99108597D01*
X134092453Y-99108597D01*
X134850500Y-99866645D01*
X135608547Y-99108597D01*
X135541241Y-98908745D01*
X135334194Y-98793073D01*
X135108558Y-98720017D01*
X134873006Y-98692384D01*
X134636589Y-98711235D01*
X134408392Y-98775847D01*
X134197186Y-98883737D01*
X134159759Y-98908745D01*
X134092453Y-99108597D01*
X133042022Y-99108597D01*
X133019836Y-99086411D01*
X132847862Y-98971502D01*
X132656774Y-98892350D01*
X132453916Y-98852000D01*
X132247084Y-98852000D01*
X132044226Y-98892350D01*
X131853138Y-98971502D01*
X131681164Y-99086411D01*
X131534911Y-99232664D01*
X131420002Y-99404638D01*
X131340850Y-99595726D01*
X131300500Y-99798584D01*
X129663666Y-99798584D01*
X131514751Y-97947500D01*
X144379894Y-97947500D01*
X144372263Y-97953763D01*
G37*
X144372263Y-97953763D02*
X144316029Y-98022284D01*
X144274243Y-98100459D01*
X144248511Y-98185285D01*
X144239823Y-98273500D01*
X144239823Y-99973500D01*
X144248511Y-100061715D01*
X144274243Y-100146541D01*
X144316029Y-100224716D01*
X144372263Y-100293237D01*
X144440784Y-100349471D01*
X144518959Y-100391257D01*
X144603785Y-100416989D01*
X144692000Y-100425677D01*
X146392000Y-100425677D01*
X146480215Y-100416989D01*
X146565041Y-100391257D01*
X146643216Y-100349471D01*
X146711737Y-100293237D01*
X146767971Y-100224716D01*
X146809757Y-100146541D01*
X146835489Y-100061715D01*
X146844177Y-99973500D01*
X146844177Y-99532195D01*
X146929955Y-99739281D01*
X147072224Y-99952202D01*
X147253298Y-100133276D01*
X147466219Y-100275545D01*
X147702804Y-100373542D01*
X147953961Y-100423500D01*
X148210039Y-100423500D01*
X148461196Y-100373542D01*
X148697781Y-100275545D01*
X148910702Y-100133276D01*
X149091776Y-99952202D01*
X149234045Y-99739281D01*
X149332042Y-99502696D01*
X149352000Y-99402360D01*
X149371958Y-99502696D01*
X149469955Y-99739281D01*
X149612224Y-99952202D01*
X149793298Y-100133276D01*
X150006219Y-100275545D01*
X150242804Y-100373542D01*
X150493961Y-100423500D01*
X150750039Y-100423500D01*
X151001196Y-100373542D01*
X151237781Y-100275545D01*
X151450702Y-100133276D01*
X151631776Y-99952202D01*
X151774045Y-99739281D01*
X151872042Y-99502696D01*
X151892000Y-99402360D01*
X151911958Y-99502696D01*
X152009955Y-99739281D01*
X152152224Y-99952202D01*
X152333298Y-100133276D01*
X152546219Y-100275545D01*
X152782804Y-100373542D01*
X153033961Y-100423500D01*
X153290039Y-100423500D01*
X153541196Y-100373542D01*
X153777781Y-100275545D01*
X153990702Y-100133276D01*
X154171776Y-99952202D01*
X154314045Y-99739281D01*
X154412042Y-99502696D01*
X154462000Y-99251539D01*
X154462000Y-98995461D01*
X154412042Y-98744304D01*
X154314045Y-98507719D01*
X154171776Y-98294798D01*
X153990702Y-98113724D01*
X153777781Y-97971455D01*
X153719949Y-97947500D01*
X156647245Y-97947500D01*
X156608029Y-97995284D01*
X156566243Y-98073459D01*
X156540511Y-98158285D01*
X156531823Y-98246500D01*
X156531823Y-99746500D01*
X156540511Y-99834715D01*
X156566243Y-99919541D01*
X156608029Y-99997716D01*
X156664263Y-100066237D01*
X156732784Y-100122471D01*
X156810959Y-100164257D01*
X156895785Y-100189989D01*
X156984000Y-100198677D01*
X158484000Y-100198677D01*
X158572215Y-100189989D01*
X158657041Y-100164257D01*
X158735216Y-100122471D01*
X158803737Y-100066237D01*
X158859971Y-99997716D01*
X158901757Y-99919541D01*
X158927489Y-99834715D01*
X158936177Y-99746500D01*
X158936177Y-98246500D01*
X158927489Y-98158285D01*
X158901757Y-98073459D01*
X158859971Y-97995284D01*
X158820755Y-97947500D01*
X159314245Y-97947500D01*
X159275029Y-97995284D01*
X159233243Y-98073459D01*
X159207511Y-98158285D01*
X159198823Y-98246500D01*
X159198823Y-99746500D01*
X159207511Y-99834715D01*
X159233243Y-99919541D01*
X159275029Y-99997716D01*
X159331263Y-100066237D01*
X159399784Y-100122471D01*
X159477959Y-100164257D01*
X159562785Y-100189989D01*
X159651000Y-100198677D01*
X161151000Y-100198677D01*
X161239215Y-100189989D01*
X161324041Y-100164257D01*
X161402216Y-100122471D01*
X161470737Y-100066237D01*
X161526971Y-99997716D01*
X161568757Y-99919541D01*
X161594489Y-99834715D01*
X161603177Y-99746500D01*
X161603177Y-98246500D01*
X161594489Y-98158285D01*
X161568757Y-98073459D01*
X161526971Y-97995284D01*
X161487755Y-97947500D01*
X173197501Y-97947500D01*
X173197500Y-113825000D01*
X127475000Y-113825000D01*
X127475000Y-112298584D01*
X131300500Y-112298584D01*
X131300500Y-112505416D01*
X131340850Y-112708274D01*
X131420002Y-112899362D01*
X131534911Y-113071336D01*
X131681164Y-113217589D01*
X131853138Y-113332498D01*
X132044226Y-113411650D01*
X132247084Y-113452000D01*
X132453916Y-113452000D01*
X132656774Y-113411650D01*
X132847862Y-113332498D01*
X133019836Y-113217589D01*
X133166089Y-113071336D01*
X133280998Y-112899362D01*
X133360150Y-112708274D01*
X133400500Y-112505416D01*
X133400500Y-112298584D01*
X141300500Y-112298584D01*
X141300500Y-112505416D01*
X141340850Y-112708274D01*
X141420002Y-112899362D01*
X141534911Y-113071336D01*
X141681164Y-113217589D01*
X141853138Y-113332498D01*
X142044226Y-113411650D01*
X142247084Y-113452000D01*
X142453916Y-113452000D01*
X142656774Y-113411650D01*
X142847862Y-113332498D01*
X143019836Y-113217589D01*
X143166089Y-113071336D01*
X143280998Y-112899362D01*
X143360150Y-112708274D01*
X143400500Y-112505416D01*
X143400500Y-112298584D01*
X143360150Y-112095726D01*
X143280998Y-111904638D01*
X143166089Y-111732664D01*
X143019836Y-111586411D01*
X142847862Y-111471502D01*
X142656774Y-111392350D01*
X142453916Y-111352000D01*
X142247084Y-111352000D01*
X142044226Y-111392350D01*
X141853138Y-111471502D01*
X141681164Y-111586411D01*
X141534911Y-111732664D01*
X141420002Y-111904638D01*
X141340850Y-112095726D01*
X141300500Y-112298584D01*
X133400500Y-112298584D01*
X133360150Y-112095726D01*
X133280998Y-111904638D01*
X133166089Y-111732664D01*
X133019836Y-111586411D01*
X132847862Y-111471502D01*
X132656774Y-111392350D01*
X132453916Y-111352000D01*
X132247084Y-111352000D01*
X132044226Y-111392350D01*
X131853138Y-111471502D01*
X131681164Y-111586411D01*
X131534911Y-111732664D01*
X131420002Y-111904638D01*
X131340850Y-112095726D01*
X131300500Y-112298584D01*
X127475000Y-112298584D01*
X127475000Y-109130838D01*
X127926500Y-109130838D01*
X127926500Y-109436162D01*
X127986065Y-109735618D01*
X128102908Y-110017700D01*
X128272536Y-110271568D01*
X128488432Y-110487464D01*
X128742300Y-110657092D01*
X129024382Y-110773935D01*
X129323838Y-110833500D01*
X129629162Y-110833500D01*
X129928618Y-110773935D01*
X130210700Y-110657092D01*
X130464568Y-110487464D01*
X130680464Y-110271568D01*
X130850092Y-110017700D01*
X130940853Y-109798584D01*
X131300500Y-109798584D01*
X131300500Y-110005416D01*
X131340850Y-110208274D01*
X131420002Y-110399362D01*
X131534911Y-110571336D01*
X131681164Y-110717589D01*
X131853138Y-110832498D01*
X132044226Y-110911650D01*
X132247084Y-110952000D01*
X132453916Y-110952000D01*
X132656774Y-110911650D01*
X132847862Y-110832498D01*
X133019836Y-110717589D01*
X133166089Y-110571336D01*
X133280998Y-110399362D01*
X133360150Y-110208274D01*
X133381815Y-110099352D01*
X135610282Y-110099352D01*
X135666971Y-110301386D01*
X135764669Y-110494563D01*
X135898177Y-110664968D01*
X136062364Y-110806053D01*
X136250921Y-110912396D01*
X136456601Y-110979910D01*
X136671500Y-111006000D01*
X137325500Y-111006000D01*
X137325500Y-109927000D01*
X137375500Y-109927000D01*
X137375500Y-111006000D01*
X138029500Y-111006000D01*
X138244399Y-110979910D01*
X138450079Y-110912396D01*
X138638636Y-110806053D01*
X138802823Y-110664968D01*
X138936331Y-110494563D01*
X139034029Y-110301386D01*
X139090718Y-110099352D01*
X138995685Y-109927000D01*
X137375500Y-109927000D01*
X137325500Y-109927000D01*
X135705315Y-109927000D01*
X135610282Y-110099352D01*
X133381815Y-110099352D01*
X133400500Y-110005416D01*
X133400500Y-109798584D01*
X133381816Y-109704648D01*
X135610282Y-109704648D01*
X135705315Y-109877000D01*
X137325500Y-109877000D01*
X137325500Y-108798000D01*
X137375500Y-108798000D01*
X137375500Y-109877000D01*
X138995685Y-109877000D01*
X139038922Y-109798584D01*
X141300500Y-109798584D01*
X141300500Y-110005416D01*
X141340850Y-110208274D01*
X141420002Y-110399362D01*
X141534911Y-110571336D01*
X141681164Y-110717589D01*
X141853138Y-110832498D01*
X142044226Y-110911650D01*
X142247084Y-110952000D01*
X142453916Y-110952000D01*
X142656774Y-110911650D01*
X142847862Y-110832498D01*
X143019836Y-110717589D01*
X143166089Y-110571336D01*
X143280998Y-110399362D01*
X143360150Y-110208274D01*
X143400500Y-110005416D01*
X143400500Y-109798584D01*
X143360150Y-109595726D01*
X143280998Y-109404638D01*
X143166089Y-109232664D01*
X143064263Y-109130838D01*
X143674500Y-109130838D01*
X143674500Y-109436162D01*
X143734065Y-109735618D01*
X143850908Y-110017700D01*
X144020536Y-110271568D01*
X144236432Y-110487464D01*
X144490300Y-110657092D01*
X144772382Y-110773935D01*
X145071838Y-110833500D01*
X145377162Y-110833500D01*
X145676618Y-110773935D01*
X145800886Y-110722461D01*
X166894500Y-110722461D01*
X166894500Y-110978539D01*
X166944458Y-111229696D01*
X167042455Y-111466281D01*
X167184724Y-111679202D01*
X167365798Y-111860276D01*
X167578719Y-112002545D01*
X167815304Y-112100542D01*
X168066461Y-112150500D01*
X168322539Y-112150500D01*
X168573696Y-112100542D01*
X168810281Y-112002545D01*
X169023202Y-111860276D01*
X169204276Y-111679202D01*
X169346545Y-111466281D01*
X169444542Y-111229696D01*
X169494500Y-110978539D01*
X169494500Y-110722461D01*
X169444542Y-110471304D01*
X169346545Y-110234719D01*
X169204276Y-110021798D01*
X169023202Y-109840724D01*
X168810281Y-109698455D01*
X168573696Y-109600458D01*
X168322539Y-109550500D01*
X168066461Y-109550500D01*
X167815304Y-109600458D01*
X167578719Y-109698455D01*
X167365798Y-109840724D01*
X167184724Y-110021798D01*
X167042455Y-110234719D01*
X166944458Y-110471304D01*
X166894500Y-110722461D01*
X145800886Y-110722461D01*
X145958700Y-110657092D01*
X146212568Y-110487464D01*
X146428464Y-110271568D01*
X146598092Y-110017700D01*
X146714935Y-109735618D01*
X146774500Y-109436162D01*
X146774500Y-109130838D01*
X146714935Y-108831382D01*
X146598092Y-108549300D01*
X146428464Y-108295432D01*
X146212568Y-108079536D01*
X145958700Y-107909908D01*
X145676618Y-107793065D01*
X145377162Y-107733500D01*
X145071838Y-107733500D01*
X144772382Y-107793065D01*
X144490300Y-107909908D01*
X144236432Y-108079536D01*
X144020536Y-108295432D01*
X143850908Y-108549300D01*
X143734065Y-108831382D01*
X143674500Y-109130838D01*
X143064263Y-109130838D01*
X143019836Y-109086411D01*
X142847862Y-108971502D01*
X142656774Y-108892350D01*
X142453916Y-108852000D01*
X142247084Y-108852000D01*
X142044226Y-108892350D01*
X141853138Y-108971502D01*
X141681164Y-109086411D01*
X141534911Y-109232664D01*
X141420002Y-109404638D01*
X141340850Y-109595726D01*
X141300500Y-109798584D01*
X139038922Y-109798584D01*
X139090718Y-109704648D01*
X139034029Y-109502614D01*
X138936331Y-109309437D01*
X138802823Y-109139032D01*
X138638636Y-108997947D01*
X138450079Y-108891604D01*
X138244399Y-108824090D01*
X138029500Y-108798000D01*
X137375500Y-108798000D01*
X137325500Y-108798000D01*
X136671500Y-108798000D01*
X136456601Y-108824090D01*
X136250921Y-108891604D01*
X136062364Y-108997947D01*
X135898177Y-109139032D01*
X135764669Y-109309437D01*
X135666971Y-109502614D01*
X135610282Y-109704648D01*
X133381816Y-109704648D01*
X133360150Y-109595726D01*
X133280998Y-109404638D01*
X133166089Y-109232664D01*
X133019836Y-109086411D01*
X132847862Y-108971502D01*
X132656774Y-108892350D01*
X132453916Y-108852000D01*
X132247084Y-108852000D01*
X132044226Y-108892350D01*
X131853138Y-108971502D01*
X131681164Y-109086411D01*
X131534911Y-109232664D01*
X131420002Y-109404638D01*
X131340850Y-109595726D01*
X131300500Y-109798584D01*
X130940853Y-109798584D01*
X130966935Y-109735618D01*
X131026500Y-109436162D01*
X131026500Y-109130838D01*
X130966935Y-108831382D01*
X130850092Y-108549300D01*
X130680464Y-108295432D01*
X130464568Y-108079536D01*
X130210700Y-107909908D01*
X129928618Y-107793065D01*
X129629162Y-107733500D01*
X129323838Y-107733500D01*
X129024382Y-107793065D01*
X128742300Y-107909908D01*
X128488432Y-108079536D01*
X128272536Y-108295432D01*
X128102908Y-108549300D01*
X127986065Y-108831382D01*
X127926500Y-109130838D01*
X127475000Y-109130838D01*
X127475000Y-104193774D01*
X131246500Y-104193774D01*
X131246500Y-105610227D01*
X131262475Y-105772422D01*
X131325604Y-105980526D01*
X131428118Y-106172317D01*
X131566078Y-106340423D01*
X131734184Y-106478383D01*
X131925975Y-106580897D01*
X132134079Y-106644025D01*
X132350500Y-106665341D01*
X132566922Y-106644025D01*
X132775026Y-106580897D01*
X132966817Y-106478383D01*
X133134923Y-106340423D01*
X133272883Y-106172317D01*
X133375397Y-105980526D01*
X133438525Y-105772422D01*
X133454500Y-105610227D01*
X133454500Y-104798584D01*
X136300500Y-104798584D01*
X136300500Y-105005416D01*
X136340850Y-105208274D01*
X136420002Y-105399362D01*
X136534911Y-105571336D01*
X136681164Y-105717589D01*
X136853138Y-105832498D01*
X137044226Y-105911650D01*
X137247084Y-105952000D01*
X137453916Y-105952000D01*
X137656774Y-105911650D01*
X137847862Y-105832498D01*
X138019836Y-105717589D01*
X138166089Y-105571336D01*
X138280998Y-105399362D01*
X138360150Y-105208274D01*
X138400500Y-105005416D01*
X138400500Y-104798584D01*
X138360150Y-104595726D01*
X138280998Y-104404638D01*
X138166089Y-104232664D01*
X138127199Y-104193774D01*
X141246500Y-104193774D01*
X141246500Y-105610227D01*
X141262475Y-105772422D01*
X141325604Y-105980526D01*
X141428118Y-106172317D01*
X141566078Y-106340423D01*
X141734184Y-106478383D01*
X141925975Y-106580897D01*
X142134079Y-106644025D01*
X142350500Y-106665341D01*
X142566922Y-106644025D01*
X142775026Y-106580897D01*
X142966817Y-106478383D01*
X143134923Y-106340423D01*
X143272883Y-106172317D01*
X143375397Y-105980526D01*
X143438525Y-105772422D01*
X143454500Y-105610227D01*
X143454500Y-105552000D01*
X156711579Y-105552000D01*
X156743500Y-105555144D01*
X156775421Y-105552000D01*
X156775432Y-105552000D01*
X156870922Y-105542595D01*
X156933870Y-105523500D01*
X157055718Y-105523500D01*
X157219936Y-105490835D01*
X157374626Y-105426760D01*
X157513844Y-105333738D01*
X157632238Y-105215344D01*
X157725260Y-105076126D01*
X157789335Y-104921436D01*
X157822000Y-104757218D01*
X157822000Y-104589782D01*
X157789335Y-104425564D01*
X157725260Y-104270874D01*
X157632238Y-104131656D01*
X157513844Y-104013262D01*
X157374626Y-103920240D01*
X157219936Y-103856165D01*
X157055718Y-103823500D01*
X156888282Y-103823500D01*
X156724064Y-103856165D01*
X156569374Y-103920240D01*
X156430156Y-104013262D01*
X156311762Y-104131656D01*
X156231351Y-104252000D01*
X143454500Y-104252000D01*
X143454500Y-104193773D01*
X143438525Y-104031578D01*
X143375397Y-103823474D01*
X143321405Y-103722461D01*
X166894500Y-103722461D01*
X166894500Y-103978539D01*
X166944458Y-104229696D01*
X167042455Y-104466281D01*
X167184724Y-104679202D01*
X167365798Y-104860276D01*
X167578719Y-105002545D01*
X167815304Y-105100542D01*
X168066461Y-105150500D01*
X168322539Y-105150500D01*
X168573696Y-105100542D01*
X168810281Y-105002545D01*
X169023202Y-104860276D01*
X169204276Y-104679202D01*
X169346545Y-104466281D01*
X169444542Y-104229696D01*
X169494500Y-103978539D01*
X169494500Y-103722461D01*
X169444542Y-103471304D01*
X169346545Y-103234719D01*
X169204276Y-103021798D01*
X169023202Y-102840724D01*
X168810281Y-102698455D01*
X168573696Y-102600458D01*
X168322539Y-102550500D01*
X168066461Y-102550500D01*
X167815304Y-102600458D01*
X167578719Y-102698455D01*
X167365798Y-102840724D01*
X167184724Y-103021798D01*
X167042455Y-103234719D01*
X166944458Y-103471304D01*
X166894500Y-103722461D01*
X143321405Y-103722461D01*
X143272883Y-103631683D01*
X143134923Y-103463577D01*
X142966817Y-103325617D01*
X142775025Y-103223103D01*
X142566921Y-103159975D01*
X142350500Y-103138659D01*
X142134078Y-103159975D01*
X141925974Y-103223103D01*
X141734183Y-103325617D01*
X141566077Y-103463577D01*
X141428117Y-103631683D01*
X141325603Y-103823475D01*
X141262475Y-104031579D01*
X141246500Y-104193774D01*
X138127199Y-104193774D01*
X138019836Y-104086411D01*
X137847862Y-103971502D01*
X137656774Y-103892350D01*
X137453916Y-103852000D01*
X137247084Y-103852000D01*
X137044226Y-103892350D01*
X136853138Y-103971502D01*
X136681164Y-104086411D01*
X136534911Y-104232664D01*
X136420002Y-104404638D01*
X136340850Y-104595726D01*
X136300500Y-104798584D01*
X133454500Y-104798584D01*
X133454500Y-104193773D01*
X133438525Y-104031578D01*
X133375397Y-103823474D01*
X133272883Y-103631683D01*
X133134923Y-103463577D01*
X132966817Y-103325617D01*
X132775025Y-103223103D01*
X132566921Y-103159975D01*
X132350500Y-103138659D01*
X132134078Y-103159975D01*
X131925974Y-103223103D01*
X131734183Y-103325617D01*
X131566077Y-103463577D01*
X131428117Y-103631683D01*
X131325603Y-103823475D01*
X131262475Y-104031579D01*
X131246500Y-104193774D01*
X127475000Y-104193774D01*
X127475000Y-101987250D01*
X129663666Y-99798584D01*
X131300500Y-99798584D01*
X131300500Y-100005416D01*
X131340850Y-100208274D01*
X131420002Y-100399362D01*
X131534911Y-100571336D01*
X131681164Y-100717589D01*
X131853138Y-100832498D01*
X132044226Y-100911650D01*
X132247084Y-100952000D01*
X132453916Y-100952000D01*
X132656774Y-100911650D01*
X132847862Y-100832498D01*
X133019836Y-100717589D01*
X133042022Y-100695403D01*
X134092453Y-100695403D01*
X134159759Y-100895255D01*
X134366806Y-101010927D01*
X134592442Y-101083983D01*
X134827994Y-101111616D01*
X135064411Y-101092765D01*
X135292608Y-101028153D01*
X135503814Y-100920263D01*
X135541241Y-100895255D01*
X135608547Y-100695403D01*
X134850500Y-99937355D01*
X134092453Y-100695403D01*
X133042022Y-100695403D01*
X133166089Y-100571336D01*
X133280998Y-100399362D01*
X133360150Y-100208274D01*
X133400500Y-100005416D01*
X133400500Y-99879494D01*
X133640884Y-99879494D01*
X133659735Y-100115911D01*
X133724347Y-100344108D01*
X133832237Y-100555314D01*
X133857245Y-100592741D01*
X134057097Y-100660047D01*
X134815145Y-99902000D01*
X134885855Y-99902000D01*
X135643903Y-100660047D01*
X135843755Y-100592741D01*
X135959427Y-100385694D01*
X136032483Y-100160058D01*
X136060116Y-99924506D01*
X136048867Y-99783416D01*
X136146500Y-99783416D01*
X136146500Y-100020584D01*
X136192769Y-100253194D01*
X136283529Y-100472308D01*
X136415292Y-100669505D01*
X136582995Y-100837208D01*
X136780192Y-100968971D01*
X136999306Y-101059731D01*
X137231916Y-101106000D01*
X137469084Y-101106000D01*
X137701694Y-101059731D01*
X137920808Y-100968971D01*
X138118005Y-100837208D01*
X138285708Y-100669505D01*
X138417471Y-100472308D01*
X138508231Y-100253194D01*
X138554500Y-100020584D01*
X138554500Y-99783416D01*
X138646500Y-99783416D01*
X138646500Y-100020584D01*
X138692769Y-100253194D01*
X138783529Y-100472308D01*
X138915292Y-100669505D01*
X139082995Y-100837208D01*
X139280192Y-100968971D01*
X139499306Y-101059731D01*
X139731916Y-101106000D01*
X139969084Y-101106000D01*
X140201694Y-101059731D01*
X140420808Y-100968971D01*
X140618005Y-100837208D01*
X140785708Y-100669505D01*
X140917471Y-100472308D01*
X141008231Y-100253194D01*
X141054500Y-100020584D01*
X141054500Y-99798584D01*
X141300500Y-99798584D01*
X141300500Y-100005416D01*
X141340850Y-100208274D01*
X141420002Y-100399362D01*
X141534911Y-100571336D01*
X141681164Y-100717589D01*
X141853138Y-100832498D01*
X142044226Y-100911650D01*
X142247084Y-100952000D01*
X142453916Y-100952000D01*
X142656774Y-100911650D01*
X142847862Y-100832498D01*
X143019836Y-100717589D01*
X143166089Y-100571336D01*
X143280998Y-100399362D01*
X143360150Y-100208274D01*
X143400500Y-100005416D01*
X143400500Y-99798584D01*
X143360150Y-99595726D01*
X143280998Y-99404638D01*
X143166089Y-99232664D01*
X143019836Y-99086411D01*
X142847862Y-98971502D01*
X142656774Y-98892350D01*
X142453916Y-98852000D01*
X142247084Y-98852000D01*
X142044226Y-98892350D01*
X141853138Y-98971502D01*
X141681164Y-99086411D01*
X141534911Y-99232664D01*
X141420002Y-99404638D01*
X141340850Y-99595726D01*
X141300500Y-99798584D01*
X141054500Y-99798584D01*
X141054500Y-99783416D01*
X141008231Y-99550806D01*
X140917471Y-99331692D01*
X140785708Y-99134495D01*
X140618005Y-98966792D01*
X140420808Y-98835029D01*
X140201694Y-98744269D01*
X139969084Y-98698000D01*
X139731916Y-98698000D01*
X139499306Y-98744269D01*
X139280192Y-98835029D01*
X139082995Y-98966792D01*
X138915292Y-99134495D01*
X138783529Y-99331692D01*
X138692769Y-99550806D01*
X138646500Y-99783416D01*
X138554500Y-99783416D01*
X138508231Y-99550806D01*
X138417471Y-99331692D01*
X138285708Y-99134495D01*
X138118005Y-98966792D01*
X137920808Y-98835029D01*
X137701694Y-98744269D01*
X137469084Y-98698000D01*
X137231916Y-98698000D01*
X136999306Y-98744269D01*
X136780192Y-98835029D01*
X136582995Y-98966792D01*
X136415292Y-99134495D01*
X136283529Y-99331692D01*
X136192769Y-99550806D01*
X136146500Y-99783416D01*
X136048867Y-99783416D01*
X136041265Y-99688089D01*
X135976653Y-99459892D01*
X135868763Y-99248686D01*
X135843755Y-99211259D01*
X135643903Y-99143953D01*
X134885855Y-99902000D01*
X134815145Y-99902000D01*
X134057097Y-99143953D01*
X133857245Y-99211259D01*
X133741573Y-99418306D01*
X133668517Y-99643942D01*
X133640884Y-99879494D01*
X133400500Y-99879494D01*
X133400500Y-99798584D01*
X133360150Y-99595726D01*
X133280998Y-99404638D01*
X133166089Y-99232664D01*
X133042022Y-99108597D01*
X134092453Y-99108597D01*
X134850500Y-99866645D01*
X135608547Y-99108597D01*
X135541241Y-98908745D01*
X135334194Y-98793073D01*
X135108558Y-98720017D01*
X134873006Y-98692384D01*
X134636589Y-98711235D01*
X134408392Y-98775847D01*
X134197186Y-98883737D01*
X134159759Y-98908745D01*
X134092453Y-99108597D01*
X133042022Y-99108597D01*
X133019836Y-99086411D01*
X132847862Y-98971502D01*
X132656774Y-98892350D01*
X132453916Y-98852000D01*
X132247084Y-98852000D01*
X132044226Y-98892350D01*
X131853138Y-98971502D01*
X131681164Y-99086411D01*
X131534911Y-99232664D01*
X131420002Y-99404638D01*
X131340850Y-99595726D01*
X131300500Y-99798584D01*
X129663666Y-99798584D01*
X131514751Y-97947500D01*
X144379894Y-97947500D01*
X144372263Y-97953763D01*
%TD*%
M02*
